<?xml version="1.0" standalone="no"?>
<!DOCTYPE svg PUBLIC "-//W3C//DTD SVG 20010904//EN"
 "http://www.w3.org/TR/2001/REC-SVG-20010904/DTD/svg10.dtd">
<svg version="1.0" xmlns="http://www.w3.org/2000/svg"
 width="449.000000pt" height="275.000000pt" viewBox="0 0 449.000000 275.000000"
 preserveAspectRatio="xMidYMid meet">

<g transform="translate(0.000000,275.000000) scale(0.100000,-0.100000)"
fill="#000000" stroke="none">
<path d="M3240 2729 c-47 -5 -125 -16 -175 -25 -49 -9 -128 -22 -175 -29 -80
-13 -273 -75 -343 -111 -67 -35 -234 -155 -279 -201 -52 -54 -262 -340 -286
-390 -17 -36 -27 -41 -39 -19 -10 18 -136 121 -186 153 -81 51 -233 123 -284
134 -46 11 -65 10 -126 -5 -76 -18 -85 -22 -192 -98 -56 -41 -83 -52 -187 -78
-141 -36 -152 -41 -237 -109 l-64 -51 -107 0 c-104 0 -110 -1 -181 -37 -174
-86 -317 -311 -360 -564 -21 -128 9 -342 81 -561 34 -105 46 -128 122 -231 90
-124 135 -165 298 -274 192 -129 286 -164 512 -192 251 -31 300 -34 349 -16
24 8 51 15 60 15 10 0 50 26 90 57 71 54 77 57 149 63 51 5 92 15 128 34 90
46 198 123 246 177 53 59 46 59 182 -11 53 -28 102 -43 195 -61 68 -13 131
-23 139 -21 8 1 62 7 120 12 217 20 482 96 588 168 82 56 202 225 232 327 6
22 17 56 25 75 7 19 23 78 35 130 12 52 27 100 34 106 6 6 52 28 101 49 209
88 295 134 354 190 90 85 205 239 212 283 14 86 93 316 130 379 21 37 44 83
50 103 7 19 16 38 21 41 10 6 -28 115 -43 125 -6 3 -13 -4 -16 -15 l-6 -22
-15 22 c-10 15 -11 23 -4 28 18 11 -41 40 -94 48 -27 3 -54 11 -62 17 -28 23
-56 57 -76 93 -41 73 -125 119 -391 215 -232 84 -325 97 -525 77z m170 -114
c46 -14 91 -25 99 -25 30 0 118 -48 153 -83 43 -42 94 -149 114 -237 23 -98
23 -100 42 -93 15 6 15 4 4 -10 -12 -13 -9 -21 20 -51 47 -51 187 -129 205
-115 12 11 17 5 14 -15 -3 -14 61 -76 71 -70 5 3 8 2 7 -3 -3 -20 2 -25 15
-14 12 10 18 7 30 -17 14 -27 19 -30 53 -25 37 5 38 4 40 -30 3 -37 -16 -62
-52 -69 -16 -3 -20 -11 -18 -38 1 -20 -2 -28 -7 -20 -5 8 -10 -2 -15 -29 -4
-22 -12 -41 -19 -41 -7 0 -19 -15 -28 -33 -20 -43 -132 -171 -136 -157 -3 8
-8 7 -18 -1 -8 -6 -11 -15 -8 -20 7 -12 -38 -49 -49 -42 -5 3 -4 10 2 16 6 6
11 15 11 20 0 5 -11 -4 -24 -20 -13 -16 -36 -35 -50 -42 -14 -8 -26 -20 -26
-28 0 -7 -7 -13 -15 -13 -8 0 -15 -5 -15 -11 0 -5 -4 -8 -9 -5 -5 3 -14 -1
-21 -9 -7 -8 -18 -15 -24 -15 -6 0 -40 -14 -76 -30 l-65 -29 -8 32 c-4 18 -12
60 -17 95 -6 35 -19 80 -30 100 -10 20 -21 45 -24 54 -3 9 -16 24 -31 34 -24
16 -29 15 -118 -14 -50 -17 -164 -44 -252 -61 -368 -70 -414 -80 -500 -112
-78 -28 -101 -32 -175 -30 -47 1 -139 -5 -205 -14 l-120 -15 -38 42 c-22 24
-57 73 -79 110 -22 38 -46 68 -53 68 -8 0 -27 12 -44 26 -17 14 -31 21 -31 15
0 -27 -20 -7 -36 37 -10 26 -22 50 -26 53 -13 8 32 88 104 185 36 49 89 137
118 196 44 93 66 122 156 220 168 180 373 319 499 338 27 4 86 15 130 24 129
27 273 44 386 45 86 1 121 -4 189 -24z m856 -303 c5 -5 27 -14 50 -20 39 -11
64 -41 64 -77 0 -7 11 -27 24 -42 l25 -29 -42 -85 c-54 -108 -81 -115 -165
-43 -49 42 -84 103 -84 149 0 32 32 106 60 138 16 18 51 23 68 9z m-2793 -103
c50 -13 119 -41 182 -76 117 -64 137 -79 229 -165 81 -74 83 -57 -26 -207 -79
-110 -87 -131 -63 -167 9 -14 25 -51 36 -81 24 -69 31 -79 89 -108 26 -13 69
-48 95 -77 l47 -53 -33 -6 c-85 -17 -149 -18 -164 -3 -12 12 -18 13 -37 2 -13
-7 -56 -15 -96 -19 -108 -9 -107 -6 -93 -193 12 -171 24 -214 89 -325 65 -108
173 -205 300 -270 l43 -22 -23 -32 c-65 -91 -177 -165 -312 -206 -83 -26 -108
-26 -128 -3 -30 33 -220 471 -229 527 -2 12 11 44 29 72 43 66 85 183 112 312
20 93 21 112 11 171 -12 65 -56 178 -66 168 -3 -3 -2 -16 3 -29 5 -13 12 -37
16 -54 6 -26 3 -23 -25 19 -40 60 -49 47 -13 -18 16 -28 32 -45 39 -42 20 7
39 -85 31 -153 -11 -92 -38 -193 -48 -179 -6 8 -7 4 -2 -12 3 -14 3 -22 -1
-17 -7 6 -62 -114 -69 -152 -4 -23 -37 -41 -55 -31 -94 50 -264 327 -356 583
-40 109 -46 103 -9 -9 31 -93 99 -242 149 -323 19 -32 35 -62 35 -67 0 -17
-95 144 -136 231 -50 106 -87 234 -79 268 5 17 2 26 -9 30 -9 4 -16 12 -16 19
0 9 3 9 11 -2 8 -11 9 -6 4 20 -21 119 -21 117 20 134 44 19 69 21 59 4 -5 -7
-3 -8 7 -2 8 4 43 7 79 5 89 -3 220 -71 304 -156 33 -33 50 -46 38 -29 -59 87
-200 175 -318 200 -44 10 -87 24 -96 32 -19 16 -24 47 -9 56 4 3 11 29 14 59
6 62 34 115 93 177 23 25 60 72 83 104 45 65 66 83 120 102 48 17 50 17 144
-7z m2467 17 c0 -3 -4 -8 -10 -11 -5 -3 -10 -1 -10 4 0 6 5 11 10 11 6 0 10
-2 10 -4z m9 -52 c-14 -18 -24 -11 -15 11 3 9 11 13 16 10 8 -5 7 -11 -1 -21z
m-29 -14 c0 -5 -4 -10 -10 -10 -5 0 -10 5 -10 10 0 6 5 10 10 10 6 0 10 -4 10
-10z m-2829 -153 c-33 -47 -65 -97 -71 -112 -11 -30 -33 -29 -38 1 -2 14 -18
26 -50 37 -63 23 -71 22 -83 -10 -10 -27 -9 -33 17 -125 6 -21 -21 -25 -29 -5
-7 18 -111 57 -153 57 -55 0 -98 -24 -136 -76 -49 -68 -65 -101 -99 -211 -37
-121 -40 -258 -9 -374 11 -41 23 -89 27 -106 l6 -33 -51 0 c-65 0 -144 30
-213 79 -30 22 -78 52 -108 68 l-53 28 5 71 c10 139 121 371 220 460 49 44
144 100 154 91 2 -3 25 2 50 9 25 8 70 14 98 14 70 0 110 15 175 65 71 55 107
73 172 86 67 14 157 43 194 62 16 8 31 14 33 12 2 -2 -24 -42 -58 -88z m61 41
c-7 -7 -12 -8 -12 -2 0 14 12 26 19 19 2 -3 -1 -11 -7 -17z m-182 -184 c0 -28
-17 -41 -60 -46 -34 -3 -35 -2 -44 39 -13 65 3 78 60 50 32 -15 44 -27 44 -43z
m-106 -128 c59 -54 60 -55 45 -82 -7 -15 -21 -29 -30 -31 -12 -4 -20 -25 -28
-79 -22 -147 -16 -198 40 -361 28 -81 57 -160 64 -174 34 -65 235 -218 329
-249 45 -14 106 -115 135 -222 12 -42 40 -116 63 -165 22 -48 49 -112 59 -140
17 -50 17 -53 0 -65 -9 -7 -30 -30 -45 -50 -43 -57 -68 -53 -219 39 -70 43
-163 105 -208 138 -89 65 -244 233 -327 353 -59 85 -205 343 -217 382 -4 14
-23 61 -44 105 -36 79 -36 81 -36 215 0 143 1 145 69 295 25 53 94 142 123
159 10 6 36 13 58 16 51 8 90 -12 169 -84z m122 59 c13 -52 -36 -72 -75 -31
l-23 25 33 15 c48 21 58 19 65 -9z m-14 -87 c-6 -6 -15 -8 -19 -4 -4 4 -1 11
7 16 8 5 17 7 19 4 3 -2 -1 -10 -7 -16z m3248 -73 c0 -16 -6 -25 -15 -25 -18
0 -18 5 -5 31 14 26 20 24 20 -6z m-52 -29 c-7 -8 -15 -12 -17 -11 -5 6 10 25
20 25 5 0 4 -6 -3 -14z m-3254 -118 c9 -53 25 -125 36 -160 10 -34 18 -64 16
-66 -6 -6 -63 162 -71 208 -4 25 -11 53 -16 62 -11 20 -1 74 11 61 4 -4 15
-52 24 -105z m2548 2 c-1 -6 -7 -80 -12 -163 -6 -84 -16 -175 -24 -202 -7 -28
-23 -86 -35 -130 -32 -117 -50 -152 -87 -175 -19 -10 -34 -24 -34 -30 0 -6 6
-8 13 -4 6 4 9 4 5 0 -3 -4 -10 -8 -15 -8 -4 -1 -18 -15 -31 -32 -12 -17 -56
-65 -97 -107 -66 -67 -91 -84 -207 -143 -189 -95 -347 -123 -567 -100 -168 17
-238 40 -348 115 -23 16 -48 29 -55 29 -8 0 -33 12 -56 27 -31 21 -40 32 -36
46 4 13 -11 38 -53 85 -33 37 -71 85 -86 107 -34 53 -75 192 -83 283 -6 63 -5
72 10 72 10 0 16 8 16 24 0 33 16 42 83 50 68 7 76 -2 52 -60 -29 -71 -3 -199
61 -300 19 -29 35 -57 36 -61 1 -5 20 -33 42 -65 28 -38 49 -57 66 -60 16 -2
24 -9 22 -19 -2 -16 61 -73 70 -63 3 2 43 -14 89 -36 87 -42 266 -93 308 -88
26 3 36 17 47 63 l7 30 10 -32 c12 -39 22 -40 135 -17 99 20 175 51 248 102
73 49 221 186 221 204 0 18 68 129 75 123 7 -7 35 96 48 176 5 37 16 84 24
105 7 22 19 78 26 127 10 63 17 87 28 87 9 0 13 7 9 20 -4 16 0 20 18 20 13 0
27 5 30 11 9 13 31 5 27 -11z m-1577 0 c3 -5 1 -10 -4 -10 -6 0 -11 5 -11 10
0 6 2 10 4 10 3 0 8 -4 11 -10z m2225 -20 c0 -5 -8 -10 -17 -10 -15 0 -16 2
-3 10 19 12 20 12 20 0z m-794 -18 c-2 -4 -9 -61 -15 -127 -6 -66 -16 -135
-22 -154 l-11 -34 -82 7 c-95 7 -257 35 -271 46 -5 4 -57 15 -115 25 -137 22
-173 33 -166 52 3 8 6 23 6 34 0 17 8 19 59 19 33 0 63 5 66 10 3 6 -2 10 -11
10 -36 0 -2 13 92 36 53 13 100 21 104 19 4 -3 65 8 136 25 180 40 241 49 230
32z m-2406 -112 c25 -78 25 -95 0 -65 -7 9 -15 14 -17 11 -6 -6 17 -49 34 -61
14 -11 65 -175 54 -175 -11 0 -112 247 -118 288 -6 43 3 99 15 88 3 -4 18 -43
32 -86z m2600 -51 c0 -22 -4 -38 -8 -35 -8 5 -4 76 4 76 2 0 4 -18 4 -41z
m-1086 -15 c10 -4 16 -18 16 -36 0 -27 3 -30 25 -26 14 3 25 2 25 -2 0 -10
-46 -40 -62 -40 -7 0 -74 -73 -148 -161 -140 -168 -254 -281 -275 -272 -18 6
-127 172 -120 182 2 5 -6 34 -20 65 -28 64 -37 165 -17 211 l13 31 212 25
c217 27 323 34 351 23z m101 -14 c3 -5 1 -10 -4 -10 -6 0 -11 5 -11 10 0 6 2
10 4 10 3 0 8 -4 11 -10z m65 0 c13 -8 13 -10 -2 -10 -9 0 -20 5 -23 10 -8 13
5 13 25 0z m-1480 -255 c24 -38 77 -105 119 -147 41 -43 72 -78 67 -78 -4 0
-44 19 -87 41 -80 42 -142 100 -132 125 2 7 -5 17 -16 24 -26 13 -52 64 -80
154 -24 78 -25 90 -10 80 9 -5 10 1 5 22 -3 16 15 -11 42 -61 26 -49 68 -121
92 -160z m2654 220 c-4 -8 -10 -15 -15 -15 -4 0 -6 7 -3 15 4 8 10 15 15 15 4
0 6 -7 3 -15z m-1077 -19 c-3 -8 1 -17 9 -20 8 -3 14 -1 14 4 0 11 58 3 120
-15 63 -20 200 -43 296 -50 52 -5 93 -14 112 -25 29 -18 30 -21 20 -57 -10
-37 -65 -135 -80 -141 -5 -2 -6 -7 -3 -12 3 -4 -3 -14 -12 -21 -12 -10 -14
-10 -9 -1 12 19 1 14 -20 -10 -15 -19 -16 -20 -1 -9 29 23 19 2 -29 -60 -60
-79 -72 -81 -21 -4 12 18 4 13 -20 -14 -25 -29 -44 -42 -52 -37 -7 4 -55 63
-108 129 -144 183 -262 317 -297 338 l-31 19 59 0 c46 0 57 -3 53 -14z m992
-20 c-12 -10 -49 -16 -49 -7 0 5 10 11 23 13 22 4 34 1 26 -6z m-1059 -56 c22
-33 43 -60 46 -60 2 0 -3 11 -12 25 -9 14 -15 28 -12 30 3 3 36 -34 74 -82 38
-49 97 -121 132 -160 63 -74 69 -95 13 -47 -17 14 -29 20 -25 12 3 -7 38 -40
79 -73 41 -33 74 -68 74 -77 1 -30 -128 -113 -211 -136 -21 -6 -38 -7 -38 -2
0 5 -27 -1 -60 -13 -42 -15 -62 -19 -70 -11 -26 26 -72 613 -50 639 7 8 14 15
16 15 2 0 22 -27 44 -60z m-83 -50 c1 -66 -1 -86 -7 -65 -5 18 -8 -72 -8 -225
1 -140 -2 -263 -6 -272 -9 -20 -32 -24 -38 -7 -2 6 -36 17 -75 24 -91 17 -153
36 -148 44 2 4 -6 8 -18 8 -31 3 -148 65 -161 86 -14 21 -23 9 159 212 144
160 174 197 144 180 -8 -5 -11 -4 -6 1 5 5 14 9 20 9 7 1 11 7 9 14 -1 7 2 10
7 7 5 -3 25 14 44 38 25 30 43 43 59 42 22 -1 23 -4 25 -96z m-217 -84 c0 -2
-8 -10 -17 -17 -16 -13 -17 -12 -4 4 13 16 21 21 21 13z m-1944 -109 c1 -9 -2
-17 -7 -17 -5 0 -9 2 -9 4 0 2 -3 12 -7 22 -4 11 -2 15 7 12 7 -2 14 -12 16
-21z m18 -52 c-4 -8 -15 -15 -25 -15 -27 0 -24 18 4 23 12 2 23 5 24 6 1 0 0
-6 -3 -14z m-5 -56 c-12 -24 -29 -25 -29 -1 0 24 8 32 26 25 10 -4 11 -10 3
-24z m47 -21 c4 -7 3 -8 -4 -4 -7 4 -12 2 -12 -4 0 -6 -4 -8 -10 -5 -5 3 -10
10 -10 16 0 13 27 11 36 -3z m1369 -48 c3 -5 1 -10 -4 -10 -6 0 -11 5 -11 10
0 6 2 10 4 10 3 0 8 -4 11 -10z m-1245 -37 c0 -20 -24 -11 -28 10 -2 12 1 15
12 11 9 -3 16 -13 16 -21z m-55 7 c3 -5 -3 -10 -14 -10 -11 0 -23 5 -26 10 -3
6 3 10 14 10 11 0 23 -4 26 -10z m-107 -35 c6 -13 7 -27 3 -30 -5 -3 -14 9
-20 25 -12 36 1 40 17 5z m122 -6 c0 -18 -2 -19 -15 -9 -15 12 -12 30 6 30 5
0 9 -10 9 -21z m85 1 c3 -5 1 -10 -4 -10 -6 0 -11 5 -11 10 0 6 2 10 4 10 3 0
8 -4 11 -10z m-127 -48 c2 -6 -6 -10 -16 -9 -12 1 -18 6 -15 14 6 16 25 13 31
-5z m2687 -2 c-3 -5 -23 -19 -45 -31 -22 -12 -38 -25 -36 -28 2 -3 -22 -19
-53 -34 -68 -34 -51 -16 48 52 71 49 99 62 86 41z m-2540 -10 c3 -5 -1 -10 -9
-10 -9 0 -16 5 -16 10 0 6 4 10 9 10 6 0 13 -4 16 -10z m-90 -20 c3 -5 -1 -10
-10 -10 -9 0 -14 -4 -10 -9 3 -6 28 -7 55 -4 47 5 50 4 67 -25 9 -17 31 -36
48 -44 16 -7 34 -22 40 -34 6 -12 39 -53 74 -93 62 -70 73 -93 33 -72 -27 14
-32 14 -32 -4 0 -8 6 -15 13 -16 10 0 10 -2 0 -6 -7 -2 -13 -12 -14 -21 0 -11
-2 -12 -6 -4 -2 6 -21 12 -41 12 -25 0 -32 3 -24 9 10 6 2 10 -25 15 -58 11
-74 17 -68 26 7 11 -52 60 -73 61 -11 0 -12 2 -4 6 18 7 4 23 -21 24 -12 0
-17 3 -10 6 10 3 10 9 0 24 -6 10 -16 19 -21 19 -15 0 -35 33 -36 58 0 12 -7
25 -15 28 -8 4 -15 15 -15 26 0 10 -4 16 -10 13 -5 -3 -10 -1 -10 4 0 21 20
11 56 -29 21 -22 42 -40 47 -40 6 0 2 9 -9 21 -10 12 -19 24 -19 28 0 3 -6 5
-12 5 -14 -2 -18 18 -6 29 10 11 51 8 58 -3z m2625 -60 c-20 -13 -33 -13 -25
0 3 6 14 10 23 10 15 0 15 -2 2 -10z m-265 -100 c3 -5 1 -10 -4 -10 -6 0 -11
5 -11 10 0 6 2 10 4 10 3 0 8 -4 11 -10z m-2405 -100 c0 -5 -4 -10 -10 -10 -5
0 -10 5 -10 10 0 6 5 10 10 10 6 0 10 -4 10 -10z m420 -75 l23 -25 -27 0 c-15
0 -25 -4 -22 -9 3 -4 -6 -6 -19 -3 -32 6 -32 22 -1 22 14 0 27 4 30 8 3 5 -8
7 -23 4 -19 -3 -30 1 -34 12 -11 27 46 20 73 -9z m-300 -5 c8 -5 11 -10 5 -10
-5 0 -17 5 -25 10 -8 5 -10 10 -5 10 6 0 17 -5 25 -10z m94 -16 c23 -9 20 -23
-4 -17 -11 3 -20 9 -20 14 0 11 3 11 24 3z m213 -50 c-3 -3 -12 -4 -19 -1 -8
3 -5 6 6 6 11 1 17 -2 13 -5z m-77 -14 c0 -5 -4 -10 -9 -10 -6 0 -13 5 -16 10
-3 6 1 10 9 10 9 0 16 -4 16 -10z m410 -70 c0 -5 -2 -10 -4 -10 -3 0 -8 5 -11
10 -3 6 -1 10 4 10 6 0 11 -4 11 -10z"/>
<path d="M2250 2060 c0 -5 7 -10 15 -10 8 0 15 5 15 10 0 6 -7 10 -15 10 -8 0
-15 -4 -15 -10z"/>
<path d="M2467 1933 c-16 -15 -6 -33 18 -33 27 0 32 9 13 28 -14 14 -22 15
-31 5z"/>
<path d="M2200 1835 c0 -8 5 -15 10 -15 6 0 10 7 10 15 0 8 -4 15 -10 15 -5 0
-10 -7 -10 -15z"/>
<path d="M4239 1793 c-13 -16 -12 -17 4 -4 16 13 21 21 13 21 -2 0 -10 -8 -17
-17z"/>
<path d="M2100 1740 c0 -5 4 -10 9 -10 6 0 13 5 16 10 3 6 -1 10 -9 10 -9 0
-16 -4 -16 -10z"/>
<path d="M2091 1641 c-8 -5 -10 -14 -6 -21 6 -9 10 -8 17 4 12 21 7 28 -11 17z"/>
<path d="M2340 1631 c0 -10 9 -21 20 -24 16 -4 20 0 20 19 0 17 -6 24 -20 24
-13 0 -20 -7 -20 -19z"/>
<path d="M2210 1510 c0 -5 5 -10 10 -10 6 0 10 5 10 10 0 6 -4 10 -10 10 -5 0
-10 -4 -10 -10z"/>
<path d="M2470 1431 c0 -5 5 -13 10 -16 6 -3 10 -2 10 4 0 5 -4 13 -10 16 -5
3 -10 2 -10 -4z"/>
<path d="M1031 1633 c0 -11 3 -13 6 -5 7 18 27 15 100 -18 85 -39 91 -38 23 5
-62 40 -131 49 -129 18z"/>
<path d="M950 1625 c-10 -12 -9 -29 5 -85 21 -86 31 -86 14 -1 -11 49 -11 66
-1 81 14 23 0 27 -18 5z"/>
<path d="M1090 1612 c0 -11 45 -44 90 -67 38 -19 80 -54 80 -66 0 -4 -8 -10
-17 -12 -10 -3 -3 -5 15 -6 48 -2 40 20 -25 66 -90 63 -143 94 -143 85z"/>
<path d="M1015 1591 c17 -4 52 -20 78 -35 61 -36 61 -25 0 14 -28 18 -59 30
-77 29 l-31 -1 30 -7z"/>
<path d="M1240 1575 c0 -17 12 -33 46 -56 59 -40 100 -106 116 -183 11 -54 13
-58 18 -31 l6 30 22 -35 c15 -23 22 -51 22 -82 0 -54 -17 -65 -23 -15 -3 28
-4 27 -5 -9 -1 -23 -11 -61 -22 -85 -11 -26 -20 -66 -20 -97 0 -58 -24 -122
-46 -122 -10 0 -11 6 -2 31 12 36 5 116 -12 132 -9 9 -10 5 -3 -18 7 -28 8
-51 1 -135 -4 -48 11 -50 45 -7 24 29 30 47 34 104 5 71 19 123 34 123 5 0 10
-17 10 -37 l2 -38 8 45 c4 25 8 74 8 110 1 60 -4 74 -57 180 -49 97 -65 120
-107 152 -54 41 -75 71 -29 42 l29 -18 -19 22 c-26 30 -56 29 -56 -3z"/>
<path d="M1035 1521 c22 -10 48 -31 57 -47 9 -16 27 -38 40 -49 l23 -20 -21
25 c-12 14 -29 39 -38 57 -18 36 -43 53 -78 53 -18 0 -15 -4 17 -19z"/>
<path d="M1001 1514 c9 -26 178 -174 198 -174 24 0 29 25 7 33 -10 4 -13 1 -9
-9 12 -32 -21 -10 -108 74 -51 48 -90 82 -88 76z"/>
<path d="M1014 1430 c6 -23 74 -176 113 -257 16 -34 53 -46 53 -18 0 8 -6 12
-13 9 -20 -7 -28 7 -92 151 -57 131 -73 161 -61 115z"/>
<path d="M1293 1387 c44 -41 49 -50 68 -131 26 -110 37 -106 13 6 -20 95 -22
99 -83 139 l-46 30 48 -44z"/>
<path d="M1007 1345 c3 -11 17 -37 31 -59 13 -21 32 -57 43 -80 15 -34 17 -36
12 -11 -8 38 -45 113 -72 145 -17 21 -20 22 -14 5z"/>
<path d="M1080 1354 c1 -12 70 -132 70 -121 0 4 -7 24 -15 43 -15 36 -55 93
-55 78z"/>
<path d="M1278 1284 c12 -17 28 -37 37 -44 13 -11 15 -24 10 -60 -7 -49 11
-80 36 -64 9 5 6 10 -10 15 -20 8 -21 13 -16 56 6 47 5 49 -36 88 -38 36 -40
37 -21 9z"/>
<path d="M1170 1295 c0 -3 14 -29 30 -59 17 -30 35 -73 40 -97 l9 -44 -4 54
c-3 37 -14 68 -36 102 -29 45 -39 57 -39 44z"/>
<path d="M1275 1143 c10 -82 27 -160 32 -145 5 14 -27 202 -34 202 -3 0 -2
-26 2 -57z"/>
<path d="M1197 1063 c-14 -14 -6 -25 9 -12 14 11 18 11 29 -4 7 -10 16 -35 20
-55 8 -43 46 -135 52 -128 3 3 -9 50 -26 105 -28 90 -34 101 -55 101 -12 0
-26 -3 -29 -7z"/>
<path d="M1193 995 c21 -20 42 -34 45 -30 7 7 -28 38 -63 56 -11 6 -3 -6 18
-26z"/>
<path d="M1372 839 c-13 -16 -19 -29 -14 -29 10 0 46 49 40 55 -2 1 -13 -11
-26 -26z"/>
<path d="M399 1690 c-49 -26 -152 -140 -183 -203 l-26 -50 36 -46 c19 -25 45
-61 57 -80 l21 -35 13 89 c7 49 11 90 9 92 -1 2 -8 -22 -15 -52 -7 -30 -16
-55 -20 -55 -14 0 -71 78 -71 97 0 11 13 39 29 64 34 52 155 173 145 144 -4
-12 -3 -16 2 -10 65 71 65 78 3 45z"/>
<path d="M367 1595 c-9 -20 -17 -41 -16 -48 0 -7 9 8 20 32 23 53 20 66 -4 16z"/>
<path d="M331 1484 c0 -11 3 -14 6 -6 3 7 2 16 -1 19 -3 4 -6 -2 -5 -13z"/>
<path d="M1000 1103 c0 -16 73 -121 125 -180 53 -60 83 -73 36 -15 -17 20 -57
71 -88 112 -70 93 -73 97 -73 83z"/>
<path d="M2780 906 c0 -2 8 -10 18 -17 15 -13 16 -12 3 4 -13 16 -21 21 -21
13z"/>
<path d="M2840 615 c-14 -8 -20 -14 -15 -14 6 0 21 6 35 14 14 8 21 14 15 14
-5 0 -21 -6 -35 -14z"/>
<path d="M2780 590 c-8 -5 -10 -10 -5 -10 6 0 17 5 25 10 8 5 11 10 5 10 -5 0
-17 -5 -25 -10z"/>
<path d="M549 511 c8 -5 16 -18 17 -27 2 -10 10 -24 18 -30 9 -6 16 -16 16
-23 0 -6 7 -11 15 -11 8 0 15 -9 15 -20 0 -11 6 -20 13 -20 7 0 17 -10 22 -22
8 -17 21 -25 55 -29 25 -4 52 -2 60 3 12 8 12 9 -2 4 -10 -3 -18 -1 -18 5 0 7
-10 9 -25 5 -27 -7 -50 20 -39 48 4 10 1 16 -8 16 -7 0 -33 25 -57 55 -33 42
-50 55 -70 55 -19 0 -22 -3 -12 -9z"/>
<path d="M725 370 c3 -5 16 -10 28 -9 21 0 21 1 2 9 -28 12 -37 12 -30 0z"/>
<path d="M740 279 c0 -5 5 -7 10 -4 6 3 10 8 10 11 0 2 -4 4 -10 4 -5 0 -10
-5 -10 -11z"/>
</g>
</svg>
