<?xml version="1.0" standalone="no"?>
<!DOCTYPE svg PUBLIC "-//W3C//DTD SVG 20010904//EN"
 "http://www.w3.org/TR/2001/REC-SVG-20010904/DTD/svg10.dtd">
<svg version="1.0" xmlns="http://www.w3.org/2000/svg"
 width="451.000000pt" height="349.000000pt" viewBox="0 0 451.000000 349.000000"
 preserveAspectRatio="xMidYMid meet">

<g transform="translate(0.000000,349.000000) scale(0.100000,-0.100000)"
fill="#000000" stroke="none">
<path d="M1140 3443 c-36 -30 -58 -63 -107 -163 -74 -148 -87 -205 -81 -350 6
-127 29 -191 112 -310 61 -87 70 -106 30 -69 -14 13 -23 17 -19 8 8 -22 -20
-56 -36 -43 -8 6 -65 53 -127 104 -62 51 -115 90 -119 87 -3 -3 -63 24 -134
61 -127 66 -131 67 -207 67 -54 0 -97 -7 -143 -23 -37 -13 -109 -31 -160 -40
-105 -20 -113 -27 -125 -114 -6 -41 0 -58 55 -172 54 -113 70 -137 139 -206
98 -100 143 -116 296 -106 56 4 180 10 276 15 129 5 185 12 214 24 49 22 67
10 42 -28 -24 -37 -69 -61 -139 -75 -38 -7 -104 -34 -172 -70 -71 -37 -136
-63 -183 -74 -158 -34 -261 -107 -282 -199 -7 -29 -30 -97 -52 -152 -48 -122
-46 -139 22 -167 49 -20 50 -21 50 -65 0 -46 21 -76 80 -114 25 -16 25 -17 6
-38 -25 -27 -37 -27 -67 5 -22 24 -29 26 -87 21 -112 -9 -202 -85 -202 -171 0
-23 7 -51 15 -63 8 -12 14 -37 13 -55 -3 -32 -2 -33 32 -31 92 6 114 -31 23
-40 -68 -7 -84 -21 -90 -78 -6 -61 15 -119 81 -226 65 -106 88 -120 136 -84
37 27 48 27 52 -1 2 -18 12 -25 43 -31 100 -20 141 -20 188 1 54 24 56 22 87
-61 22 -60 54 -87 102 -87 31 0 136 110 145 152 7 30 8 27 14 -27 6 -56 10
-63 57 -105 61 -55 168 -120 198 -120 11 0 31 11 43 24 18 19 22 34 20 73 -2
37 1 47 12 44 8 -2 32 -7 54 -11 22 -3 55 -14 73 -24 31 -16 37 -16 79 -2 44
15 63 14 63 -4 0 -4 -31 -42 -69 -83 -98 -109 -110 -148 -60 -210 20 -26 23
-27 129 -27 l108 0 33 38 c19 20 41 48 50 62 l16 24 32 -27 c33 -28 43 -28
132 -6 42 10 84 51 76 73 -9 22 22 49 47 41 12 -3 53 -8 91 -11 65 -6 74 -4
125 25 92 53 138 72 193 81 29 4 69 18 89 29 19 12 83 39 140 59 57 21 114 45
126 53 19 14 131 153 152 189 12 21 36 -2 71 -72 36 -72 145 -183 215 -220 64
-35 154 -58 221 -58 125 0 331 117 349 199 22 100 22 99 88 136 34 19 70 35
79 35 9 0 28 11 43 23 28 25 38 63 50 193 7 75 -10 119 -96 245 -58 85 -73
118 -47 103 6 -4 4 2 -6 14 -28 31 -14 41 53 35 l60 -6 87 59 c47 32 101 70
119 82 18 13 80 41 138 62 117 43 167 75 190 125 21 45 20 65 -8 133 -13 31
-29 75 -36 97 -6 22 -29 56 -50 76 -33 32 -40 48 -60 130 -24 103 -45 135
-115 172 -42 23 -41 23 -320 16 -85 -2 -97 1 -210 43 -73 28 -120 51 -120 59
0 8 33 74 73 146 80 144 92 187 72 258 -21 74 -87 123 -243 180 -27 9 -78 41
-115 71 -100 81 -142 99 -232 98 -87 -1 -143 -20 -238 -82 -39 -25 -85 -45
-120 -53 -97 -19 -117 -28 -152 -64 l-34 -35 -8 -138 c-7 -136 -19 -237 -30
-247 -3 -4 -49 16 -102 43 l-96 50 19 23 c34 44 63 111 97 228 19 63 34 121
34 128 0 6 -10 24 -22 38 -20 23 -38 28 -153 46 -224 34 -257 24 -530 -165
-133 -92 -135 -94 -227 -223 -44 -62 -86 -113 -94 -113 -8 0 -19 11 -25 24
-10 20 -4 37 39 117 63 118 102 226 109 304 6 69 -21 164 -81 284 -39 77 -148
226 -172 235 -8 3 -46 6 -82 6 -63 0 -70 -2 -112 -37z m243 -49 c72 -91 172
-306 184 -395 3 -21 -4 -66 -17 -110 -26 -88 -123 -311 -153 -351 l-21 -28
-23 22 c-13 12 -23 27 -23 34 0 7 -13 22 -30 34 -31 22 -55 85 -44 114 3 9 1
22 -5 30 -19 23 -43 117 -36 143 4 16 2 22 -4 18 -6 -3 -8 0 -5 9 3 8 1 24 -5
35 -7 13 -8 22 -1 26 5 3 10 20 10 38 -1 56 15 154 27 168 6 8 14 64 18 124 7
120 -8 129 -19 13 -4 -37 -19 -107 -34 -155 -23 -76 -27 -105 -27 -213 1 -120
2 -128 33 -194 18 -38 35 -85 38 -105 5 -34 3 -40 -30 -65 -28 -21 -36 -34
-34 -53 4 -31 -13 -40 -27 -14 -45 85 -67 121 -94 155 -18 23 -44 78 -62 135
-30 91 -31 102 -25 206 l6 110 65 125 c36 69 78 141 93 159 26 31 34 35 98 40
38 4 77 5 87 3 9 -3 36 -28 60 -58z m1773 -349 c19 -8 32 -10 29 -5 -10 17 18
11 50 -9 17 -11 59 -46 94 -78 l64 -58 -55 -37 c-86 -56 -167 -169 -250 -344
-54 -117 -47 -116 15 1 95 178 161 270 230 321 34 26 68 49 74 51 7 3 55 -11
107 -31 106 -42 156 -85 177 -155 16 -55 3 -97 -75 -236 -33 -60 -63 -119 -66
-130 -5 -17 -16 -21 -85 -25 -98 -7 -159 -34 -214 -97 -22 -24 -48 -65 -57
-89 -9 -24 -21 -44 -26 -44 -5 0 -8 -19 -7 -42 3 -35 0 -42 -13 -40 -9 1 -18
-7 -21 -20 -5 -17 -9 -20 -18 -11 -8 8 -8 16 0 31 8 15 8 21 -1 24 -8 3 -8 10
1 26 10 18 9 22 -3 22 -8 0 -22 -10 -30 -21 -18 -26 -43 -19 -48 13 -4 27 -38
38 -38 13 0 -14 -3 -15 -14 -5 -8 6 -12 18 -9 26 3 8 0 14 -6 14 -11 0 -18
-22 -23 -70 -2 -14 -9 -25 -17 -25 -8 0 -16 -7 -18 -15 -4 -13 -3 -13 6 0 9
13 11 13 11 -2 0 -9 -5 -20 -10 -23 -6 -4 -8 -16 -4 -28 6 -21 5 -21 -21 3
-32 28 -85 99 -85 112 0 4 9 3 20 -4 10 -7 22 -9 26 -5 11 10 -18 39 -33 33
-8 -3 -11 -2 -8 3 3 5 0 21 -6 35 -10 22 -7 30 26 71 29 35 35 49 27 57 -9 9
-12 6 -12 -12 0 -13 -3 -20 -7 -16 -4 3 -22 -8 -40 -26 -18 -17 -35 -29 -39
-26 -11 12 47 109 71 118 19 7 25 17 25 39 0 34 -18 51 -57 54 -27 2 -28 0
-28 -43 0 -53 -10 -71 -31 -63 -9 3 -20 0 -24 -8 -13 -20 -23 -5 -25 41 -1 24
3 44 11 51 18 15 18 63 0 79 -21 16 -60 9 -64 -13 -4 -18 49 -200 70 -244 6
-12 15 -20 19 -17 4 2 10 1 13 -4 2 -4 -4 -8 -14 -9 -23 -2 -60 46 -60 76 0
32 -40 112 -75 151 -24 26 -25 93 -2 192 9 42 17 111 17 153 0 130 31 164 175
195 86 19 105 27 143 61 24 21 60 41 78 45 19 3 34 10 34 14 0 21 80 25 126 5z
m-787 -69 c48 -12 89 -28 94 -37 7 -11 3 -35 -16 -85 -15 -38 -31 -96 -37
-129 -6 -33 -17 -63 -25 -68 -8 -4 -22 -25 -31 -45 -8 -20 -24 -47 -36 -59
-61 -65 -251 -160 -377 -189 -50 -12 -406 -54 -454 -54 -5 0 -6 7 -3 16 4 11
-1 18 -14 21 -26 7 -25 15 6 44 21 20 25 30 21 61 -4 32 1 45 31 84 19 26 46
68 60 93 43 83 87 126 169 169 43 22 104 64 135 92 58 51 127 89 164 90 11 0
24 4 30 9 24 25 158 19 283 -13z m-1844 -167 c22 -6 45 -16 50 -24 6 -7 56
-35 112 -64 123 -61 242 -139 304 -198 42 -41 46 -48 43 -85 -2 -23 -11 -51
-19 -64 -19 -29 -19 -35 -1 -28 9 3 17 -8 24 -38 6 -24 8 -46 4 -49 -23 -20
-121 -39 -204 -39 -51 0 -158 -7 -238 -15 -212 -20 -256 -9 -363 93 -63 60
-77 81 -134 200 -44 92 -62 140 -58 155 15 54 29 77 45 77 10 0 69 16 133 35
192 58 229 64 302 44z m780 -249 c9 -27 3 -160 -7 -160 -4 0 -8 7 -8 15 0 17
-25 20 -35 5 -13 -21 -24 -8 -34 40 -15 68 -14 86 5 104 23 23 71 21 79 -4z
m148 -80 c16 -22 27 -44 25 -48 -2 -4 -30 -32 -63 -63 l-60 -57 -26 29 c-24
26 -25 29 -8 34 28 9 67 62 79 105 6 22 14 40 18 40 4 0 20 -18 35 -40z m987
-17 c61 -31 113 -60 116 -64 2 -4 -5 -13 -16 -19 -24 -13 -26 -42 -4 -61 14
-11 15 -10 12 7 -2 13 2 19 15 18 9 -1 17 2 17 8 0 5 5 6 12 2 8 -5 5 -13 -10
-25 -26 -20 -28 -29 -7 -29 8 0 15 -5 15 -11 0 -6 -9 -9 -19 -6 -14 3 -21 -2
-26 -20 -7 -31 10 -53 41 -53 13 0 34 -5 48 -11 22 -11 26 -25 17 -67 -1 -2
-11 4 -23 12 -26 19 -73 22 -62 5 4 -7 7 -26 8 -42 1 -17 7 -32 15 -35 10 -3
13 2 9 22 -5 26 -5 26 54 26 43 0 59 -3 56 -12 -3 -7 -21 -14 -42 -16 -45 -4
-53 -20 -37 -73 12 -39 13 -40 49 -33 49 9 54 12 47 35 -13 39 16 17 35 -27
18 -41 18 -47 4 -61 -14 -14 -16 -14 -27 0 -8 11 -21 14 -39 10 -32 -6 -35
-15 -13 -33 23 -19 18 -27 -15 -22 -29 4 -30 3 -30 -32 0 -27 -6 -39 -26 -53
-25 -16 -25 -17 -8 -30 10 -7 14 -13 9 -13 -5 0 1 -9 13 -20 12 -12 22 -26 22
-33 0 -7 5 -19 10 -27 8 -13 11 -12 25 5 12 15 15 16 12 4 -3 -9 -1 -21 5 -27
8 -8 7 -13 -4 -17 -24 -9 -10 -42 20 -50 l27 -7 -40 -34 c-22 -19 -66 -52 -97
-73 -31 -21 -55 -41 -52 -43 4 -4 -72 -42 -86 -43 -3 -1 -21 -6 -40 -12 -106
-34 -268 -42 -316 -15 -24 14 -180 52 -211 52 -13 0 -23 2 -23 5 0 3 10 40 22
82 18 63 22 105 22 223 1 80 -2 159 -6 177 -7 31 -6 33 35 45 26 8 104 13 202
14 179 2 191 3 155 14 -37 12 -207 12 -314 0 l-94 -11 -49 48 c-26 26 -73 61
-103 77 -30 16 -56 30 -58 32 -2 1 6 20 17 42 31 62 90 105 186 138 47 16 85
32 85 36 0 3 30 16 68 29 88 29 166 68 222 112 25 20 48 36 53 36 4 1 57 -24
117 -56z m-1300 -10 c24 -30 45 -62 46 -70 4 -25 -8 -45 -22 -39 -10 4 -12 -2
-7 -24 5 -27 3 -30 -20 -30 -18 0 -36 13 -61 44 -20 23 -36 48 -36 54 0 17 42
122 49 122 3 -1 26 -26 51 -57z m220 29 c-1 -18 -23 -52 -33 -52 -4 0 -5 6 -3
13 3 6 7 25 10 40 7 29 26 28 26 -1z m1328 -85 c2 -10 -3 -17 -11 -17 -16 0
-30 24 -19 34 10 10 27 1 30 -17z m-1433 -37 c-3 -5 -10 -10 -16 -10 -5 0 -9
5 -9 10 0 6 7 10 16 10 8 0 12 -4 9 -10z m1575 -20 c0 -11 -7 -20 -15 -20 -8
0 -19 9 -25 20 -9 18 -8 20 15 20 18 0 25 -5 25 -20z m-1500 -47 c0 -19 -13
-16 -38 8 -21 19 -22 46 -1 34 5 -4 9 0 9 7 1 16 29 -32 30 -49z m66 18 c-10
-11 -15 -24 -11 -30 3 -7 0 -8 -9 -5 -14 5 -13 9 1 30 8 13 20 24 26 24 5 0 2
-9 -7 -19z m444 10 c0 -5 -10 -13 -22 -16 -42 -13 -86 -54 -118 -110 -30 -53
-33 -55 -54 -42 -18 12 -101 63 -184 114 -13 8 -21 17 -18 20 3 3 92 14 198
23 106 10 194 18 196 19 1 0 2 -3 2 -8z m-636 -16 c3 -8 1 -15 -4 -15 -6 0
-10 7 -10 15 0 8 2 15 4 15 2 0 6 -7 10 -15z m2338 -16 c86 -18 80 -29 -17
-31 l-90 -1 120 -7 c96 -5 130 -11 170 -30 28 -13 55 -24 60 -25 6 -1 28 -5
50 -8 24 -5 74 -1 125 8 47 8 103 15 125 14 38 0 129 -30 123 -39 -2 -3 -1 -4
0 -3 2 1 16 -3 32 -8 32 -12 52 -53 70 -144 6 -33 14 -69 17 -79 4 -15 2 -18
-13 -11 -75 30 -146 50 -268 74 -183 37 -216 42 -216 31 0 -4 -12 -13 -27 -18
-22 -8 -8 -11 69 -11 77 -1 127 -9 251 -40 85 -21 182 -51 215 -66 l62 -28 30
-79 c37 -95 44 -129 36 -163 -9 -34 -34 -32 -87 9 -118 89 -278 186 -349 209
-108 36 -160 42 -64 8 117 -41 203 -87 291 -153 43 -33 97 -71 120 -86 24 -15
43 -31 43 -37 -1 -19 -49 -45 -142 -78 -72 -25 -117 -50 -198 -109 -115 -83
-162 -102 -230 -90 -41 7 -48 13 -87 71 -51 79 -136 166 -185 192 -35 18 -133
39 -185 41 -16 0 -22 8 -25 34 -2 18 -2 31 1 29 2 -3 11 1 19 8 13 10 14 9 9
-8 -4 -11 -2 -27 3 -35 8 -13 12 -12 31 6 l21 21 -23 22 c-19 17 -20 21 -6 21
9 0 17 4 17 9 0 5 12 13 27 18 l28 10 -28 25 c-23 21 -25 27 -13 37 10 8 12
21 6 47 -10 44 -16 50 -34 35 -12 -10 -18 -8 -31 12 -41 63 -175 27 -175 -48
0 -27 -1 -28 -24 -19 -18 7 -22 103 -7 164 45 174 60 205 129 252 43 30 113
56 154 57 9 1 41 -4 70 -10z m-2458 -18 c4 -5 3 -17 0 -26 -5 -13 -8 -14 -15
-3 -5 7 -9 19 -9 26 0 14 16 16 24 3z m91 -49 c-11 -11 -27 17 -20 35 6 16 8
16 16 -6 5 -13 7 -26 4 -29z m55 6 c0 -17 -3 -18 -14 -8 -8 6 -12 18 -9 26 7
19 23 7 23 -18z m57 16 c9 -23 -11 -38 -26 -20 -13 16 -7 36 10 36 5 0 12 -7
16 -16z m1311 -15 c-7 -4 -16 -3 -20 4 -11 18 2 29 18 16 12 -10 12 -14 2 -20z
m-1448 -22 c0 -4 9 -5 20 -2 18 6 20 2 20 -32 0 -59 -10 -68 -56 -53 -66 21
-73 43 -31 104 19 27 21 28 34 10 7 -10 13 -22 13 -27z m219 17 l23 -16 -38
-39 c-30 -31 -41 -36 -56 -28 -24 13 -23 24 10 65 31 39 30 39 61 18z m134
-14 c148 -71 354 -216 381 -269 8 -14 16 -79 20 -146 8 -132 -10 -270 -42
-328 -16 -30 -18 -37 -21 -63 -2 -23 -60 -37 -124 -30 -68 7 -68 7 -229 138
-84 69 -99 86 -126 145 -27 59 -32 85 -41 197 -5 71 -7 135 -5 141 3 7 -2 18
-11 25 -8 7 -15 17 -15 22 0 5 27 40 60 77 33 37 60 77 60 88 0 41 12 42 93 3z
m1222 20 c3 -5 1 -10 -4 -10 -6 0 -11 5 -11 10 0 6 2 10 4 10 3 0 8 -4 11 -10z
m-1437 -116 l24 -23 -24 -5 c-12 -2 -32 -4 -43 -3 -11 0 -30 -3 -42 -7 -22 -7
-22 -7 -8 35 9 23 21 49 27 57 11 12 15 11 28 -8 8 -12 26 -33 38 -46z m1405
32 c4 -10 1 -13 -9 -9 -15 6 -19 23 -5 23 5 0 11 -7 14 -14z m-1616 -18 c13
-13 35 -35 50 -50 20 -21 37 -28 65 -28 36 0 47 -8 31 -24 -13 -13 -41 -117
-36 -135 3 -11 -3 -27 -15 -39 -23 -23 -40 -69 -52 -139 -15 -92 -42 -139 -97
-168 -26 -14 -73 -42 -103 -61 -30 -19 -86 -44 -124 -56 -61 -18 -85 -20 -205
-15 -75 3 -165 11 -201 17 -79 15 -170 49 -176 65 -3 7 5 39 16 71 12 33 30
90 41 127 35 128 75 173 196 222 32 13 68 22 79 19 21 -5 143 50 227 103 21
13 71 33 110 43 40 10 84 23 98 28 15 6 29 8 32 5 3 -3 12 4 19 16 16 26 16
26 45 -1z m1719 -85 c38 -92 93 -175 219 -325 59 -70 104 -132 100 -138 -12
-19 -94 50 -153 128 -79 104 -188 276 -185 292 1 3 -4 11 -10 19 -10 12 -9 13
7 8 14 -6 16 -4 9 5 -15 20 -33 78 -24 78 5 0 21 -30 37 -67z m-91 7 c-38 -39
-63 -42 -49 -6 6 17 75 58 83 50 3 -2 -13 -22 -34 -44z m-60 20 c3 -5 1 -10
-4 -10 -6 0 -11 5 -11 10 0 6 2 10 4 10 3 0 8 -4 11 -10z m-1350 -217 c23
-154 29 -177 60 -228 45 -76 61 -92 113 -118 25 -12 51 -32 60 -45 13 -21 13
-22 -8 -22 -13 0 -38 -11 -56 -25 -43 -33 -56 -32 -79 8 -10 17 -34 47 -54 65
l-35 32 42 0 c46 0 47 2 31 49 -21 59 -89 64 -89 7 0 -47 -11 -55 -70 -57 -30
-1 -63 -6 -72 -11 -51 -26 -62 -136 -23 -230 6 -16 1 -18 -47 -18 -47 0 -58 4
-83 30 l-28 29 29 11 c70 27 89 74 59 146 -14 35 -14 35 25 70 32 29 45 52 64
113 14 42 38 114 55 161 17 47 31 95 31 107 0 12 8 29 18 39 9 10 16 19 15 21
-2 2 -3 15 -3 30 0 18 3 24 10 17 5 -5 21 -87 35 -181z m1650 119 c6 -4 16
-18 23 -31 15 -25 5 -23 -30 7 -27 23 -20 44 7 24z m212 -99 c-1 -54 -3 -89
-5 -78 -2 11 -8 30 -14 42 -12 24 -2 133 12 133 4 0 8 -44 7 -97z m-377 -9 c0
-8 -5 -12 -10 -9 -6 4 -8 11 -5 16 9 14 15 11 15 -7z m280 4 c0 -14 -34 -41
-38 -29 -2 6 -10 11 -18 11 -14 0 -19 12 -9 22 8 7 65 4 65 -4z m268 -8 c-15
-23 -28 -26 -28 -7 0 17 10 27 27 27 11 0 11 -4 1 -20z m-508 -34 c0 -2 -7 -6
-15 -10 -8 -3 -15 -1 -15 4 0 6 7 10 15 10 8 0 15 -2 15 -4z m188 -38 c-6 -17
-21 -13 -36 10 -15 23 -15 23 12 11 14 -7 25 -17 24 -21z m238 7 c3 -8 21 -19
40 -25 19 -6 34 -15 34 -20 0 -14 -28 -20 -34 -7 -3 8 -9 7 -19 -5 -22 -27
-34 -21 -35 17 -1 20 -4 40 -7 45 -4 6 -1 10 5 10 6 0 13 -7 16 -15z m39 -13
c-3 -3 -11 0 -18 7 -9 10 -8 11 6 5 10 -3 15 -9 12 -12z m-175 -22 c0 -5 -4
-10 -10 -10 -5 0 -10 5 -10 10 0 6 5 10 10 10 6 0 10 -4 10 -10z m300 0 c0 -5
-5 -10 -11 -10 -5 0 -7 5 -4 10 3 6 8 10 11 10 2 0 4 -4 4 -10z m-356 -26 c9
-8 16 -20 16 -25 0 -17 -18 -9 -34 16 -18 28 -6 34 18 9z m316 -30 c0 -19 -25
-18 -44 2 -21 21 -21 21 14 16 17 -2 30 -10 30 -18z m-225 6 c3 -5 -1 -10 -9
-10 -9 0 -16 5 -16 10 0 6 4 10 9 10 6 0 13 -4 16 -10z m55 -25 c7 -14 10 -28
6 -32 -10 -10 -50 33 -42 46 11 17 21 13 36 -14z m-244 -22 c-4 -4 -11 -1 -16
7 -16 25 -11 35 7 17 9 -9 13 -20 9 -24z m466 -25 c-7 -7 -12 -8 -12 -2 0 14
12 26 19 19 2 -3 -1 -11 -7 -17z m-132 -8 c0 -5 -5 -10 -11 -10 -5 0 -7 5 -4
10 3 6 8 10 11 10 2 0 4 -4 4 -10z m-60 -35 c0 -8 6 -13 13 -11 39 13 71 16
62 8 -5 -5 -29 -12 -52 -16 -39 -6 -43 -4 -43 14 0 11 5 20 10 20 6 0 10 -7
10 -15z m-333 -11 c-29 -16 -57 -13 -57 6 0 5 19 10 43 10 l42 -1 -28 -15z
m-67 -9 c0 -8 -6 -15 -14 -15 -8 0 -21 -3 -30 -6 -25 -9 -19 12 7 24 31 15 37
14 37 -3z m716 -45 c132 -69 195 -137 244 -265 30 -80 43 -105 111 -207 66
-100 75 -130 60 -196 -5 -26 -12 -63 -16 -83 -3 -21 -14 -48 -25 -62 -24 -30
-109 -62 -124 -47 -5 5 -18 10 -27 10 -25 0 -189 131 -320 255 -80 77 -70 65
35 -40 86 -85 180 -169 219 -194 37 -24 67 -45 67 -47 0 -9 -53 -84 -59 -84
-4 0 -42 36 -86 80 -44 44 -84 80 -90 80 -5 0 30 -39 78 -88 73 -74 87 -92 87
-120 0 -17 -4 -32 -9 -32 -5 0 -11 -10 -13 -22 -5 -33 -85 -85 -195 -124 -120
-43 -158 -41 -276 14 -95 45 -203 143 -249 227 -15 28 -37 62 -48 76 l-21 25
22 60 c30 81 48 104 129 164 95 71 125 122 124 213 0 60 -5 77 -47 159 -48 94
-52 115 -18 84 23 -21 108 -36 97 -18 -10 17 15 14 38 -3 24 -18 45 -20 28 -3
-7 7 -12 15 -12 19 0 13 32 19 51 9 28 -16 25 14 -3 35 -15 11 -19 19 -11 22
7 2 10 10 7 18 -3 7 -1 16 5 20 18 11 12 21 -24 41 -70 38 -44 47 141 52 62 2
79 -2 130 -28z m-802 -5 c-9 -14 -20 -25 -23 -25 -4 0 -8 -7 -8 -15 0 -8 4
-15 8 -15 7 0 22 -43 24 -67 1 -18 36 -53 54 -53 9 0 24 17 33 40 10 21 27 44
39 50 24 13 36 6 23 -12 -6 -7 -9 -27 -8 -44 2 -24 -3 -35 -19 -43 -17 -9 -8
-10 43 -4 36 4 76 7 90 7 14 1 28 6 33 11 9 13 19 -3 59 -95 44 -101 45 -172
3 -248 -28 -52 -45 -69 -118 -122 -46 -33 -74 -76 -104 -157 -35 -98 -64 -142
-130 -199 -87 -75 -124 -100 -168 -114 -22 -7 -75 -30 -118 -51 -69 -33 -170
-59 -183 -46 -7 6 51 185 90 277 36 84 65 129 168 265 l69 90 -56 -60 c-126
-135 -203 -271 -254 -448 -17 -59 -33 -112 -36 -118 -4 -5 -43 -27 -88 -49
-56 -28 -94 -40 -124 -40 -55 0 -163 36 -185 62 -22 25 -23 88 -3 127 8 16 74
84 147 152 187 173 244 232 230 237 -7 2 -9 9 -5 15 8 16 10 18 -98 -99 -138
-148 -273 -266 -287 -252 -7 7 -12 16 -12 21 0 5 -16 31 -35 57 -57 77 -65
105 -58 206 4 63 1 112 -11 168 -22 106 -20 153 7 206 23 46 31 53 214 170
l83 52 80 -16 c91 -18 203 -21 279 -6 84 16 148 49 253 132 105 82 129 95 102
53z m472 -23 c-11 -2 -22 1 -24 7 -2 6 -10 11 -18 11 -17 0 -19 17 -1 23 6 2
24 -5 38 -17 24 -20 25 -21 5 -24z m-2188 -27 c19 -42 15 -83 -10 -99 -20 -12
-176 -36 -237 -36 -20 0 -21 1 -7 29 11 20 26 31 48 35 18 3 62 26 98 50 76
52 93 55 108 21z m209 19 c20 -6 22 -12 22 -73 0 -36 7 -86 16 -111 30 -83 26
-168 -5 -110 -6 11 -23 23 -38 26 -64 16 -79 31 -105 107 -22 65 -23 77 -12
105 20 46 70 70 122 56z m112 -56 c17 -23 31 -50 31 -60 0 -10 4 -18 9 -18 5
0 4 -21 -1 -47 -15 -77 -17 -79 -35 -53 -16 22 -17 22 -24 4 -6 -17 -8 -16
-19 11 -15 36 -33 173 -26 192 10 24 34 13 65 -29z m1751 8 c0 -3 -4 -8 -10
-11 -5 -3 -10 -1 -10 4 0 6 5 11 10 11 6 0 10 -2 10 -4z m-2680 -41 c36 -4 70
-8 76 -10 13 -4 -78 -105 -94 -105 -46 0 -92 53 -92 106 0 22 3 25 23 21 12
-3 51 -9 87 -12z m1125 -1 c9 -10 14 -26 12 -36 -7 -24 -109 -188 -118 -188
-3 0 -4 12 -1 26 3 17 1 25 -5 21 -5 -3 -15 10 -21 30 -10 32 -8 41 14 80 27
45 68 83 90 83 7 0 20 -7 29 -16z m1720 -14 c3 -5 -1 -10 -10 -10 -9 0 -13 5
-10 10 3 6 8 10 10 10 2 0 7 -4 10 -10z m-2641 -29 c8 -14 35 -45 61 -68 43
-38 47 -46 42 -76 -3 -18 -19 -63 -35 -100 -28 -61 -33 -67 -61 -67 -38 0
-141 49 -141 68 0 7 12 29 26 48 22 28 33 34 65 34 32 0 39 3 39 20 0 19 -27
40 -52 40 -8 0 -34 -29 -57 -65 -40 -60 -61 -79 -61 -55 0 6 -9 10 -19 10 -21
0 -31 19 -31 59 0 51 129 174 185 177 18 2 29 -6 39 -25z m47 19 c10 -6 19
-20 19 -30 0 -26 -7 -25 -31 3 -29 35 -25 46 12 27z m1316 -4 c15 -15 -15 -39
-104 -81 -54 -26 -105 -51 -113 -55 -10 -5 -22 6 -42 36 -16 26 -44 52 -68 64
-23 12 -40 23 -38 25 1 1 26 -1 53 -5 89 -15 141 -12 166 10 20 17 34 20 82
16 32 -2 61 -7 64 -10z m-343 -39 c44 -28 98 -102 94 -132 -3 -19 -9 -20 -123
-17 -99 2 -116 1 -100 -10 11 -7 55 -12 102 -13 45 0 83 -2 85 -5 2 -3 2 -53
0 -112 -3 -86 -7 -108 -18 -108 -22 0 -28 -28 -14 -56 18 -32 9 -38 -33 -25
-50 17 -66 39 -98 136 -17 52 -40 100 -59 121 -31 36 -32 54 -2 54 13 0 14 2
4 9 -11 6 -1 28 44 95 31 47 62 86 68 86 6 0 28 -11 50 -23z m-684 -49 c11
-13 34 -51 52 -84 29 -55 31 -65 20 -89 -12 -25 -16 -27 -54 -21 -37 6 -44 4
-63 -20 -17 -22 -26 -25 -51 -20 -16 4 -44 15 -62 26 -29 18 -32 24 -32 69 0
33 -8 63 -26 94 l-25 46 28 15 c20 11 51 14 111 11 72 -3 85 -7 102 -27z
m-662 -88 c32 -47 45 -107 38 -169 -8 -65 -11 -69 -38 -52 -20 12 -20 11 -14
-22 13 -71 -14 -86 -67 -36 -17 17 -44 37 -59 45 -15 8 -32 24 -38 35 -7 11
-17 18 -24 16 -26 -10 -37 11 -39 74 l-2 64 54 29 c53 28 137 56 156 52 6 -1
20 -17 33 -36z m802 32 c0 -15 -48 -33 -56 -21 -4 6 0 15 7 20 18 11 49 12 49
1z m128 -26 c22 -3 56 -26 39 -26 -4 0 -3 -9 3 -20 9 -16 6 -22 -19 -34 -16
-9 -44 -34 -62 -57 -46 -59 -168 -105 -209 -79 -13 8 -12 13 5 42 10 18 31 46
47 61 15 16 28 36 28 46 0 34 85 85 125 75 11 -3 30 -6 43 -8z m-841 -50 l21
-33 -20 -32 c-12 -18 -24 -29 -28 -24 -4 4 -11 34 -15 66 -8 68 7 76 42 23z
m361 -22 c-1 -61 22 -83 109 -104 53 -13 69 -21 71 -36 2 -17 -4 -19 -45 -20
-56 0 -104 -7 -120 -17 -7 -4 -14 2 -19 15 -4 12 -20 35 -37 50 l-29 28 27 65
c16 36 32 65 36 65 5 0 8 -21 7 -46z m636 -7 c-3 -9 -10 -17 -15 -17 -11 0
-12 34 -2 44 11 11 24 -9 17 -27z m109 -60 c8 -18 27 -69 41 -113 30 -90 44
-108 96 -121 20 -5 35 -16 35 -24 0 -15 -15 -16 -124 -2 l-64 8 2 77 c1 42 -2
93 -7 115 -21 81 -22 102 -7 97 7 -3 20 -20 28 -37z m-1062 -49 c-1 -40 -5
-76 -7 -80 -8 -12 -64 34 -64 51 0 21 60 115 67 107 4 -3 5 -38 4 -78z m814
40 c-4 -18 -15 -49 -25 -70 -10 -20 -22 -52 -26 -72 -3 -20 -10 -38 -14 -41
-4 -2 -20 10 -36 26 -16 17 -40 35 -54 41 -25 10 -24 10 21 33 44 23 109 85
109 105 0 6 7 10 16 10 12 0 14 -7 9 -32z m142 15 l62 -5 8 -82 c11 -107 7
-134 -23 -173 -18 -23 -33 -33 -53 -33 -30 0 -131 47 -131 61 0 4 14 18 30 31
35 26 38 44 9 53 -26 8 -36 -2 -41 -38 -4 -33 -17 -39 -32 -15 -8 14 -3 40 24
119 34 96 36 100 60 94 14 -3 53 -9 87 -12z m-886 -19 c17 -8 37 -13 45 -10 8
3 12 2 9 -4 -7 -12 57 -24 92 -17 15 3 33 3 40 0 30 -12 9 -33 -59 -60 -55
-21 -89 -43 -140 -92 -38 -35 -68 -60 -68 -57 0 4 9 23 19 44 18 35 19 54 5
114 -8 34 3 98 17 98 5 0 24 -7 40 -16z m229 -103 c0 -12 -12 -23 -32 -31 -45
-18 -80 -51 -69 -64 5 -6 12 -26 16 -44 4 -22 24 -47 61 -79 91 -79 65 -91
-66 -31 -124 56 -166 104 -135 152 22 34 84 66 126 66 26 0 29 3 20 14 -9 11
-4 17 26 29 42 17 53 14 53 -12z m176 -13 c21 -68 -12 -175 -53 -171 -15 2
-30 -7 -45 -27 -12 -17 -27 -30 -33 -30 -14 0 -79 67 -94 97 -6 12 -11 35 -11
51 0 28 5 32 68 56 37 14 78 30 92 35 43 17 68 13 76 -11z m88 12 l26 -10 -27
-39 c-16 -22 -31 -40 -35 -41 -14 0 -19 43 -8 71 14 33 11 32 44 19z m104 -32
c9 -12 39 -44 65 -70 l48 -48 -43 -50 c-44 -51 -79 -72 -86 -51 -4 12 -32 15
-32 4 0 -5 -4 -15 -10 -23 -7 -12 -12 -12 -29 4 -12 11 -21 25 -21 32 0 22
-20 27 -40 9 -18 -17 -19 -16 -14 21 l4 39 -14 -30 -15 -30 -1 32 c0 17 5 44
12 60 l12 28 4 -29 c3 -28 5 -27 37 30 29 51 71 91 98 93 4 1 15 -9 25 -21z
m-718 -38 c0 -24 -10 -31 -31 -19 -21 11 -26 55 -6 62 15 6 37 -20 37 -43z
m-141 -31 c37 -23 48 -35 41 -44 -15 -18 12 -49 39 -42 28 7 26 0 -9 -47 -17
-22 -34 -62 -40 -95 -17 -79 -33 -101 -75 -101 -32 0 -39 6 -69 53 -67 105
-98 178 -98 231 0 64 16 76 98 76 53 0 71 -5 113 -31z m284 -91 l45 -52 -32
-21 c-48 -32 -48 -87 -1 -144 l26 -30 -23 -13 c-28 -16 -214 -16 -230 0 -14
14 7 173 28 214 14 27 44 39 44 18 0 -5 -5 -10 -11 -10 -5 0 -7 -5 -3 -11 4
-8 13 -4 25 12 15 19 21 21 27 11 6 -9 13 1 22 32 7 25 18 46 25 46 7 0 33
-23 58 -52z m1185 -10 l-3 -23 -13 23 c-11 19 -11 26 0 39 12 15 13 15 16 0 2
-9 2 -27 0 -39z m-478 3 c-26 -48 -173 -161 -209 -161 -21 0 2 31 38 49 20 11
65 49 100 86 45 46 66 62 72 54 4 -7 4 -20 -1 -28z m332 28 c29 -6 57 -14 61
-18 4 -5 -10 -45 -33 -91 -22 -46 -40 -90 -40 -97 0 -24 -16 -14 -67 40 -30
32 -54 67 -58 87 -7 30 -4 37 24 62 35 32 40 32 113 17z m-227 -24 l69 0 3
-52 c3 -46 1 -53 -15 -53 -10 0 -29 11 -42 25 -29 31 -67 32 -120 5 -45 -23
-52 -15 -16 19 13 13 27 35 31 49 3 14 9 22 13 16 4 -5 38 -9 77 -9z m347 -60
c3 -39 -60 -147 -81 -139 -8 2 -18 -1 -23 -8 -12 -21 -9 22 6 62 17 50 76 134
87 123 4 -4 9 -22 11 -38z m-1027 -35 c32 -11 66 -20 77 -20 10 0 18 -4 18
-10 0 -5 -13 -10 -30 -10 -39 0 -39 -19 1 -27 20 -4 28 -10 25 -19 -3 -8 -1
-14 5 -14 5 0 14 -11 21 -25 6 -13 15 -22 20 -19 4 3 15 -1 23 -9 12 -13 10
-20 -14 -58 -31 -50 -85 -99 -107 -99 -8 0 -26 11 -40 25 l-25 26 33 30 c18
17 42 35 53 40 16 8 14 8 -9 4 -19 -4 -34 0 -47 11 -10 9 -31 17 -45 18 -20 1
-35 13 -61 50 -39 56 -42 89 -11 110 29 21 43 20 113 -4z m681 9 c12 -19 22
-79 14 -79 -5 0 -11 -24 -15 -52 -14 -104 -51 -158 -109 -158 -26 0 -36 16
-36 60 0 47 -88 122 -116 99 -13 -11 -74 0 -74 12 0 13 72 44 156 68 40 12 82
30 95 41 26 21 74 26 85 9z m-421 -20 c0 -8 -12 -15 -27 -17 -31 -4 -37 12
-10 27 21 13 37 9 37 -10z m-92 -19 c3 -13 0 -20 -9 -20 -8 0 -14 9 -14 20 0
11 4 20 9 20 5 0 11 -9 14 -20z m352 10 c-3 -5 -11 -10 -16 -10 -6 0 -7 5 -4
10 3 6 11 10 16 10 6 0 7 -4 4 -10z m545 -9 c0 -5 3 -16 6 -25 3 -9 1 -16 -6
-16 -6 0 -8 6 -4 13 4 6 -9 -4 -29 -22 -44 -41 -47 -35 -11 19 25 38 44 51 44
31z m-780 -21 c0 -5 -4 -10 -10 -10 -5 0 -10 5 -10 10 0 6 5 10 10 10 6 0 10
-4 10 -10z m522 -17 c23 -24 26 -35 23 -83 -4 -68 -13 -110 -27 -127 -25 -31
-158 -41 -158 -12 0 5 9 27 20 49 11 22 20 52 20 68 0 16 6 45 14 63 7 19 16
42 19 52 10 27 59 22 89 -10z m-572 -3 c0 -5 -2 -10 -4 -10 -3 0 -8 5 -11 10
-3 6 -1 10 4 10 6 0 11 -4 11 -10z m874 -39 c14 -26 14 -30 -2 -43 -46 -40
-82 -31 -82 20 0 19 3 32 6 29 4 -3 16 0 28 8 28 21 33 19 50 -14z m-212 -75
c-3 -5 -9 -1 -13 10 -12 31 -10 39 5 19 8 -11 12 -24 8 -29z m-449 23 c53 -14
64 -39 62 -133 -2 -69 -5 -82 -25 -98 -31 -25 -38 -23 -108 21 -126 82 -172
145 -143 198 9 17 22 20 93 21 46 1 100 -3 121 -9z m507 -40 c10 -18 9 -20 -7
-17 -10 2 -19 11 -21 21 -5 24 15 21 28 -4z m186 0 c4 -6 10 -47 15 -91 9 -88
26 -124 64 -134 20 -5 24 -11 19 -28 -11 -39 -35 -67 -69 -83 -29 -14 -40 -14
-79 -3 -25 7 -51 20 -59 29 -9 9 -17 51 -22 100 -3 46 -11 95 -16 108 -8 21
-5 25 31 39 30 12 40 22 40 38 0 13 3 26 7 29 11 11 61 8 69 -4z m-221 -49 c3
-5 -1 -10 -9 -10 -8 0 -18 5 -21 10 -3 6 1 10 9 10 8 0 18 -4 21 -10z m38 -94
c17 -26 17 -30 3 -38 -9 -5 -16 -14 -16 -20 0 -9 3 -9 11 -1 9 9 15 8 26 -3
27 -27 -3 -153 -48 -200 -18 -19 -29 -21 -115 -18 -105 3 -139 16 -150 59 -8
33 28 86 114 166 59 55 66 59 81 45 16 -14 19 -13 34 14 21 36 36 35 60 -4z"/>
<path d="M2590 2396 c0 -2 7 -9 15 -16 9 -7 15 -8 15 -2 0 5 -7 12 -15 16 -8
3 -15 4 -15 2z"/>
<path d="M2832 2133 c4 -32 38 -46 38 -16 0 20 -18 43 -33 43 -4 0 -7 -12 -5
-27z"/>
<path d="M3125 2040 c3 -5 8 -10 11 -10 2 0 4 5 4 10 0 6 -5 10 -11 10 -5 0
-7 -4 -4 -10z"/>
<path d="M2260 2859 c-19 -12 -69 -54 -110 -93 -93 -89 -219 -163 -360 -212
-83 -29 -105 -40 -96 -50 9 -9 16 -9 36 1 14 7 64 26 111 43 161 57 218 92
321 198 51 53 109 104 128 115 19 10 28 18 20 19 -8 0 -31 -10 -50 -21z"/>
<path d="M195 2615 c17 -13 45 -31 63 -40 17 -9 32 -19 32 -24 0 -4 35 -22 78
-41 42 -18 84 -39 92 -46 17 -14 69 -29 87 -26 7 2 38 -5 70 -14 32 -9 72 -16
90 -16 18 1 35 -3 38 -8 7 -12 95 -13 95 -2 0 8 83 -1 127 -14 18 -5 21 -3 16
16 -3 12 -16 26 -29 30 -26 10 -205 30 -215 24 -7 -4 -189 32 -239 47 -36 12
-178 73 -265 115 -64 31 -78 31 -40 -1z"/>
<path d="M3388 2243 c7 -3 16 -2 19 1 4 3 -2 6 -13 5 -11 0 -14 -3 -6 -6z"/>
<path d="M1400 2133 c0 -19 35 -56 118 -124 104 -86 125 -109 159 -174 14 -27
30 -52 34 -56 5 -3 13 -26 18 -52 4 -26 13 -52 19 -59 5 -7 13 -31 16 -53 3
-22 10 -60 16 -85 5 -25 9 -54 7 -64 -1 -10 4 -21 11 -23 29 -11 0 178 -58
365 -33 107 -107 189 -250 275 -25 15 -55 34 -67 43 -13 9 -23 12 -23 7z"/>
<path d="M1060 2030 c-6 -11 -7 -20 -2 -20 6 0 12 9 15 20 3 11 3 20 1 20 -2
0 -8 -9 -14 -20z"/>
<path d="M920 1911 c-105 -99 -162 -130 -314 -172 l-120 -32 -78 -75 c-72 -69
-94 -102 -67 -102 14 0 58 32 125 90 56 49 137 83 221 93 67 8 143 51 218 124
38 37 70 72 70 76 0 5 7 14 16 20 16 12 19 18 19 37 0 5 6 7 14 4 8 -3 17 -1
21 5 4 7 -3 11 -17 11 -15 0 -53 -28 -108 -79z"/>
<path d="M2946 1311 c-4 -5 3 -7 14 -4 23 6 26 13 6 13 -8 0 -17 -4 -20 -9z"/>
</g>
</svg>
