<?xml version="1.0" standalone="no"?>
<!DOCTYPE svg PUBLIC "-//W3C//DTD SVG 20010904//EN"
 "http://www.w3.org/TR/2001/REC-SVG-20010904/DTD/svg10.dtd">
<svg version="1.0" xmlns="http://www.w3.org/2000/svg"
 width="477.000000pt" height="256.000000pt" viewBox="0 0 477.000000 256.000000"
 preserveAspectRatio="xMidYMid meet">

<g transform="translate(0.000000,256.000000) scale(0.100000,-0.100000)" stroke="none">
<path d="M1875 2555 c-5 -2 -27 -6 -47 -9 l-36 -7 68 -62 c88 -80 89 -91 8
-82 -50 5 -77 16 -127 48 l-64 41 39 17 c21 10 45 18 53 18 8 1 12 4 8 7 -9 9
-71 -13 -163 -57 -76 -37 -199 -69 -265 -69 -48 0 -33 -17 20 -23 49 -6 151
-44 151 -56 0 -3 -53 -21 -118 -39 -201 -56 -504 -219 -623 -336 -31 -31 -83
-95 -115 -143 l-59 -88 1 -115 c0 -91 5 -126 21 -167 22 -56 15 -67 -22 -38
-11 9 -54 35 -95 59 -41 25 -123 83 -181 130 -59 47 -112 86 -119 86 -56 0
-166 -122 -191 -213 -37 -132 17 -337 128 -483 85 -112 293 -275 447 -349 80
-38 150 -55 232 -55 l53 0 -12 -32 c-6 -18 -12 -76 -12 -129 l0 -96 70 -102
c121 -178 169 -207 325 -199 157 9 231 63 312 228 40 83 58 106 58 78 0 -26
52 -122 89 -167 105 -126 263 -172 368 -109 69 41 188 207 208 290 4 16 11 28
15 28 5 0 57 -22 117 -49 229 -103 405 -141 688 -148 l190 -5 205 41 c299 60
491 129 788 282 174 89 264 155 320 234 56 78 128 155 145 155 18 0 10 31 -33
126 l-28 61 -102 7 c-75 4 -117 13 -162 32 -70 29 -86 27 -198 -22 -73 -32
-415 -134 -449 -134 -10 0 -52 -9 -96 -21 -213 -55 -606 -85 -724 -55 -36 9
-67 19 -69 21 -3 3 8 14 24 26 53 39 181 177 198 212 20 44 21 151 1 232 -8
33 -28 143 -45 243 -18 113 -40 209 -56 250 l-27 66 29 23 c16 12 32 23 37 23
12 0 8 33 -7 53 -17 22 -29 22 -51 -3 -22 -24 -28 -19 -45 35 -16 50 -21 56
-160 179 -145 129 -230 195 -301 235 -66 37 -176 76 -239 84 -55 8 -361 18
-375 12z m194 -72 c74 -55 110 -90 111 -106 0 -5 -24 -5 -54 -2 -30 4 -61 3
-69 -1 -10 -6 10 -10 55 -10 93 -2 102 -13 53 -65 -56 -56 -235 -140 -235
-110 0 7 -6 11 -12 10 -21 -4 -137 24 -133 32 3 4 21 10 42 14 27 5 52 22 94
66 43 45 64 59 85 59 23 0 26 2 14 10 -8 5 -23 10 -33 10 -21 0 -149 128 -141
141 3 5 37 9 76 9 70 0 71 0 147 -57z m244 -40 c48 -47 87 -90 87 -95 0 -4 -8
-9 -17 -9 -15 -1 -14 -2 2 -6 38 -9 185 -75 185 -83 0 -11 -67 -63 -115 -89
-25 -14 -31 -19 -15 -15 38 9 102 49 128 79 16 18 29 24 40 20 9 -4 29 -12 45
-17 29 -11 34 -26 15 -47 -7 -8 1 -4 19 9 l32 23 -20 40 c-27 53 -6 43 39 -17
29 -40 32 -47 14 -37 -39 21 -24 4 23 -26 25 -15 45 -31 45 -35 0 -4 -12 -10
-27 -14 -16 -3 -41 -10 -57 -15 -16 -5 -51 -9 -77 -9 -40 0 -47 3 -42 16 5 14
3 15 -16 5 -30 -16 -258 4 -294 26 -5 3 7 22 26 42 19 20 42 50 51 68 24 48
18 54 -7 7 -12 -23 -38 -55 -57 -71 -35 -30 -35 -30 -115 -22 -44 5 -93 11
-108 14 -16 3 -26 1 -22 -5 3 -5 -13 -9 -40 -8 -25 0 -45 5 -45 10 0 6 11 8
24 6 15 -3 27 0 30 7 2 7 17 16 33 19 39 10 89 50 120 97 22 33 31 39 62 40
l36 1 -43 10 c-27 6 -48 18 -58 34 -9 13 -47 47 -85 74 -38 28 -69 52 -69 55
0 3 42 5 93 5 l94 0 86 -87z m-2 67 c6 0 8 -4 5 -8 -3 -5 20 -17 52 -26 42
-14 71 -33 118 -78 56 -54 97 -118 74 -118 -29 0 -140 62 -155 87 -9 15 -44
50 -76 78 -56 47 -79 85 -43 71 9 -3 20 -6 25 -6z m-617 -55 c14 -13 26 -22
26 -19 0 2 15 -3 33 -13 l32 -18 -60 -3 c-94 -5 -174 26 -110 42 14 4 23 11
20 15 -4 8 8 18 26 20 3 1 18 -10 33 -24z m925 -112 c31 -26 85 -121 63 -111
-4 2 -28 11 -55 22 -39 15 -47 23 -47 44 0 18 -15 40 -50 72 -27 25 -50 50
-50 54 0 11 96 -45 139 -81z m-1021 60 c3 -10 -13 -13 -57 -13 -34 0 -61 4
-61 9 0 21 111 24 118 4z m192 -27 c0 -12 -68 -47 -115 -59 l-20 -5 20 -1 c23
-1 119 42 129 58 4 6 34 11 67 11 45 0 61 -4 66 -16 8 -22 -50 -79 -108 -104
-53 -22 -72 -21 -152 13 -35 15 -45 23 -37 32 8 9 2 12 -26 11 -54 -2 -50 15
9 46 59 31 167 40 167 14z m-160 -2 c0 -8 -67 -34 -88 -34 -10 0 -29 9 -42 20
l-23 20 76 0 c43 0 77 -2 77 -6z m58 -193 c67 -22 148 -45 180 -50 67 -11 242
-5 288 10 24 7 54 5 125 -11 52 -12 171 -27 266 -33 94 -7 175 -16 180 -21 5
-5 2 -6 -7 -2 -8 4 -7 1 4 -8 10 -8 15 -19 12 -24 -3 -6 -3 -12 1 -14 5 -1 16
-17 26 -35 13 -24 14 -33 5 -36 -8 -4 -4 -8 10 -13 14 -4 21 -12 18 -20 -3 -8
-2 -14 2 -14 9 0 14 -30 14 -75 0 -16 6 -33 12 -37 7 -5 5 -12 -8 -21 -11 -8
-16 -19 -12 -26 4 -7 -5 -26 -23 -47 -44 -49 -69 -103 -79 -169 -7 -45 -6 -58
4 -62 8 -3 14 -10 14 -15 0 -6 -7 -8 -15 -5 -21 9 -31 -14 -13 -27 14 -10 14
-16 3 -43 -7 -17 -18 -34 -24 -37 -16 -10 -3 -26 20 -26 11 0 17 -4 14 -10 -3
-5 -15 -10 -26 -10 -25 0 -25 -17 1 -25 11 -3 20 -11 20 -16 0 -6 5 -7 10 -4
6 3 10 0 10 -7 0 -7 11 -19 25 -25 14 -7 36 -19 50 -25 26 -14 33 -28 13 -28
-7 1 -43 18 -80 39 -50 28 -65 40 -56 49 8 8 5 9 -10 5 -13 -3 -42 5 -72 21
-27 14 -58 26 -67 25 -11 0 -6 -5 12 -11 17 -6 75 -36 129 -66 139 -76 215
-105 234 -89 13 10 15 9 10 -5 -7 -17 12 -30 35 -24 49 16 66 15 69 -1 2 -10
-5 -26 -15 -36 -10 -10 -16 -24 -14 -31 5 -13 -33 -48 -78 -72 -11 -6 -19 -16
-17 -22 1 -7 -9 -12 -23 -12 -13 0 -28 -7 -33 -16 -9 -15 -14 -15 -68 4 -94
32 -281 118 -337 154 -86 55 -200 149 -191 158 5 5 54 22 109 39 55 16 92 30
83 30 -10 1 -60 -12 -111 -29 -52 -16 -99 -30 -105 -30 -21 0 -123 134 -157
205 -111 235 -115 245 -115 309 0 49 -4 67 -19 80 -18 16 -22 15 -77 -19 -33
-19 -65 -35 -71 -35 -20 0 -45 -60 -40 -94 2 -17 1 -38 -4 -47 -11 -22 13 -98
61 -184 76 -137 100 -298 58 -385 -12 -25 -24 -53 -28 -63 -14 -47 -194 135
-215 218 -4 17 -8 53 -9 80 -1 28 -5 56 -9 63 -14 21 -46 13 -61 -15 -8 -16
-26 -39 -41 -53 -14 -13 -47 -68 -72 -122 -44 -94 -55 -109 -67 -89 -3 5 -32
19 -63 31 -32 13 -65 29 -74 37 -8 7 -62 22 -120 33 -354 66 -396 94 -450 300
-24 96 -22 117 28 243 28 70 43 94 67 108 17 10 51 42 75 70 24 28 72 72 105
96 84 62 324 181 378 187 24 3 59 10 78 15 69 20 186 6 318 -38z m1248 -126
c15 -38 19 -95 5 -95 -4 0 -11 15 -14 33 -3 17 -9 47 -13 65 -9 42 3 41 22 -3z
m102 -63 c4 -14 -65 -82 -84 -82 -27 0 -18 27 20 62 41 37 56 42 64 20z
m-1128 -171 c0 -6 -8 -16 -18 -23 -10 -7 -28 -27 -40 -44 -26 -37 -68 -52 -89
-31 -13 12 -11 17 14 36 80 62 133 87 133 62z m-27 -142 c-36 -33 -106 -59
-120 -45 -12 12 8 36 30 36 14 0 41 19 72 51 l50 50 3 -28 c3 -21 -5 -35 -35
-64z m958 41 c15 -8 17 -15 9 -29 -5 -10 -7 -21 -4 -24 3 -3 -6 -13 -21 -23
-20 -13 -29 -14 -38 -5 -8 8 -8 11 2 11 8 0 19 8 26 17 10 14 10 20 -1 31 -8
7 -12 18 -9 23 8 11 12 11 36 -1z m-2468 -206 c8 -1 48 -29 90 -62 94 -75 216
-145 377 -216 69 -30 172 -80 230 -110 58 -30 138 -64 179 -75 41 -11 76 -22
78 -24 2 -3 -12 -38 -30 -79 -28 -61 -40 -77 -62 -82 -15 -4 -39 -15 -54 -26
-52 -38 -250 -72 -408 -71 -184 1 -388 55 -487 129 -28 21 -68 49 -88 63 -76
49 -155 232 -165 381 -8 111 10 154 106 246 l75 72 73 -72 c40 -39 79 -73 86
-74z m1622 2 c29 -71 54 -123 57 -116 2 7 20 -12 41 -41 20 -30 55 -79 77
-109 21 -30 47 -77 57 -105 24 -65 121 -168 226 -239 95 -64 212 -109 415
-160 193 -49 286 -59 538 -59 189 0 224 2 246 17 14 9 39 18 57 19 17 1 31 4
31 7 0 3 10 6 23 7 53 4 167 28 167 35 0 5 6 8 13 7 18 -4 74 11 105 27 15 8
36 14 47 14 11 0 38 9 60 19 22 10 74 26 115 36 41 10 84 24 95 30 18 11 54
17 194 31 24 2 51 8 59 13 20 11 52 -4 52 -23 0 -8 9 -16 20 -19 36 -9 22 -42
-47 -108 -107 -103 -167 -143 -343 -228 -222 -107 -328 -142 -614 -201 -229
-47 -250 -50 -396 -50 -112 0 -184 5 -256 19 -185 36 -345 84 -391 118 -22 16
-33 20 -33 11 -1 -9 -4 -9 -13 2 -7 9 -27 22 -44 29 -18 7 -33 18 -33 23 0 5
-9 6 -20 3 -12 -4 -31 0 -45 9 -13 9 -34 16 -45 16 -14 0 -20 6 -18 17 2 12
-3 18 -17 18 -11 0 -25 10 -31 23 -6 12 -15 26 -19 30 -5 4 -5 1 -1 -5 12 -22
-9 -14 -34 12 -12 13 -26 22 -31 20 -15 -10 -104 51 -104 71 0 15 -6 18 -27
16 -33 -3 -49 23 -47 76 1 20 -11 68 -25 107 -21 53 -25 74 -17 91 7 17 6 21
-6 20 -12 -1 -20 18 -32 68 -15 65 -40 101 -42 59 0 -10 -2 -29 -3 -43 -15
-114 -15 -188 -2 -225 8 -22 12 -42 10 -44 -2 -2 -30 25 -63 60 l-58 64 12 36
c7 20 22 54 34 77 15 30 21 60 21 112 0 40 4 70 10 70 16 0 12 20 -21 92 -33
69 -54 90 -43 41 3 -17 -14 4 -43 52 -27 44 -46 81 -42 83 4 2 5 12 2 22 -6
23 16 27 36 8 10 -11 11 -10 6 4 -5 13 1 18 27 23 18 4 44 15 58 25 14 11 29
18 34 17 4 -2 32 -61 61 -131z m815 94 c0 -5 -5 -10 -11 -10 -5 0 -7 5 -4 10
3 6 8 10 11 10 2 0 4 -4 4 -10z m98 -30 l23 -30 -28 0 c-37 0 -61 15 -39 23 9
4 13 13 10 22 -10 26 11 17 34 -15z m-158 16 c0 -2 -7 -7 -16 -10 -8 -3 -12
-2 -9 4 6 10 25 14 25 6z m110 -5 c0 -5 -10 -11 -22 -15 -19 -5 -20 -8 -8 -15
8 -6 11 -13 7 -17 -16 -16 -29 13 -15 35 13 21 38 29 38 12z m-106 -77 c9 -24
2 -26 -12 -4 -7 11 -8 20 -3 20 5 0 12 -7 15 -16z m151 6 c3 -5 1 -10 -5 -10
-21 0 -38 -26 -33 -52 7 -34 -23 -42 -54 -15 -14 12 -23 16 -23 8 0 -9 -5 -9
-20 -1 -11 6 -20 16 -20 22 0 6 6 5 17 -3 13 -11 17 -11 20 -1 3 6 14 12 26
13 22 0 22 0 0 9 -13 5 -23 14 -23 20 0 13 17 13 25 0 8 -13 48 -7 53 8 5 15
29 16 37 2z m-130 -150 c3 -5 1 -10 -4 -10 -6 0 -11 5 -11 10 0 6 2 10 4 10 3
0 8 -4 11 -10z m-1207 -32 c5 -7 13 -35 17 -62 9 -67 -17 -57 -49 19 -2 6 -15
-3 -28 -19 -15 -17 -30 -26 -36 -22 -9 5 0 21 25 51 40 47 54 53 71 33z m-13
-120 c55 -130 47 -121 196 -253 70 -62 88 -105 45 -105 -42 0 -245 82 -254
103 -2 4 -8 7 -14 7 -6 0 -19 11 -29 24 -11 14 -36 35 -57 47 -20 12 -38 23
-40 24 -1 1 10 31 26 66 31 69 76 129 96 129 7 0 21 -19 31 -42z m1320 32 c-3
-5 -13 -10 -21 -10 -8 0 -12 5 -9 10 3 6 13 10 21 10 8 0 12 -4 9 -10z m-1429
-63 c-115 -196 -179 -442 -141 -539 4 -11 1 -18 -12 -21 -16 -4 -16 -5 2 -6
11 0 37 8 58 19 23 13 56 20 88 20 46 0 55 -4 84 -35 44 -46 75 -113 75 -162
0 -84 -70 -231 -128 -269 -46 -30 -133 -74 -148 -74 -7 0 -23 -10 -34 -22 -31
-33 -135 -37 -213 -8 -48 18 -67 33 -107 83 -28 34 -64 90 -81 125 -29 57 -31
68 -26 131 6 79 58 208 78 195 8 -5 9 -3 5 5 -9 14 10 31 66 61 27 14 56 20
105 20 75 0 88 -5 88 -35 0 -11 5 -19 11 -18 7 1 9 -8 6 -22 -4 -22 -1 -25 24
-24 17 1 22 3 12 6 -21 5 -21 10 -4 134 10 68 26 124 56 195 65 152 139 295
150 289 6 -4 0 -24 -14 -48z m190 -40 c27 -42 63 -78 109 -112 162 -117 235
-214 249 -327 5 -43 4 -48 -14 -48 -16 0 -20 7 -20 33 0 70 -40 126 -198 277
-104 98 -156 155 -167 182 -32 80 -14 78 41 -5z m714 -37 c36 -28 103 -70 150
-94 121 -62 354 -155 430 -172 78 -16 287 -18 431 -3 157 16 511 86 624 124
55 18 136 43 180 55 44 12 85 28 91 35 6 8 41 16 85 19 40 3 67 3 59 0 -22
-11 74 -34 160 -39 55 -3 76 -8 78 -19 5 -24 -18 -30 -153 -36 -106 -6 -144
-12 -205 -34 -41 -15 -102 -37 -135 -48 -33 -11 -71 -26 -85 -33 -38 -20 -210
-71 -350 -104 -201 -48 -331 -64 -445 -58 -217 13 -574 91 -697 153 -83 41
-224 152 -266 208 -42 55 -72 108 -72 126 0 12 9 5 120 -80z m-1275 60 c3 -6
-1 -7 -9 -4 -18 7 -21 14 -7 14 6 0 13 -4 16 -10z m1790 -10 c8 -13 -5 -13
-25 0 -13 8 -13 10 2 10 9 0 20 -4 23 -10z m-1461 -175 c-3 -7 -14 -13 -24
-12 -10 1 -16 7 -13 14 3 7 9 10 14 7 5 -3 9 0 9 6 0 6 4 9 10 5 5 -3 7 -12 4
-20z m19 -60 c-3 -9 -8 -14 -10 -11 -3 3 -2 9 2 15 9 16 15 13 8 -4z m47 -45
c0 -5 -4 -10 -10 -10 -5 0 -10 5 -10 10 0 6 5 10 10 10 6 0 10 -4 10 -10z
m451 -105 l18 -40 -32 -5 c-39 -7 -53 13 -63 91 l-7 54 33 -30 c18 -16 41 -48
51 -70z m-571 27 c0 -10 -22 -32 -32 -32 -13 0 -9 28 5 33 19 8 27 8 27 -1z
m-290 -42 c0 -5 -12 -10 -27 -10 -22 0 -25 2 -13 10 20 13 40 13 40 0z m-395
-20 c7 -12 -2 -12 -30 0 -19 8 -19 9 2 9 12 1 25 -3 28 -9z m160 0 c4 -6 -5
-10 -20 -10 -15 0 -24 4 -20 10 3 6 12 10 20 10 8 0 17 -4 20 -10z m125 -9 c0
-5 -7 -11 -15 -15 -15 -5 -20 5 -8 17 9 10 23 9 23 -2z m457 -9 c18 -2 31 -8
28 -12 -3 -5 4 -6 15 -3 11 3 20 1 20 -5 0 -5 12 -12 28 -15 34 -7 151 -37
174 -46 14 -5 11 -14 -22 -59 l-39 -53 -16 34 c-9 19 -31 49 -50 67 -33 32
-39 34 -131 40 -106 7 -131 21 -92 53 12 11 28 15 37 11 9 -4 31 -9 48 -12z
m-527 -7 c-6 -7 -20 -11 -30 -8 -26 7 -18 18 14 19 21 2 24 -1 16 -11z m1015
-36 c0 -20 7 -25 40 -31 22 -4 81 -7 131 -7 89 -1 91 -2 120 -33 67 -73 87
-114 92 -191 4 -61 1 -80 -17 -116 -51 -99 -128 -201 -153 -201 -5 0 -7 -4 -3
-9 9 -16 -50 -51 -103 -61 -55 -10 -112 1 -149 29 -53 40 -130 164 -131 209 0
18 -5 39 -11 46 -6 7 -20 42 -31 77 -26 80 -20 124 29 215 l37 69 65 17 c76
20 84 19 84 -13z m50 0 c4 -6 5 -12 3 -14 -7 -7 -48 7 -48 16 0 13 37 11 45
-2z m125 -9 c11 -7 7 -10 -17 -10 -18 0 -33 5 -33 10 0 13 30 13 50 0z m-1440
-10 c0 -3 19 -6 43 -7 109 -4 117 -5 117 -19 0 -20 -93 -19 -153 2 -54 18 -65
29 -31 29 13 0 24 -2 24 -5z m705 0 c3 -5 2 -10 -4 -10 -5 0 -13 5 -16 10 -3
6 -2 10 4 10 5 0 13 -4 16 -10z m3150 -37 c-22 -20 -80 -55 -130 -78 -146 -69
-328 -145 -333 -140 -8 8 -5 9 127 65 148 61 259 117 321 159 59 40 64 38 15
-6z m-3570 6 c-8 -12 -55 -12 -55 0 0 10 39 20 53 13 4 -2 5 -8 2 -13z m1395
-114 c-7 -8 -17 -15 -22 -15 -6 0 -5 7 2 15 7 8 17 15 22 15 6 0 5 -7 -2 -15z
m52 -71 c128 -65 398 -144 491 -144 38 0 56 -4 52 -10 -5 -8 9 -9 42 -5 28 4
60 2 78 -5 53 -21 185 -30 275 -18 91 11 567 103 612 118 15 5 30 5 33 0 6 -9
-132 -61 -215 -80 -30 -7 -57 -16 -60 -20 -3 -3 -94 -26 -203 -50 -198 -43
-199 -43 -345 -36 -315 13 -430 37 -694 144 l-138 55 0 39 c0 21 5 38 10 38 6
0 34 -12 62 -26z m44 11 c25 -19 14 -19 -22 0 -16 8 -22 15 -13 15 8 0 24 -7
35 -15z m74 -36 c0 -4 -7 -6 -15 -3 -8 4 -15 10 -15 15 0 4 7 6 15 3 8 -4 15
-10 15 -15z m100 11 c0 -5 -2 -10 -4 -10 -3 0 -8 5 -11 10 -3 6 -1 10 4 10 6
0 11 -4 11 -10z m1410 -40 c-8 -5 -19 -10 -25 -10 -5 0 -3 5 5 10 8 5 20 10
25 10 6 0 3 -5 -5 -10z"/>
<path d="M2328 2343 c7 -3 16 -2 19 1 4 3 -2 6 -13 5 -11 0 -14 -3 -6 -6z"/>
<path d="M900 1920 c0 -5 5 -10 11 -10 5 0 7 5 4 10 -3 6 -8 10 -11 10 -2 0
-4 -4 -4 -10z"/>
<path d="M1180 1920 c0 -5 5 -10 10 -10 6 0 10 5 10 10 0 6 -4 10 -10 10 -5 0
-10 -4 -10 -10z"/>
<path d="M995 1774 c-38 -39 -45 -43 -45 -25 0 11 -4 21 -9 21 -15 0 -24 -41
-13 -52 6 -6 8 -16 6 -23 -3 -7 6 -15 21 -19 14 -4 23 -11 20 -16 -3 -6 1 -10
9 -10 23 0 19 -15 -6 -27 -17 -8 3 -10 82 -7 111 3 120 5 161 22 18 7 28 20
31 40 4 26 -2 33 -47 65 -36 25 -59 34 -73 30 -17 -4 -22 -1 -22 15 0 24 -23
35 -39 19 -8 -8 -11 -8 -11 1 0 22 -19 12 -65 -34z"/>
<path d="M1285 1520 c3 -5 8 -10 11 -10 2 0 4 5 4 10 0 6 -5 10 -11 10 -5 0
-7 -4 -4 -10z"/>
<path d="M1010 1510 c0 -5 5 -10 10 -10 6 0 10 5 10 10 0 6 -4 10 -10 10 -5 0
-10 -4 -10 -10z"/>
<path d="M1015 1470 c-3 -5 -1 -10 4 -10 6 0 11 5 11 10 0 6 -2 10 -4 10 -3 0
-8 -4 -11 -10z"/>
<path d="M2620 1355 c14 -17 30 -20 30 -4 0 5 -4 7 -10 4 -5 -3 -10 -1 -10 4
0 6 -5 11 -11 11 -8 0 -8 -5 1 -15z"/>
<path d="M83 1370 c0 -30 2 -43 4 -27 2 15 2 39 0 55 -2 15 -4 2 -4 -28z"/>
<path d="M96 1265 c7 -53 54 -153 99 -212 20 -26 71 -70 118 -101 79 -52 81
-53 47 -17 -19 20 -54 48 -77 62 -71 41 -146 152 -179 263 l-14 45 6 -40z"/>
<path d="M1065 941 c-107 -50 -137 -59 -225 -70 l-75 -8 86 -2 c85 -1 87 0
197 54 100 49 128 67 105 64 -5 0 -44 -18 -88 -38z"/>
<path d="M2110 801 c0 -6 5 -13 10 -16 6 -3 10 1 10 9 0 9 -4 16 -10 16 -5 0
-10 -4 -10 -9z"/>
<path d="M1409 546 c-42 -22 -44 -25 -42 -66 2 -38 25 -82 37 -69 13 14 65
130 56 124 -6 -4 -22 -32 -36 -63 -27 -62 -41 -59 -46 9 -3 29 2 35 37 56 22
12 45 21 52 18 7 -2 15 0 18 5 11 18 -31 10 -76 -14z"/>
<path d="M2128 547 c-39 -18 -47 -26 -46 -47 1 -22 1 -22 5 -4 4 20 67 54 101
54 7 0 12 5 12 10 0 15 -19 11 -72 -13z"/>
<path d="M2186 495 c-13 -66 -35 -103 -68 -114 -43 -15 -46 -14 -41 17 3 23 2
24 -6 7 -19 -40 -14 -48 29 -42 23 3 47 11 55 17 18 15 48 113 43 138 -2 9 -8
-1 -12 -23z"/>
</g>
</svg>
