<?xml version="1.0" standalone="no"?>
<!DOCTYPE svg PUBLIC "-//W3C//DTD SVG 20010904//EN"
 "http://www.w3.org/TR/2001/REC-SVG-20010904/DTD/svg10.dtd">
<svg version="1.0" xmlns="http://www.w3.org/2000/svg"
 width="488.000000pt" height="326.000000pt" viewBox="0 0 488.000000 326.000000"
 preserveAspectRatio="xMidYMid meet">

<g transform="translate(0.000000,326.000000) scale(0.100000,-0.100000)"
fill="#000000" stroke="none">
<path d="M545 3218 c61 -49 98 -88 91 -95 -3 -3 -27 6 -53 20 -149 78 -194
100 -199 94 -4 -3 17 -38 46 -77 29 -39 50 -73 47 -76 -3 -3 -22 -1 -44 5
-125 35 -91 -18 84 -133 67 -44 103 -78 103 -99 0 -5 -12 0 -27 11 -34 23
-201 87 -209 79 -3 -3 25 -44 61 -92 37 -47 64 -89 61 -93 -8 -8 -475 126
-495 142 -10 7 -8 -1 5 -23 33 -58 114 -121 216 -170 54 -25 98 -48 98 -51 0
-3 -12 -6 -26 -5 -18 0 -29 -7 -34 -21 -9 -24 22 -49 183 -146 48 -29 87 -56
87 -60 0 -12 -92 -9 -230 7 -96 11 -133 12 -162 3 -21 -6 -38 -14 -38 -18 0
-9 152 -85 210 -105 24 -9 109 -27 189 -41 80 -13 148 -29 151 -35 4 -5 15 -7
25 -3 12 5 16 3 13 -6 -7 -23 -104 -50 -219 -62 -60 -6 -109 -14 -109 -19 0
-9 236 -66 313 -75 32 -4 54 -10 50 -14 -4 -5 -66 -32 -138 -61 l-130 -54 130
-8 c72 -4 155 -6 186 -5 65 3 70 -12 16 -50 -111 -77 -138 -126 -54 -96 89 32
219 64 417 103 113 22 255 55 315 72 107 31 116 32 350 36 219 3 245 2 307
-17 50 -15 72 -28 88 -50 13 -19 30 -30 44 -30 13 0 29 -7 36 -15 7 -8 25 -15
41 -15 16 0 38 -9 49 -20 11 -11 28 -20 37 -20 9 0 27 -10 40 -22 13 -12 31
-22 41 -23 14 -1 260 -142 281 -161 8 -7 -33 -33 -84 -53 -27 -11 -45 -20 -39
-20 25 -2 109 29 145 53 41 28 78 36 44 10 -42 -31 -121 -101 -170 -151 -28
-29 -59 -53 -69 -53 -9 0 -15 -4 -12 -9 4 -5 -22 -33 -56 -61 -35 -29 -74 -70
-88 -91 -26 -40 -57 -50 -90 -29 -12 8 -8 16 25 51 22 23 81 74 130 114 96 77
131 112 123 120 -3 3 -18 -1 -34 -10 -16 -8 -45 -15 -65 -15 -20 0 -53 -7 -73
-15 -33 -14 -37 -14 -42 0 -9 23 22 42 81 51 39 6 44 9 22 12 -15 2 -50 -4
-77 -13 l-49 -16 -58 39 c-72 50 -272 150 -392 197 -223 88 -593 164 -706 145
-189 -32 -332 -82 -521 -182 -167 -88 -239 -110 -358 -112 -56 0 -101 -5 -103
-11 -4 -13 87 -75 111 -75 26 0 189 -95 255 -149 192 -156 330 -266 367 -292
57 -39 126 -55 328 -78 92 -11 170 -21 172 -24 2 -2 -13 -16 -34 -31 -38 -26
-41 -26 -111 -15 -40 6 -76 8 -79 4 -4 -4 6 -17 23 -30 16 -13 27 -26 25 -28
-17 -15 -85 -38 -139 -46 -35 -6 -74 -17 -87 -26 -37 -24 -157 -169 -236 -285
-73 -107 -244 -287 -319 -337 -83 -55 -37 -67 121 -32 52 11 165 29 250 39 85
10 184 26 220 35 140 36 228 66 261 91 55 41 151 95 157 89 4 -3 0 -16 -8 -28
-7 -12 -30 -51 -50 -87 -26 -46 -59 -83 -111 -127 -41 -35 -75 -69 -77 -78 -4
-19 2 -19 55 0 23 8 86 19 140 24 135 13 271 70 423 176 61 43 119 90 129 104
10 14 29 63 41 109 33 123 42 111 69 -93 8 -56 6 -87 -9 -162 -11 -51 -17
-100 -14 -108 4 -9 0 -23 -8 -33 -19 -21 -29 -60 -18 -67 12 -8 85 122 114
204 15 40 31 105 36 144 6 39 12 72 14 75 2 2 35 -6 72 -17 113 -34 346 -61
521 -61 87 0 191 -5 231 -10 73 -10 271 -52 305 -65 12 -5 17 -2 17 8 0 23
-124 124 -221 180 -83 47 -203 143 -248 196 l-44 53 59 -7 c67 -8 183 -50 201
-73 17 -20 195 -72 273 -79 47 -4 86 0 143 15 68 18 85 27 140 78 48 44 73 79
114 157 28 55 58 106 66 114 12 13 33 2 163 -85 171 -113 317 -202 332 -202 6
0 14 16 18 35 7 38 11 40 48 23 22 -9 29 -8 47 8 13 12 19 27 17 44 -4 23 -1
26 24 22 20 -3 28 0 28 11 0 21 40 69 54 64 15 -6 67 25 63 38 -1 5 -37 27
-80 47 -42 21 -77 42 -77 48 0 14 -2 14 83 -25 75 -34 76 -34 99 -15 l23 18
-24 26 c-21 22 -22 26 -8 32 9 3 21 3 27 -1 7 -4 25 5 41 21 31 30 36 44 16
44 -7 0 -94 34 -192 76 -222 93 -243 102 -230 103 6 0 102 -35 215 -79 144
-55 207 -75 212 -67 4 6 2 14 -4 18 -6 4 -8 11 -4 17 6 10 -34 25 -43 17 -2
-3 1 -5 7 -5 7 0 12 -4 12 -10 0 -5 -7 -10 -15 -10 -21 0 -105 42 -105 53 0 9
102 -1 137 -14 24 -9 64 23 43 36 -7 4 -9 19 -5 36 5 23 2 33 -17 49 l-23 19
36 1 c40 0 49 11 49 61 0 24 -5 30 -32 37 -28 7 -33 13 -36 43 -2 19 -10 42
-19 51 -25 28 -914 233 -1203 277 -142 22 -350 64 -350 71 0 4 18 20 41 36 39
27 41 30 36 72 -5 43 -29 82 -52 82 -6 0 -18 -12 -25 -26 -8 -14 -44 -52 -80
-84 l-66 -58 -89 18 c-119 24 -359 85 -415 105 -43 15 -177 94 -202 119 -7 6
-40 20 -73 30 -33 10 -64 19 -70 21 -23 7 -165 138 -163 149 2 7 -11 25 -29
40 -21 17 -41 51 -59 99 -14 39 -39 97 -54 127 -15 30 -38 78 -51 105 -30 63
-114 148 -249 250 -71 55 -128 109 -180 172 -67 82 -103 113 -116 101 -2 -3 3
-27 11 -54 8 -27 15 -59 15 -71 0 -12 4 -23 9 -25 5 -1 13 -16 17 -31 6 -28 4
-27 -152 52 -88 44 -172 89 -189 100 -32 22 -65 28 -65 11 0 -5 15 -27 33 -47
18 -21 55 -66 81 -99 26 -34 74 -83 107 -110 32 -26 59 -49 59 -51 0 -2 -33
13 -72 34 -45 23 -100 64 -143 106 -79 77 -211 187 -226 187 -16 0 -9 -24 21
-70 16 -24 27 -46 25 -48 -7 -8 -169 59 -254 104 -99 52 -133 58 -76 12z m-12
-68 c107 -65 121 -75 136 -102 9 -15 13 -29 10 -33 -3 -3 -32 3 -65 13 -51 15
-65 26 -107 77 -27 33 -53 68 -58 77 -12 22 5 16 84 -32z m331 -83 c55 -28
145 -85 200 -126 55 -42 105 -79 111 -83 5 -4 7 -10 3 -13 -7 -8 -65 22 -128
65 -46 31 -198 95 -207 86 -2 -2 3 -16 12 -30 10 -14 15 -26 11 -26 -3 0 -35
12 -72 27 -65 27 -66 28 -105 105 -21 43 -39 82 -39 87 0 12 77 -22 214 -92z
m22 86 c7 -10 16 -18 21 -18 16 0 175 -149 164 -153 -22 -7 -134 74 -172 125
-22 29 -39 55 -39 58 0 11 13 4 26 -12z m205 -9 c19 -14 81 -50 139 -81 69
-37 129 -79 176 -122 39 -36 93 -85 119 -108 27 -24 46 -46 42 -49 -4 -4 -74
47 -156 114 l-150 120 -3 -46 -3 -46 -93 104 c-123 140 -123 140 -114 140 4 0
24 -12 43 -26z m384 -87 c42 -53 88 -93 216 -186 80 -57 137 -122 188 -213 47
-84 111 -242 102 -251 -5 -5 -24 -1 -42 9 -19 10 -38 17 -42 16 -5 -1 -6 2 -3
7 11 17 -109 202 -159 246 -6 6 -20 22 -29 37 -10 15 -22 26 -26 23 -5 -3 -12
5 -15 17 -4 13 -33 52 -65 88 -75 86 -150 185 -150 200 0 6 -7 18 -15 26 -16
16 -20 35 -7 33 4 0 25 -24 47 -52z m-1010 -6 c107 -61 195 -102 212 -99 11 2
-6 13 -42 27 -90 36 -89 44 3 14 44 -15 79 -30 76 -35 -3 -4 19 -19 48 -32 60
-27 100 -55 80 -56 -7 0 -22 5 -34 11 -11 6 -22 8 -25 5 -3 -3 6 -10 20 -15
15 -6 52 -31 82 -56 31 -25 61 -42 67 -39 7 4 8 2 4 -4 -4 -7 -1 -12 8 -12 8
0 31 -15 50 -32 49 -47 64 -58 76 -58 18 0 88 -51 105 -76 21 -32 19 -37 -7
-23 -14 7 -19 7 -13 1 6 -6 16 -12 24 -14 8 -2 33 -25 55 -53 29 -36 61 -59
109 -83 78 -37 83 -62 6 -32 -27 11 -59 20 -70 20 -13 0 -55 32 -103 77 -95
89 -157 131 -361 242 -141 77 -182 108 -228 175 -9 14 -61 55 -115 92 -119 82
-121 84 -96 84 10 0 42 -13 69 -29z m670 -215 c33 -17 84 -39 113 -49 41 -14
69 -34 118 -85 35 -36 64 -70 64 -76 0 -5 28 -39 63 -75 50 -53 59 -66 43 -69
-10 -2 -41 12 -70 31 -66 45 -102 63 -146 72 -19 4 -45 13 -57 21 -12 8 -27
14 -34 14 -24 0 -151 95 -192 144 -59 69 -137 176 -137 188 0 5 39 -12 88 -38
48 -26 114 -61 147 -78z m179 85 c11 -16 55 -67 96 -113 l75 -83 -85 78 c-85
79 -120 121 -120 146 0 17 5 13 34 -28z m-439 -13 c6 -5 -8 -2 -30 7 -22 9
-44 21 -50 26 -5 6 8 3 30 -6 22 -9 45 -21 50 -27z m548 -40 c40 -35 111 -92
157 -128 86 -67 214 -215 206 -237 -3 -7 -1 -15 4 -18 12 -7 82 -137 76 -142
-10 -11 -147 70 -176 104 -18 21 -27 28 -21 16 7 -13 8 -23 4 -23 -4 0 12 -19
37 -41 l45 -41 -48 33 c-26 19 -47 38 -47 42 1 5 -6 14 -14 20 -17 13 -99 187
-88 187 4 0 27 -34 51 -76 48 -83 67 -94 27 -16 -29 56 -96 140 -202 252 -63
67 -94 107 -94 124 0 13 14 3 83 -56z m-925 3 c2 -12 16 -28 32 -36 39 -20 47
-19 25 5 -20 22 -9 26 17 6 10 -7 15 -16 11 -19 -9 -10 37 -47 58 -47 23 0 69
-21 69 -31 0 -4 15 -12 33 -18 22 -8 28 -14 19 -20 -17 -10 31 -33 53 -25 8 4
15 1 15 -6 0 -6 -4 -8 -10 -5 -5 3 -10 4 -10 1 0 -6 56 -36 67 -36 4 0 1 5 -7
10 -9 6 -10 10 -3 10 7 0 16 -7 21 -15 5 -10 25 -17 53 -18 53 -3 93 -24 137
-71 19 -20 40 -36 49 -36 9 0 13 -6 9 -15 -4 -10 1 -15 14 -15 13 0 18 -5 14
-15 -4 -9 3 -19 20 -26 14 -7 26 -18 26 -26 0 -17 -38 -9 -102 23 -25 13 -100
45 -165 70 -65 26 -127 53 -138 59 -11 7 -36 18 -57 24 -56 18 -318 274 -318
311 0 19 65 -19 68 -39z m738 14 c10 -8 14 -15 8 -15 -5 0 -19 7 -30 15 -10 8
-14 15 -8 15 5 0 19 -7 30 -15z m332 -50 c-3 -3 -9 2 -12 12 -6 14 -5 15 5 6
7 -7 10 -15 7 -18z m-1281 -64 c98 -32 205 -72 239 -89 57 -29 92 -57 83 -67
-3 -2 -38 0 -79 6 -61 8 -102 23 -224 82 -157 76 -242 127 -214 127 9 0 97
-26 195 -59z m125 -172 c59 -18 72 -19 79 -8 7 12 9 11 9 -1 0 -12 21 -19 93
-28 108 -13 187 -38 187 -58 0 -8 6 -14 13 -14 7 0 23 -7 36 -16 17 -13 20
-18 10 -25 -11 -6 -10 -12 4 -27 14 -15 23 -42 15 -42 -2 0 -32 9 -66 20 -35
11 -78 20 -95 21 -18 0 -41 5 -52 10 -15 7 -9 8 23 4 23 -3 42 -3 42 -1 0 5
-101 36 -115 36 -4 0 -2 -7 5 -15 21 -26 -19 -18 -75 14 -27 16 -75 44 -106
61 -68 38 -123 90 -95 90 10 0 49 -10 88 -21z m1136 -14 c-3 -3 -9 2 -12 12
-6 14 -5 15 5 6 7 -7 10 -15 7 -18z m-911 -11 c-3 -3 -12 -4 -19 -1 -8 3 -5 6
6 6 11 1 17 -2 13 -5z m679 -17 c84 -34 287 -141 364 -193 71 -48 167 -131
159 -138 -11 -11 -173 56 -254 104 -49 30 -124 69 -165 87 -86 37 -133 71
-161 117 -33 54 -28 56 57 23z m-425 -58 c111 -39 150 -59 117 -59 -8 0 -35 7
-58 15 -24 8 -58 16 -77 18 -18 1 -33 5 -33 9 0 4 -17 19 -37 33 -21 14 -35
25 -32 25 3 0 57 -18 120 -41z m949 -21 c0 -6 -7 -5 -15 2 -8 7 -15 17 -15 22
0 6 7 5 15 -2 8 -7 15 -17 15 -22z m-845 -63 c109 -15 249 -34 305 -39 53 -5
113 -18 130 -26 17 -10 8 -12 -109 -34 -54 -10 -91 -12 -139 -5 -111 16 -288
79 -307 109 -8 13 1 13 120 -5z m959 -62 c24 -26 40 -50 34 -52 -11 -4 -128
108 -128 122 0 15 45 -19 94 -70z m-1754 52 c0 -13 -4 -14 -20 -5 -11 6 -20
13 -20 15 0 3 9 5 20 5 11 0 20 -7 20 -15z m165 0 c92 -10 158 -12 182 -7 44
10 210 -15 338 -51 l80 -22 -105 -6 c-58 -3 -94 -6 -80 -8 21 -3 19 -4 -12
-10 -20 -4 -56 -5 -80 -1 -40 5 -41 6 -15 13 42 11 32 27 -19 27 -27 0 -43 -4
-39 -10 3 -5 1 -10 -4 -10 -6 0 -11 5 -11 10 0 6 -11 10 -25 10 -14 0 -25 -5
-25 -11 0 -8 -5 -8 -15 1 -10 9 -15 9 -15 1 0 -16 -41 -14 -60 4 -17 15 -139
52 -199 59 -18 2 -38 9 -44 15 -14 14 -24 14 148 -4z m1151 -60 c20 -15 13
-18 -23 -9 -13 4 -23 10 -23 15 0 14 24 11 46 -6z m506 -1 c15 -19 43 -50 77
-88 14 -14 21 -26 17 -26 -11 0 -126 111 -126 122 0 13 18 9 32 -8z m-967 -34
c16 -7 13 -9 -17 -9 -21 -1 -38 4 -38 9 0 12 27 12 55 0z m880 0 c3 -5 2 -10
-4 -10 -5 0 -13 5 -16 10 -3 6 -2 10 4 10 5 0 13 -4 16 -10z m-299 -53 c61
-28 98 -51 100 -61 3 -22 -25 -14 -89 25 -63 38 -68 37 -23 -6 l37 -35 -48 6
c-171 23 -402 70 -458 95 -12 5 8 6 55 3 53 -3 88 0 120 11 31 10 70 14 126
11 71 -3 95 -9 180 -49z m-540 -6 c-4 -5 -30 -12 -59 -16 -78 -11 -90 -21 -44
-40 100 -42 150 -66 145 -70 -8 -9 -110 8 -122 20 -10 10 -27 10 -82 -1 -38
-7 -86 -13 -106 -14 -40 0 -46 -7 -25 -29 10 -11 5 -12 -28 -6 -22 4 -43 11
-46 17 -4 6 -12 7 -19 3 -10 -6 -102 3 -210 22 -31 5 -27 8 43 20 42 7 114 27
160 43 53 20 117 34 182 41 55 6 102 12 104 15 9 8 112 4 107 -5z m921 -52
c37 -23 70 -44 72 -46 2 -2 2 -5 -1 -8 -7 -7 -188 86 -188 96 0 18 55 -2 117
-42z m-2 23 c-3 -3 -11 0 -18 7 -9 10 -8 11 6 5 10 -3 15 -9 12 -12z m-930
-12 c4 -6 28 -8 58 -4 60 7 214 -11 233 -27 32 -26 265 -53 327 -38 35 9 42 7
88 -27 27 -20 49 -37 47 -39 -2 -1 -34 1 -73 5 -38 3 -131 2 -205 -2 -127 -8
-139 -7 -210 16 -41 14 -102 30 -135 36 -33 7 -93 26 -134 43 -57 24 -69 32
-55 38 28 11 52 10 59 -1z m1085 -36 c0 -2 -9 0 -20 6 -11 6 -20 13 -20 16 0
2 9 0 20 -6 11 -6 20 -13 20 -16z m-225 7 c8 -15 -13 -23 -38 -15 -21 7 -21 7
-2 15 27 10 33 10 40 0z m174 -17 c14 -12 -19 -1 -35 12 -18 14 -18 14 6 3 14
-6 27 -13 29 -15z m-221 -36 l97 -33 -45 -3 c-61 -5 -103 5 -134 29 -24 19
-34 39 -20 39 3 0 49 -15 102 -32z m442 -7 c0 -5 -16 -41 -35 -79 -20 -38 -38
-80 -40 -92 -10 -49 -17 -31 -11 25 4 34 16 72 27 87 10 15 19 31 19 36 0 10
21 32 32 32 4 0 8 -4 8 -9z m44 -48 c-6 -52 -41 -138 -55 -138 -22 0 -11 82
17 127 29 45 43 49 38 11z m-1051 8 c4 -1 7 -5 7 -11 0 -13 -78 -33 -108 -27
-14 3 -40 -1 -58 -9 -18 -8 -49 -14 -67 -14 -19 0 -83 -15 -143 -32 -94 -28
-123 -33 -209 -32 -55 1 -113 6 -130 11 l-30 10 40 17 c163 71 305 95 530 91
88 -2 163 -3 168 -4z m887 -37 c0 -18 -4 -18 -24 5 -17 19 -17 19 3 14 12 -3
21 -12 21 -19z m182 4 c-7 -7 -12 -8 -12 -2 0 6 3 14 7 17 3 4 9 5 12 2 2 -3
-1 -11 -7 -17z m-596 -19 c3 -5 -22 -9 -56 -9 -38 0 -59 4 -55 10 3 6 15 10
26 10 10 0 19 4 19 9 0 12 57 -6 66 -20z m-286 12 c-35 -20 -60 -23 -60 -7 0
12 10 16 38 16 25 -1 32 -3 22 -9z m524 -11 c4 -5 -28 -8 -72 -7 -44 1 -78 5
-76 9 2 3 -2 9 -8 12 -7 3 23 2 67 -1 44 -3 84 -9 89 -13z m-600 -14 c-4 -10
2 -16 18 -18 22 -3 22 -4 3 -15 -30 -17 -318 -79 -420 -91 -63 -7 -121 -23
-192 -50 -57 -22 -103 -36 -103 -31 0 12 96 86 144 111 41 21 96 30 96 16 0
-4 -10 -8 -22 -8 -13 0 -30 -5 -38 -10 -12 -8 -10 -10 10 -11 14 -1 30 0 35 1
6 1 28 7 50 12 22 5 50 15 61 23 14 9 35 12 60 8 27 -4 35 -3 30 5 -4 7 -2 12
4 12 6 0 13 -7 16 -15 4 -10 10 -12 18 -6 15 12 126 44 132 38 8 -8 54 7 53
17 -1 11 21 26 38 26 7 0 10 -6 7 -14z m209 7 c-7 -2 -19 -2 -25 0 -7 3 -2 5
12 5 14 0 19 -2 13 -5z m1641 -9 c3 -9 6 -22 6 -30 0 -24 -35 1 -37 25 -2 24
22 28 31 5z m-829 -4 c8 -13 -5 -13 -25 0 -13 8 -13 10 2 10 9 0 20 -4 23 -10z
m-1215 -15 c0 -11 -11 -15 -37 -15 -49 0 -28 20 30 29 4 0 7 -6 7 -14z m1315
-19 c11 -8 114 -46 230 -85 115 -39 211 -74 214 -76 2 -3 1 -8 -2 -12 -11 -10
-136 30 -257 82 -41 18 -100 40 -130 50 -30 9 -71 25 -90 35 -33 18 -34 19
-10 20 14 0 35 -6 45 -14z m-1472 -3 c-7 -2 -21 -2 -30 0 -10 3 -4 5 12 5 17
0 24 -2 18 -5z m1501 -62 c26 -27 11 -27 -44 0 -25 12 -64 30 -87 40 -24 10
-43 20 -43 23 0 11 156 -45 174 -63z m672 58 c8 -13 -57 -72 -98 -90 -16 -6
-28 -19 -28 -29 0 -10 -11 -25 -25 -34 -14 -9 -23 -22 -19 -28 4 -6 3 -8 -4
-4 -5 3 -35 -16 -65 -44 -30 -27 -57 -50 -61 -50 -11 0 8 35 26 48 10 7 16 17
14 21 -7 10 221 221 238 221 8 0 18 -5 22 -11z m-401 -69 c91 -25 122 -39 89
-40 -24 0 -155 43 -181 60 -12 8 -13 10 -3 7 9 -3 52 -15 95 -27z m-525 10 c0
-5 -4 -10 -9 -10 -6 0 -13 5 -16 10 -3 6 1 10 9 10 9 0 16 -4 16 -10z m395
-43 c7 -7 4 -8 -8 -3 -11 3 -30 9 -43 12 -13 3 -24 10 -24 15 0 10 61 -9 75
-24z m-1301 -13 c113 -19 331 -72 371 -90 17 -7 50 -18 75 -24 56 -15 251 -99
347 -150 112 -61 147 -87 161 -122 7 -18 18 -41 23 -50 5 -10 9 -34 9 -54 l0
-36 -57 7 c-146 17 -232 38 -346 84 -67 27 -157 57 -199 65 -87 18 -250 20
-463 7 -170 -11 -355 -1 -490 28 -55 12 -156 30 -225 40 -85 13 -119 21 -105
26 11 4 35 14 54 21 18 8 40 14 47 14 8 0 31 11 52 24 66 43 294 144 387 171
79 23 214 52 254 54 8 1 55 -6 105 -15z m1581 -5 c-3 -4 -12 -6 -20 -3 -8 4
-13 10 -10 15 3 4 12 6 20 3 8 -4 13 -10 10 -15z m-460 -37 c-5 -5 -63 26 -69
37 -4 5 12 0 33 -12 22 -12 38 -23 36 -25z m333 -36 c18 -9 38 -16 44 -14 5 2
-33 23 -86 47 -53 24 -94 46 -92 48 3 3 42 -9 88 -27 46 -18 94 -36 107 -41
19 -8 21 -12 11 -24 -17 -20 -56 -19 -125 5 -65 22 -145 66 -145 79 0 9 139
-42 198 -73z m-163 -5 c116 -57 155 -81 143 -86 -12 -5 -62 17 -155 66 -157
82 -185 99 -162 99 8 0 87 -35 174 -79z m742 8 c73 -17 136 -35 139 -41 4 -6
-1 -8 -12 -4 -11 3 -77 19 -148 36 -72 17 -137 35 -145 41 -19 11 -12 10 166
-32z m-724 -73 c78 -43 105 -66 77 -66 -15 0 -186 107 -218 136 l-27 25 40
-24 c22 -13 79 -45 128 -71z m759 20 c296 -75 661 -189 863 -271 97 -38 106
-44 73 -44 -21 -1 -38 -6 -38 -12 0 -7 9 -9 23 -5 22 6 382 -107 392 -124 3
-4 -13 -11 -34 -15 -32 -5 -56 1 -136 34 -53 22 -102 38 -109 35 -7 -3 -129
33 -272 79 -142 46 -272 85 -289 86 -74 3 -519 135 -793 233 -70 26 -82 33
-70 44 11 11 31 8 122 -21 60 -19 111 -33 113 -31 2 2 -33 16 -79 31 -46 16
-92 34 -103 41 -18 13 -17 14 12 14 18 0 164 -33 325 -74z m-634 7 c19 -8 32
-16 29 -19 -2 -3 -29 7 -58 21 -55 25 -34 24 29 -2z m1007 -23 c72 -17 150
-37 175 -45 47 -14 125 -30 224 -45 32 -4 62 -13 65 -18 4 -6 26 -11 50 -10
31 0 48 -5 57 -17 8 -11 19 -15 31 -11 9 4 14 4 10 0 -12 -13 104 -44 163 -44
30 0 72 -5 93 -11 31 -8 37 -14 32 -30 -5 -15 -3 -17 11 -12 12 4 15 3 10 -5
-4 -6 -19 -9 -34 -7 -166 27 -281 55 -453 111 -193 62 -301 92 -536 153 -105
27 -146 45 -71 30 24 -4 102 -22 173 -39z m-600 -45 c83 -29 200 -72 260 -95
107 -41 386 -140 570 -202 49 -17 110 -40 135 -53 25 -12 123 -61 217 -108 95
-48 188 -93 208 -101 22 -10 35 -22 35 -34 0 -32 -13 -33 -31 -2 -11 17 -25
30 -33 30 -13 0 -340 135 -475 196 -18 8 -35 13 -38 11 -2 -2 64 -35 146 -72
83 -38 147 -73 144 -78 -3 -6 -1 -7 5 -3 16 10 196 -69 200 -88 5 -26 -66 -20
-155 13 -43 16 -145 61 -228 101 -82 39 -181 84 -220 100 -92 37 -345 158
-345 164 0 6 17 0 329 -125 123 -50 225 -88 227 -86 3 2 -30 19 -73 36 -285
118 -367 151 -523 206 -161 58 -579 222 -589 231 -3 2 4 10 14 18 14 10 26 11
45 4 14 -6 93 -34 175 -63z m623 5 c45 -13 80 -25 78 -27 -6 -6 -180 39 -191
50 -11 11 -10 11 113 -23z m-513 -147 c50 -20 135 -53 190 -73 122 -46 480
-215 630 -299 60 -33 106 -61 102 -61 -4 0 -87 36 -185 81 -97 45 -300 132
-450 195 -150 63 -290 122 -310 133 -20 10 -50 21 -67 24 -45 9 -307 135 -301
146 5 7 87 -23 391 -146z m-274 63 c160 -76 332 -150 413 -177 32 -11 103 -43
158 -70 55 -28 106 -48 114 -45 7 3 89 -29 181 -70 93 -42 229 -101 303 -132
74 -31 137 -57 139 -59 3 -2 0 -8 -6 -14 -10 -10 -148 51 -471 207 -73 35
-136 64 -140 64 -4 0 88 -49 203 -108 116 -60 272 -143 347 -186 76 -42 154
-84 174 -92 36 -15 79 -11 69 7 -7 10 6 12 29 3 22 -9 20 -27 -2 -19 -11 3
-30 -3 -47 -17 l-28 -22 -48 27 c-29 17 -50 23 -54 17 -3 -5 19 -22 49 -37 31
-15 58 -33 60 -40 13 -33 -31 -21 -121 35 -146 90 -343 195 -688 369 -170 85
-317 161 -325 168 -8 7 -51 28 -95 48 -143 64 -375 188 -370 198 9 14 14 13
156 -55z m48 -95 c130 -66 340 -169 466 -231 293 -142 487 -250 450 -250 -3 0
-64 29 -135 65 -72 36 -130 63 -130 60 0 -2 23 -16 50 -30 28 -14 50 -28 50
-30 0 -3 -36 13 -80 35 -45 22 -78 45 -75 50 4 6 -1 7 -11 3 -12 -4 -15 -3
-10 5 5 8 1 10 -10 5 -13 -5 -15 -3 -9 7 5 8 4 11 -3 7 -5 -4 -47 12 -91 35
-44 23 -83 39 -87 36 -5 -6 87 -63 313 -193 62 -36 98 -62 91 -66 -6 -4 -25 3
-42 16 -17 12 -68 41 -113 64 -45 22 -97 54 -115 69 -41 36 -194 127 -455 270
-300 165 -313 173 -307 183 3 5 8 9 11 9 3 0 112 -54 242 -119z m-134 4 c77
-43 174 -99 215 -125 41 -26 154 -94 250 -150 96 -57 224 -136 284 -176 l110
-73 -30 -12 c-16 -7 -65 -13 -109 -13 -79 -1 -81 0 -180 55 -55 31 -137 79
-181 106 -124 76 -203 98 -349 98 -89 0 -136 -5 -182 -19 -60 -18 -63 -18
-122 0 -74 22 -91 44 -98 126 l-6 59 49 45 c60 55 197 162 204 159 3 -1 68
-37 145 -80z m-2305 37 c0 -5 -13 -7 -30 -4 -16 2 -30 6 -30 8 0 2 14 4 30 4
17 0 30 -4 30 -8z m-90 -12 c30 -5 118 -21 195 -35 126 -24 176 -28 495 -36
195 -5 385 -14 422 -19 37 -5 116 -28 175 -51 59 -22 146 -49 192 -58 98 -20
86 -38 -13 -20 -53 10 -66 9 -93 -5 -18 -9 -39 -16 -47 -16 -8 0 -28 -11 -44
-25 -17 -14 -37 -25 -46 -25 -9 0 -16 -7 -16 -15 0 -8 -7 -15 -16 -15 -9 0
-12 5 -8 13 6 9 4 9 -7 1 -8 -6 -27 -14 -43 -18 -21 -5 -26 -10 -17 -15 9 -6
7 -10 -7 -13 -11 -3 -24 -2 -29 3 -5 5 -31 0 -61 -11 -29 -11 -61 -20 -73 -20
-11 0 -18 -4 -15 -9 3 -4 -7 -7 -22 -5 -28 4 -130 -14 -147 -26 -5 -4 -39 -3
-75 2 -36 4 -74 8 -85 8 -11 1 -35 10 -54 21 -27 16 -36 17 -49 7 -12 -10 -14
-10 -8 0 4 7 1 12 -9 12 -9 0 -13 -5 -10 -10 10 -16 -18 -7 -32 10 -6 8 -9 19
-5 25 3 5 -4 2 -15 -8 -12 -11 -24 -14 -27 -8 -3 5 -39 19 -79 31 -88 26 -124
44 -185 92 -26 20 -100 74 -164 119 -65 45 -118 86 -118 90 0 4 -10 11 -21 14
-17 6 -19 9 -8 16 18 11 100 11 169 -1z m184 -9 c4 -5 -3 -7 -14 -4 -23 6 -26
13 -6 13 8 0 17 -4 20 -9z m3181 -66 c222 -78 355 -129 350 -133 -4 -5 -512
175 -535 190 -23 14 18 1 185 -57z m-2175 12 c30 -9 64 -19 74 -23 13 -5 17
-4 12 4 -5 8 1 8 24 1 16 -6 28 -15 25 -19 -3 -5 19 -17 50 -26 30 -10 53 -19
51 -21 -6 -6 -137 27 -174 44 -65 29 -167 43 -322 44 -101 1 -146 4 -130 10
40 13 327 3 390 -14z m2737 12 c15 -6 60 -13 98 -16 39 -2 79 -10 90 -17 11
-7 31 -16 45 -19 46 -12 52 -21 39 -50 -16 -34 -33 -35 -26 -1 4 24 2 25 -34
23 -25 -2 -44 3 -57 14 -10 9 -32 17 -49 17 -27 0 -169 43 -181 55 -10 10 47
5 75 -6z m-1992 -27 c-44 -39 -104 -82 -113 -82 -6 0 -13 -6 -16 -12 -3 -7 -4
5 -3 27 2 38 4 40 44 50 23 6 45 13 49 18 4 4 16 7 28 7 11 0 16 -4 11 -8z
m1611 -35 c38 -13 137 -43 219 -67 152 -44 182 -57 168 -71 -8 -8 -446 140
-461 155 -9 10 1 7 74 -17z m414 1 c33 0 140 -41 140 -54 0 -21 -56 -11 -140
26 -87 37 -99 46 -50 35 19 -4 42 -7 50 -7z m276 -44 c-3 -9 -6 -18 -6 -20 0
-2 -7 -4 -15 -4 -18 0 -19 12 -3 28 17 17 31 15 24 -4z m-2256 -68 c0 -40 -5
-57 -19 -71 -19 -17 -21 -16 -41 16 -18 31 -25 81 -8 69 3 -3 16 7 28 23 29
37 40 26 40 -37z m2160 54 c0 -5 -4 -10 -10 -10 -5 0 -10 5 -10 10 0 6 5 10
10 10 6 0 10 -4 10 -10z m-2480 -25 c42 -7 88 -24 64 -25 -26 0 -130 24 -139
33 -7 6 -3 7 10 4 11 -3 40 -9 65 -12z m17 -41 c-3 -3 -12 -4 -19 -1 -8 3 -5
6 6 6 11 1 17 -2 13 -5z m230 -49 c18 -37 19 -47 9 -51 -18 -7 -96 14 -96 26
0 11 49 70 58 70 4 0 17 -21 29 -45z m2183 -3 c22 -15 23 -17 6 -20 -21 -4
-104 17 -111 28 -3 5 -2 15 1 24 5 14 10 14 42 0 21 -8 48 -23 62 -32z m-130
28 c0 -5 -5 -10 -11 -10 -5 0 -7 5 -4 10 3 6 8 10 11 10 2 0 4 -4 4 -10z m-50
-20 c13 -8 13 -10 -2 -10 -9 0 -20 5 -23 10 -8 13 5 13 25 0z m-2213 -6 c-3
-3 -12 -4 -19 -1 -8 3 -5 6 6 6 11 1 17 -2 13 -5z m2467 -10 c26 -10 18 -24
-14 -24 -29 0 -38 9 -23 23 8 9 17 9 37 1z m-165 -13 c8 -5 9 -11 3 -15 -5 -3
-15 1 -22 9 -14 16 -3 20 19 6z m-2681 -36 c-3 -3 -9 2 -12 12 -6 14 -5 15 5
6 7 -7 10 -15 7 -18z m547 -13 c119 -56 314 -260 371 -388 42 -94 139 -202
239 -266 28 -18 67 -45 88 -61 20 -16 37 -25 37 -21 0 5 7 -2 16 -14 8 -12 19
-20 23 -17 5 2 20 -6 34 -19 13 -13 33 -26 43 -31 13 -5 15 -9 6 -12 -6 -3
-26 7 -43 21 -18 15 -36 23 -42 19 -8 -5 -4 -9 11 -11 12 -2 22 -7 22 -11 0
-4 -44 1 -97 10 -69 13 -152 18 -278 19 -164 1 -350 18 -516 48 -55 10 -158
59 -166 78 -3 8 -8 12 -12 9 -4 -2 -26 14 -49 36 -47 44 -67 99 -76 214 -6 63
-4 75 21 125 19 38 37 58 56 64 26 9 31 5 93 -62 59 -64 198 -174 228 -178 6
-1 103 -50 216 -108 138 -72 234 -116 295 -133 50 -14 124 -41 165 -60 56 -25
69 -28 50 -12 -30 24 -257 139 -276 139 -8 0 -14 5 -14 10 0 6 -7 10 -16 10
-24 0 -74 32 -74 48 0 7 -13 18 -30 23 -18 7 -38 26 -51 47 -11 21 -40 49 -65
64 -24 15 -44 34 -44 43 0 8 -4 15 -9 15 -5 0 -16 6 -23 13 -7 6 -25 18 -40
26 -15 8 -25 18 -22 23 3 4 -2 11 -10 14 -9 3 -16 11 -16 18 0 14 -38 39 -49
32 -9 -6 -50 35 -76 77 -9 15 -26 27 -36 27 -10 0 -25 13 -33 29 -13 25 -63
68 -71 59 -1 -2 -8 -14 -15 -27 -17 -34 -29 -10 -20 42 12 60 30 70 120 63 51
-4 93 -15 135 -34z m-495 18 c0 -13 -11 -13 -30 0 -12 8 -11 10 8 10 12 0 22
-4 22 -10z m688 -1 c65 -16 71 -25 26 -44 -52 -22 -90 -22 -114 0 -26 23 -25
34 3 45 30 12 31 12 85 -1z m507 -6 c55 -13 126 -51 273 -144 68 -43 146 -85
173 -94 61 -21 227 -17 255 5 16 13 17 13 9 0 -4 -8 -16 -24 -27 -36 -10 -12
-34 -53 -53 -93 -41 -86 -112 -164 -180 -199 -38 -19 -70 -27 -131 -30 -93 -5
-125 4 -359 96 -93 37 -159 57 -197 60 -32 2 -58 7 -58 11 0 4 -20 42 -46 86
l-45 80 22 15 c24 16 179 23 179 8 0 -4 12 -8 28 -8 15 0 43 -10 62 -22 35
-22 73 -42 213 -117 69 -36 85 -41 145 -41 141 1 269 46 362 131 53 47 41 43
-56 -22 -93 -62 -196 -94 -262 -80 -89 19 -159 39 -184 52 -14 8 -45 25 -69
38 -24 13 -57 33 -72 43 -88 63 -162 86 -291 93 -49 3 -78 -1 -100 -12 l-30
-15 -55 57 -55 58 99 29 c55 16 114 35 130 43 17 8 41 16 55 18 41 8 222 1
265 -10z m-2271 -8 c-4 -8 -8 -15 -10 -15 -2 0 -4 7 -4 15 0 8 4 15 10 15 5 0
7 -7 4 -15z m786 -15 c0 -13 -28 -25 -38 -16 -3 4 0 11 8 16 20 13 30 12 30 0z
m85 -10 c-3 -5 -10 -10 -16 -10 -5 0 -9 5 -9 10 0 6 7 10 16 10 8 0 12 -4 9
-10z m98 -4 c3 -8 0 -17 -7 -19 -10 -4 -12 1 -9 14 6 23 9 24 16 5z m217 10
c0 -3 -4 -8 -10 -11 -5 -3 -10 -1 -10 4 0 6 5 11 10 11 6 0 10 -2 10 -4z
m-449 -33 c30 -9 58 -16 62 -15 5 2 6 -2 2 -8 -3 -5 -23 -8 -44 -5 -44 6 -94
29 -84 38 8 9 0 10 64 -10z m-632 -19 c2 -2 2 -7 -2 -10 -3 -3 -16 2 -29 11
l-23 17 25 -7 c14 -4 27 -9 29 -11z m171 12 c0 -3 -4 -8 -10 -11 -5 -3 -10 -1
-10 4 0 6 5 11 10 11 6 0 10 -2 10 -4z m35 -16 c-3 -5 -10 -10 -16 -10 -5 0
-9 5 -9 10 0 6 7 10 16 10 8 0 12 -4 9 -10z m899 -25 c3 -8 1 -15 -4 -15 -6 0
-10 7 -10 15 0 8 2 15 4 15 2 0 6 -7 10 -15z m2626 -5 c-11 -20 -30 -28 -30
-12 0 11 22 32 32 32 5 0 4 -9 -2 -20z m-280 -15 c25 -13 41 -24 35 -24 -5 0
-30 11 -55 24 -25 13 -40 24 -35 24 6 0 30 -11 55 -24z m-3292 3 c-2 -9 10
-13 40 -12 31 1 42 -2 42 -13 0 -11 -8 -13 -27 -9 -120 23 -143 28 -143 32 0
3 16 4 34 3 19 -2 38 0 42 4 11 10 14 9 12 -5z m652 4 c0 -7 -69 -32 -90 -32
-5 0 -7 6 -4 14 3 8 20 14 40 14 20 0 38 3 41 6 8 8 13 8 13 -2z m370 -1 c0
-9 -111 -53 -118 -47 -3 4 96 54 111 55 4 1 7 -3 7 -8z m2572 -13 c-7 -7 -12
-8 -12 -2 0 14 12 26 19 19 2 -3 -1 -11 -7 -17z m-2672 0 c0 -11 -68 -10 -75
2 -4 6 10 9 34 8 23 -1 41 -5 41 -10z m-132 -11 c29 -7 53 -17 53 -22 1 -9
-100 -50 -143 -59 -13 -2 -50 -11 -83 -20 -69 -18 -252 -46 -292 -45 -25 0
-23 2 12 13 22 7 67 26 100 43 127 65 187 85 295 101 3 1 29 -4 58 -11z m-648
-7 c11 -7 7 -10 -17 -10 -18 0 -33 5 -33 10 0 13 30 13 50 0z m84 -1 c4 6 12
11 17 11 6 0 7 -5 3 -11 -3 -6 0 -15 7 -20 24 -14 5 -16 -46 -4 -47 11 -49 12
-25 22 16 7 27 7 31 1 4 -7 9 -6 13 1z m809 -10 c6 -21 2 -23 -44 -33 -35 -8
-76 -50 -90 -94 -6 -21 -18 -42 -26 -49 -9 -7 -13 -19 -10 -28 4 -9 1 -15 -7
-15 -8 0 -16 5 -18 11 -2 7 -30 4 -83 -10 -44 -11 -83 -17 -87 -13 -4 4 24 17
63 27 58 16 76 26 100 56 16 20 29 47 29 60 0 37 11 47 86 79 83 35 80 35 87
9z m2467 11 c0 -5 -2 -10 -4 -10 -3 0 -8 5 -11 10 -3 6 -1 10 4 10 6 0 11 -4
11 -10z m-2986 -21 c-30 -12 -37 -10 -24 5 6 8 19 12 27 9 14 -6 14 -8 -3 -14z
m2436 1 c19 -11 29 -19 22 -20 -14 0 -72 28 -72 35 0 9 15 4 50 -15z m343 -26
c-17 -26 -21 -28 -42 -15 -12 8 -13 14 -3 35 10 23 14 25 36 15 23 -11 24 -13
9 -35z m-2905 24 c-6 -17 -94 -22 -104 -7 -4 7 -3 10 2 7 5 -3 27 -2 49 2 58
11 57 11 53 -2z m49 -4 c-3 -3 -12 -4 -19 -1 -8 3 -5 6 6 6 11 1 17 -2 13 -5z
m3069 -10 c18 -15 18 -15 -11 -9 -37 8 -57 25 -29 25 11 0 29 -7 40 -16z
m-3056 -11 c0 -9 -131 -65 -137 -59 -9 9 63 55 92 59 17 2 33 5 38 6 4 0 7 -2
7 -6z m2516 -60 c116 -68 144 -101 37 -43 -62 33 -173 110 -159 110 4 0 59
-30 122 -67z m-1901 47 c3 -5 1 -10 -4 -10 -6 0 -11 5 -11 10 0 6 2 10 4 10 3
0 8 -4 11 -10z m1763 -10 c61 -32 71 -42 37 -34 -42 8 -21 -6 90 -62 169 -85
255 -138 252 -154 -1 -8 -12 -15 -23 -14 -24 0 -343 210 -351 230 -3 8 -13 14
-22 14 -9 0 -24 7 -34 14 -17 13 -14 18 11 25 1 1 19 -8 40 -19z m122 0 c44
-22 54 -25 45 -10 -4 6 14 1 38 -11 39 -19 43 -24 31 -36 -13 -13 -25 -9 -92
31 -79 47 -92 62 -22 26z m-2110 -13 c0 -29 -60 -85 -118 -111 -37 -17 -58
-18 -185 -13 -159 7 -336 31 -324 44 3 2 68 6 144 7 116 3 150 7 216 28 42 15
85 24 95 22 9 -2 46 7 82 20 82 31 90 31 90 3z m2538 0 c11 -8 11 -12 0 -18
-21 -14 -48 -10 -55 7 -3 9 0 20 8 24 13 9 22 6 47 -13z m-2191 -43 c-3 -3
-12 -4 -19 -1 -8 3 -5 6 6 6 11 1 17 -2 13 -5z m94 -11 c12 -15 12 -16 -3 -10
-9 3 -19 1 -22 -6 -2 -7 -5 -2 -5 11 -1 26 11 29 30 5z m1829 -13 c12 -8 11
-10 -7 -10 -13 0 -23 5 -23 10 0 13 11 13 30 0z m310 -24 c-13 -13 -35 7 -25
24 5 8 11 8 21 -1 10 -8 12 -15 4 -23z m-182 -32 c53 -35 63 -53 38 -73 -12
-10 -29 -4 -85 28 -39 22 -78 38 -85 35 -8 -3 -17 -1 -21 5 -3 7 0 8 9 5 10
-4 16 -1 16 7 0 7 7 21 16 30 19 21 22 19 112 -37z m-3003 10 c33 -5 37 -8 20
-14 -28 -12 -85 -12 -85 0 0 6 -9 6 -26 0 -30 -12 -81 -13 -70 -2 4 4 22 12
39 18 32 12 43 11 122 -2z m1140 -14 c3 -5 2 -10 -4 -10 -5 0 -13 5 -16 10 -3
6 -2 10 4 10 5 0 13 -4 16 -10z m-857 -18 c8 -6 -8 -14 -47 -25 -99 -28 -347
-159 -531 -282 -96 -64 -189 -130 -207 -146 -19 -16 -52 -38 -75 -50 -36 -18
-70 -33 -198 -86 -8 -4 11 17 42 46 64 59 148 161 166 204 7 16 49 73 95 128
45 55 95 118 111 141 43 60 80 72 206 66 58 -3 134 -2 170 2 93 10 253 11 268
2z m942 -12 c0 -5 -7 -7 -15 -4 -8 4 -15 8 -15 10 0 2 7 4 15 4 8 0 15 -4 15
-10z m-578 -22 c9 -7 18 -29 20 -48 3 -34 1 -36 -88 -90 -94 -56 -454 -345
-454 -363 0 -14 -31 -47 -43 -47 -6 0 -2 9 8 20 10 11 15 20 12 20 -3 0 11 33
33 73 21 39 48 96 60 126 41 104 152 228 260 290 45 25 66 31 116 31 33 0 67
-6 76 -12z m-302 -5 c-8 -2 -29 -11 -47 -19 -17 -8 -43 -14 -57 -14 -15 0 -29
-7 -32 -15 -7 -17 -24 -10 -24 9 0 16 84 44 135 44 22 0 33 -2 25 -5z m2740
-28 c-9 -11 -16 -13 -23 -6 -7 7 -6 15 3 26 9 11 16 13 23 6 7 -7 6 -15 -3
-26z m-2910 -12 c-1 -14 -27 -43 -39 -43 -6 0 -14 -7 -17 -15 -3 -8 -26 -17
-50 -21 -24 -3 -44 -10 -44 -14 0 -4 -13 -13 -30 -20 -16 -7 -30 -16 -30 -21
0 -5 -12 -12 -26 -15 -15 -4 -35 -15 -45 -25 -11 -11 -26 -19 -34 -19 -9 0
-40 -18 -69 -40 -29 -22 -58 -40 -64 -40 -7 0 -12 -6 -13 -12 0 -10 -2 -10 -6
0 -4 10 -8 10 -19 1 -8 -6 -11 -16 -7 -22 4 -6 0 -8 -10 -4 -12 5 -19 -1 -23
-18 -3 -14 -12 -25 -20 -25 -8 0 -14 -7 -14 -15 0 -8 -6 -15 -14 -15 -8 0 -27
-6 -43 -14 -103 -51 -171 -64 -84 -16 30 17 87 54 125 82 198 145 293 206 420
269 137 68 156 76 156 62z m170 -13 c0 -5 -2 -10 -4 -10 -3 0 -8 5 -11 10 -3
6 -1 10 4 10 6 0 11 -4 11 -10z m-80 -19 c0 -5 -7 -11 -14 -14 -10 -4 -13 -1
-9 9 6 15 23 19 23 5z m36 -18 c-4 -24 -26 -29 -26 -5 0 10 3 22 6 25 11 10
22 -2 20 -20z m388 -47 c4 -22 0 -48 -12 -77 -10 -24 -24 -65 -32 -92 -18 -65
-107 -148 -227 -210 -50 -26 -93 -44 -96 -40 -4 3 -28 -5 -54 -17 -116 -55
-152 -67 -215 -74 -37 -4 -75 -9 -85 -13 -30 -12 -3 16 35 36 20 11 109 83
197 161 88 78 196 167 239 198 124 89 230 162 237 162 4 0 10 -15 13 -34z
m-461 -46 c-15 -29 -33 -54 -40 -57 -16 -6 -19 -4 -27 22 -7 25 10 56 22 38 5
-8 12 -3 20 17 11 24 38 42 50 35 1 -1 -10 -26 -25 -55z m-153 0 c0 -5 -4 -10
-9 -10 -5 0 -16 -3 -25 -6 -9 -3 -16 -1 -16 4 0 9 16 17 43 21 4 0 7 -3 7 -9z
m731 -145 c1 -47 3 -53 8 -27 3 18 11 31 16 30 11 -3 7 -65 -6 -90 -5 -9 -9
-26 -9 -37 0 -11 -3 -22 -8 -25 -4 -2 -6 14 -5 37 1 23 0 33 -3 22 -36 -141
-76 -249 -48 -129 7 32 15 101 18 153 3 65 2 80 -3 46 l-8 -50 -1 52 c-1 28
-6 63 -12 78 -7 17 -7 24 0 20 6 -3 10 -1 10 5 0 6 11 3 25 -7 21 -15 25 -27
26 -78z m-621 64 c0 -31 -203 -178 -295 -213 -88 -34 -279 -75 -443 -96 -95
-12 -178 -20 -185 -17 -6 2 -25 -2 -40 -10 -16 -8 -35 -12 -42 -10 -7 3 -18 0
-24 -6 -9 -9 -11 -8 -6 3 8 23 94 53 111 39 10 -8 23 -8 48 1 19 6 66 12 103
13 37 1 71 7 75 12 4 6 11 10 15 10 4 1 24 6 43 12 19 6 50 11 69 12 18 1 42
6 52 12 11 5 19 7 19 3 0 -3 7 -1 15 6 8 6 18 9 23 6 10 -6 46 5 124 36 26 10
56 18 68 18 12 0 19 4 16 9 -3 4 13 14 34 21 22 7 40 19 40 27 0 7 6 13 14 13
8 0 21 6 28 13 12 13 56 40 68 43 22 5 39 18 34 25 -3 5 -2 14 1 19 8 14 35
13 35 -1z m-414 -97 c-6 -18 -44 -37 -54 -27 -8 7 20 35 34 35 8 0 14 5 14 12
0 6 3 9 6 5 3 -3 3 -14 0 -25z m-194 -114 c-7 -7 -12 -8 -12 -2 0 14 12 26 19
19 2 -3 -1 -11 -7 -17z"/>
<path d="M478 2343 c6 -2 18 -2 25 0 6 3 1 5 -13 5 -14 0 -19 -2 -12 -5z"/>
<path d="M3421 1686 c8 -8 180 -66 193 -65 6 0 -26 13 -72 29 -110 38 -128 44
-121 36z"/>
<path d="M3675 1600 c11 -5 27 -9 35 -9 9 0 8 4 -5 9 -11 5 -27 9 -35 9 -9 0
-8 -4 5 -9z"/>
<path d="M3731 1586 c2 -2 40 -14 84 -27 44 -13 86 -29 94 -36 7 -8 21 -11 30
-8 9 2 113 -22 230 -55 118 -33 217 -57 219 -55 6 6 1 8 -143 50 -129 38 -494
135 -509 135 -5 0 -7 -2 -5 -4z"/>
<path d="M4087 1319 c7 -7 15 -10 18 -7 3 3 -2 9 -12 12 -14 6 -15 5 -6 -5z"/>
<path d="M4250 1220 c8 -5 20 -10 25 -10 6 0 3 5 -5 10 -8 5 -19 10 -25 10 -5
0 -3 -5 5 -10z"/>
<path d="M4300 1200 c8 -5 20 -10 25 -10 6 0 3 5 -5 10 -8 5 -19 10 -25 10 -5
0 -3 -5 5 -10z"/>
<path d="M3870 1186 c0 -3 14 -12 30 -21 17 -9 30 -13 30 -11 0 3 -13 12 -30
21 -16 9 -30 13 -30 11z"/>
<path d="M4250 995 c0 -3 36 -23 80 -45 44 -22 80 -38 80 -35 0 3 -36 23 -80
45 -44 22 -80 38 -80 35z"/>
<path d="M4210 915 c14 -8 30 -14 35 -14 6 0 -1 6 -15 14 -14 8 -29 14 -35 14
-5 0 1 -6 15 -14z"/>
<path d="M2628 1543 c7 -3 16 -2 19 1 4 3 -2 6 -13 5 -11 0 -14 -3 -6 -6z"/>
<path d="M2578 1533 c6 -2 18 -2 25 0 6 3 1 5 -13 5 -14 0 -19 -2 -12 -5z"/>
</g>
</svg>
