<?xml version="1.0" standalone="no"?>
<!DOCTYPE svg PUBLIC "-//W3C//DTD SVG 20010904//EN"
 "http://www.w3.org/TR/2001/REC-SVG-20010904/DTD/svg10.dtd">
<svg version="1.0" xmlns="http://www.w3.org/2000/svg"
 width="479.000000pt" height="239.000000pt" viewBox="0 0 479.000000 239.000000"
 preserveAspectRatio="xMidYMid meet">

<g transform="translate(0.000000,239.000000) scale(0.100000,-0.100000)"
stroke="none">
<path d="M3175 2349 c-299 -58 -344 -72 -514 -162 -187 -98 -258 -161 -333
-297 l-47 -85 23 -20 c12 -11 31 -33 40 -48 21 -35 151 -120 225 -148 30 -11
122 -34 205 -51 83 -17 152 -32 154 -33 1 -1 -14 -35 -35 -76 -40 -78 -46
-122 -28 -219 l8 -45 -41 37 c-22 20 -53 43 -69 51 -54 28 -367 109 -440 114
-40 3 -73 10 -73 15 0 11 104 112 138 135 12 8 22 19 22 24 0 5 -26 38 -58 72
-32 35 -78 96 -102 135 -51 87 -113 144 -184 171 -29 11 -142 31 -257 46 -112
14 -251 36 -309 48 -87 18 -137 22 -290 21 -278 -1 -382 -23 -580 -125 -125
-65 -183 -108 -205 -155 -16 -35 -17 -51 -9 -169 6 -71 9 -131 9 -133 -1 -1
-18 5 -38 13 -81 34 -146 12 -246 -81 -123 -113 -167 -278 -115 -428 8 -21 14
-53 14 -71 0 -25 14 -52 57 -106 89 -117 135 -169 148 -169 6 0 34 -11 61 -25
35 -18 77 -28 149 -36 125 -13 307 -70 540 -169 213 -90 263 -103 374 -98 204
9 371 143 388 312 7 72 -9 116 -77 211 -31 44 -78 119 -104 166 l-46 86 42 7
c24 4 95 16 160 28 115 21 116 21 122 51 3 17 5 31 4 33 -2 1 -32 -4 -68 -12
-36 -8 -119 -17 -186 -20 l-121 -7 -31 45 c-17 25 -44 50 -59 55 -19 7 -82 4
-193 -7 -164 -17 -165 -17 -245 5 -141 39 -273 90 -261 102 3 4 -12 14 -34 24
-22 10 -43 25 -46 33 -5 14 6 65 26 111 5 11 14 42 20 70 13 56 29 82 40 65 4
-6 23 17 45 54 27 46 46 68 67 75 19 7 87 8 184 4 142 -6 187 -15 132 -26 -13
-3 14 -3 58 0 57 4 84 2 89 -6 5 -9 101 -12 368 -10 407 2 418 0 529 -75 114
-77 120 -94 61 -168 -21 -26 -47 -62 -58 -80 -20 -32 -23 -33 -110 -41 -50 -5
-100 -13 -113 -18 -26 -10 -72 -104 -77 -154 -4 -48 -25 -116 -34 -110 -13 8
-41 -158 -48 -282 -4 -71 -1 -134 6 -174 14 -68 52 -163 78 -191 9 -10 13 -21
10 -24 -3 -4 3 -24 13 -45 11 -21 20 -44 20 -51 0 -7 41 -53 90 -101 80 -78
102 -94 207 -144 109 -53 123 -57 189 -57 64 0 76 3 125 34 43 28 65 35 109
37 45 1 70 10 135 46 44 25 90 56 101 69 22 23 84 202 129 370 35 131 52 280
37 320 -6 18 -10 33 -8 35 2 2 26 -12 54 -31 60 -40 146 -74 208 -83 24 -3 44
-8 44 -12 0 -3 -19 -14 -43 -23 -54 -23 -155 -102 -169 -134 -9 -19 -9 -33 1
-60 12 -34 12 -37 -19 -69 -25 -26 -31 -40 -28 -66 3 -31 0 -35 -37 -49 -64
-24 -65 -25 -65 -103 0 -40 3 -81 6 -92 3 -13 35 -37 84 -63 101 -55 176 -64
265 -34 59 20 60 20 91 1 40 -24 116 -25 155 -2 l29 17 32 -38 32 -39 95 6
c53 4 143 11 201 17 124 13 159 8 202 -28 28 -24 42 -27 115 -31 66 -2 89 1
109 14 14 9 39 18 55 20 23 3 99 49 99 60 0 1 -21 -8 -47 -21 -73 -37 -95 -29
-50 20 27 29 177 112 177 97 0 -6 -14 -27 -32 -48 l-32 -38 43 41 c34 33 47
55 62 110 29 103 27 107 -49 188 -43 44 -75 88 -85 116 -21 55 -62 107 -116
144 -31 22 -58 30 -118 37 -43 4 -170 23 -283 41 l-205 32 65 19 c191 53 631
203 672 227 70 43 238 220 238 251 0 27 -95 121 -161 160 -118 68 -348 146
-484 164 -81 10 -80 8 -41 77 62 111 71 297 24 491 l-21 88 -46 20 c-105 48
-196 59 -475 58 -244 -1 -271 -3 -411 -30z m594 -20 c30 -5 82 -9 115 -9 87 0
124 -22 158 -90 36 -74 58 -173 58 -265 0 -75 -20 -142 -39 -130 -5 3 -21 -16
-36 -41 -15 -26 -42 -63 -60 -83 -31 -33 -37 -36 -80 -33 -46 4 -46 4 -28 24
17 20 17 20 -2 15 -68 -20 -112 -24 -173 -16 -36 5 -67 11 -69 12 -1 2 55 16
125 31 130 28 212 57 233 82 17 21 -4 18 -159 -20 -171 -42 -172 -43 -372 -61
-235 -21 -305 -19 -511 16 -123 21 -184 28 -191 21 -7 -7 2 -13 28 -17 22 -3
84 -18 139 -32 55 -14 138 -31 185 -37 l85 -12 -49 -22 c-27 -12 -69 -38 -92
-57 -25 -21 -53 -35 -69 -35 -40 0 -225 39 -249 53 -12 6 -51 19 -88 28 -37 9
-91 31 -121 49 -59 36 -147 112 -147 128 0 5 18 32 40 58 22 27 40 52 40 56 0
15 146 120 213 153 40 20 122 53 182 75 61 21 103 40 95 40 -8 1 3 8 25 16 22
8 45 12 53 9 8 -3 10 0 6 7 -5 7 0 9 14 6 12 -4 20 -2 17 2 -3 4 9 13 27 19
37 13 41 13 34 3 -3 -5 20 -2 50 5 30 8 124 27 207 42 158 28 283 31 406 10z
m-903 -114 c-11 -8 -25 -15 -30 -15 -6 1 0 7 14 15 32 19 40 18 16 0z m-120
-61 c-19 -13 -46 -19 -46 -9 0 8 55 34 60 28 3 -2 -4 -11 -14 -19z m-56 -19
c0 -7 -81 -47 -86 -42 -6 6 58 47 74 47 6 0 12 -2 12 -5z m-1276 -149 c14 -17
250 -62 405 -77 178 -17 310 -57 352 -105 23 -27 93 -164 87 -170 -3 -3 -41
19 -84 49 -44 30 -97 60 -119 68 -42 14 -152 16 -410 9 -141 -5 -156 -3 -246
22 -53 16 -149 37 -214 48 -159 27 -261 26 -437 -5 -24 -4 -28 -1 -28 19 0 23
22 51 32 40 3 -2 29 9 59 26 119 71 201 88 423 89 133 1 171 -2 180 -13z
m-249 -209 c7 -7 5 -8 -6 -4 -9 3 -38 9 -65 12 -62 9 -76 17 -44 25 25 7 96
-14 115 -33z m2187 -123 c16 -15 26 -15 94 -5 41 7 78 10 82 6 3 -3 -3 -8 -13
-11 -14 -4 -21 -15 -23 -40 -1 -19 2 -33 7 -30 5 3 11 -2 13 -12 4 -14 38 -24
179 -51 96 -18 219 -44 274 -57 64 -15 130 -24 184 -24 85 0 287 -35 370 -65
24 -8 46 -14 47 -12 11 11 -12 78 -30 90 -12 7 -125 25 -261 41 -531 61 -641
76 -672 92 -39 20 -47 38 -27 59 21 21 115 20 350 -4 238 -25 300 -39 504
-114 147 -55 170 -67 213 -109 51 -50 51 -51 23 -131 -28 -82 -140 -167 -297
-226 -57 -21 -126 -48 -152 -60 -53 -23 -71 -26 -62 -11 4 6 -24 10 -78 10
-69 0 -92 -4 -133 -25 -44 -22 -50 -23 -61 -9 -7 10 -13 12 -18 4 -5 -8 -10
-8 -20 0 -9 8 -20 8 -31 2 -9 -5 -37 -7 -61 -4 -24 3 -62 -1 -84 -8 -49 -16
-91 -9 -289 50 -149 45 -255 92 -270 119 -5 10 -48 51 -96 91 l-86 73 5 46 c3
25 15 75 27 111 17 55 29 72 72 107 28 24 53 41 55 40 1 -2 -6 -27 -17 -55
-26 -68 -25 -147 1 -217 30 -80 60 -111 161 -161 104 -52 222 -76 468 -93 80
-6 177 -17 216 -26 l70 -16 105 35 104 35 -145 -5 c-104 -4 -177 -1 -260 11
-63 9 -162 19 -220 24 -75 6 -123 16 -165 33 -100 42 -208 86 -243 99 -18 6
-39 24 -46 38 -19 35 -41 171 -33 201 6 25 89 132 106 138 6 2 7 -20 4 -52 -6
-55 -5 -56 20 -56 16 0 30 -8 37 -19 14 -27 113 -102 175 -134 70 -35 138 -53
290 -77 235 -36 411 -51 390 -31 -6 4 -122 30 -260 56 -266 51 -293 59 -397
123 -37 23 -74 39 -85 36 -20 -5 -70 55 -104 126 -22 45 -18 56 21 63 46 8 53
7 72 -9z m-1002 -113 c0 -5 -7 -11 -15 -15 -15 -5 -20 5 -8 17 9 10 23 9 23
-2z m-1867 -209 c50 -27 121 -66 157 -85 172 -94 514 -149 557 -91 10 14 16
15 25 6 7 -7 23 -12 38 -12 l25 1 -25 14 -25 13 28 7 c42 11 116 0 146 -22 16
-12 65 -96 131 -224 65 -127 111 -204 120 -204 35 0 60 -129 31 -158 -6 -6
-11 -20 -11 -30 0 -25 -83 -142 -116 -164 -28 -18 -107 -38 -206 -53 -68 -10
-97 -7 -213 26 -57 15 -123 58 -118 75 2 5 -3 6 -10 3 -17 -6 -120 52 -201
112 -89 67 -146 93 -244 110 -108 19 -174 38 -232 68 -107 54 -234 297 -247
470 -4 63 -2 75 18 105 34 49 73 74 127 82 93 14 146 4 245 -49z m1739 12 c21
-4 35 -10 32 -15 -3 -5 1 -6 9 -3 8 3 41 -1 73 -10 33 -8 83 -17 112 -21 28
-4 50 -10 47 -14 -2 -4 51 -24 117 -45 145 -45 226 -84 261 -126 15 -17 48
-70 73 -117 40 -73 47 -95 48 -144 0 -31 4 -55 8 -53 14 9 8 -21 -15 -81 -13
-33 -27 -58 -31 -55 -5 3 -22 -22 -38 -55 -42 -83 -52 -92 -126 -115 -97 -30
-106 -28 -136 31 -25 51 -35 91 -56 227 -8 50 -16 72 -26 72 -8 0 -14 10 -14
23 0 12 -5 29 -10 37 -8 12 -10 12 -10 -5 0 -15 -10 -9 -50 30 -58 58 -58 73
1 25 23 -18 40 -27 37 -19 -2 8 -33 33 -69 57 -35 24 -85 60 -112 80 -29 23
-56 36 -70 34 -17 -2 -47 22 -125 101 -56 57 -102 111 -102 120 0 15 17 22 95
40 31 7 37 7 77 1z m-119 -159 c98 -109 107 -122 101 -150 -5 -26 -2 -33 19
-42 16 -8 30 -30 45 -71 12 -32 22 -63 22 -68 0 -13 93 -102 150 -144 65 -48
126 -108 166 -162 29 -39 33 -51 25 -67 -14 -26 -14 -34 2 -25 7 4 9 3 4 -2
-5 -5 -12 -9 -15 -9 -4 -1 -23 -11 -42 -23 -54 -34 -129 -59 -190 -63 -114 -7
-217 -3 -265 10 -168 45 -190 70 -254 285 -60 202 -61 263 -7 391 21 50 52
125 67 169 35 94 37 98 52 93 7 -2 60 -57 120 -122z m207 -147 c0 -6 -7 -5
-15 2 -8 7 -15 17 -15 22 0 6 7 5 15 -2 8 -7 15 -17 15 -22z m100 -58 c0 -5
-2 -10 -4 -10 -3 0 -8 5 -11 10 -3 6 -1 10 4 10 6 0 11 -4 11 -10z m53 -129
c69 -73 123 -149 113 -158 -13 -14 -71 25 -128 86 -109 115 -156 180 -141 195
10 10 88 -51 156 -123z m1363 -57 c165 -23 215 -51 170 -93 -19 -18 -36 -22
-103 -24 -77 -2 -83 0 -174 45 -52 25 -113 51 -136 57 -44 12 -48 17 -34 39
16 25 63 30 112 11 25 -10 100 -25 165 -35z m-333 -30 c51 -9 38 -20 -54 -45
-41 -11 -116 -42 -168 -70 -97 -51 -121 -58 -121 -36 0 18 10 28 60 69 76 60
175 102 225 93 11 -2 37 -7 58 -11z m672 -21 c48 -16 133 -72 140 -92 11 -28
-12 -34 -61 -17 -66 22 -75 20 -32 -9 38 -25 168 -169 168 -185 0 -5 -12 -36
-26 -69 -19 -44 -32 -61 -45 -61 -13 0 -19 7 -19 23 -1 41 -27 97 -90 193 -59
89 -62 95 -46 113 15 17 14 18 -22 30 -27 9 -43 24 -59 51 -11 22 -18 41 -16
44 7 6 57 -3 108 -21z m-492 -42 c98 -66 131 -75 241 -67 l90 6 -29 -30 c-28
-29 -31 -30 -124 -30 -71 0 -106 5 -136 19 -52 23 -157 110 -149 122 3 5 10 7
15 4 5 -4 9 1 9 9 0 9 2 16 5 16 3 0 38 -22 78 -49z m690 13 c51 -26 106 -74
122 -105 29 -55 14 -53 -47 8 -35 34 -80 69 -100 78 -39 16 -51 35 -23 35 9 0
30 -7 48 -16z m-826 -11 c3 -7 -13 -14 -44 -18 -26 -3 -65 -8 -85 -10 -55 -7
-47 8 15 27 59 18 109 19 114 1z m867 -72 c21 -22 33 -41 28 -45 -17 -10 -59
14 -71 41 -25 55 -9 57 43 4z m-324 2 c0 -12 -33 -43 -47 -43 -7 0 -13 2 -13
4 0 2 -3 11 -6 19 -9 23 24 49 47 37 10 -6 19 -14 19 -17z m-670 7 c-8 -5 -22
-10 -30 -10 -13 0 -13 1 0 10 8 5 22 10 30 10 13 0 13 -1 0 -10z m165 -24 c16
-12 17 -16 6 -30 -7 -9 -21 -16 -30 -16 -26 0 -116 -56 -144 -90 -14 -17 -40
-57 -57 -89 -32 -60 -95 -130 -106 -118 -14 13 -30 124 -22 146 16 43 110 152
149 171 35 18 110 36 165 39 11 0 29 -5 39 -13z m755 -24 c0 -13 -12 -22 -22
-16 -10 6 -1 24 13 24 5 0 9 -4 9 -8z m-1082 -73 c-29 -39 -63 -75 -77 -81
-30 -11 -73 5 -65 24 3 10 172 121 191 127 2 1 -21 -31 -49 -70z m915 13 c39
-47 46 -64 66 -158 12 -57 19 -109 16 -114 -33 -54 -143 91 -160 212 -7 48 9
122 26 116 5 -2 28 -27 52 -56z m314 -8 c60 -29 193 -148 193 -173 0 -9 -6
-26 -14 -36 -13 -18 -15 -17 -29 17 -8 19 -30 47 -48 61 -31 23 -56 32 -141
51 -26 6 -88 80 -88 106 0 18 64 4 127 -26z m-824 12 c9 -7 17 -19 17 -25 0
-20 -152 -181 -195 -206 -22 -13 -68 -31 -102 -38 -34 -8 -66 -18 -72 -22 -24
-14 -8 20 36 78 80 105 155 179 208 203 57 27 82 29 108 10z m397 -42 c0 -43
-37 -58 -75 -30 -19 13 -18 15 15 46 32 30 35 31 47 14 7 -10 13 -23 13 -30z
m-291 7 c10 -6 -7 -23 -63 -65 -87 -64 -150 -143 -191 -239 -43 -101 -75 -103
-74 -4 l0 62 107 85 c58 47 119 104 135 128 28 42 55 52 86 33z m-887 -98
c-22 -27 -59 -66 -83 -88 -33 -31 -41 -36 -37 -19 5 20 3 21 -41 11 -25 -5
-65 -25 -89 -43 -24 -18 -49 -31 -56 -28 -7 3 -21 -14 -33 -40 -16 -33 -28
-44 -45 -45 -13 0 -84 -2 -158 -4 -74 -3 -138 -3 -142 -1 -3 2 -1 18 5 34 l11
30 88 0 c68 0 94 4 120 19 18 11 49 22 68 26 25 4 40 15 52 36 19 32 102 89
129 89 10 0 20 4 24 9 3 6 27 13 53 17 26 4 70 15 97 25 76 27 80 23 37 -28z
m972 40 c3 -4 -35 -29 -85 -56 -99 -54 -144 -102 -154 -166 -11 -74 -18 -85
-58 -94 -21 -5 -40 -7 -43 -4 -3 3 16 46 41 97 49 98 117 180 175 210 34 19
110 27 124 13z m161 -48 c28 -24 35 -35 25 -38 -8 -3 -45 -13 -82 -22 -75 -19
-148 -59 -233 -129 -31 -25 -60 -46 -65 -46 -17 0 -19 32 -5 66 30 72 51 90
147 128 51 20 109 45 128 56 19 11 37 19 40 19 3 0 23 -15 45 -34z m488 5 c67
-21 84 -36 105 -98 10 -29 9 -34 -14 -49 -23 -15 -31 -14 -129 12 -99 26 -118
36 -96 49 5 4 15 29 22 56 15 58 18 59 112 30z m-1304 -42 c18 -59 22 -96 12
-102 -13 -8 -107 12 -151 33 -68 32 -38 76 62 91 29 4 56 8 60 9 3 0 11 -14
17 -31z m-1104 -6 c-3 -3 -11 0 -18 7 -9 10 -8 11 6 5 10 -3 15 -9 12 -12z
m195 -16 c0 -11 -19 -15 -25 -6 -3 5 1 10 9 10 9 0 16 -2 16 -4z m1846 -47
c35 -29 13 -52 -116 -117 -186 -93 -214 -102 -279 -90 -29 6 -55 18 -58 25
-10 27 145 148 236 185 36 14 64 17 124 14 43 -2 85 -10 93 -17z m-2026 -3 c0
-11 -19 -15 -25 -6 -3 5 1 10 9 10 9 0 16 -2 16 -4z m1204 -88 c-3 -4 -24 -8
-48 -8 -35 0 -45 4 -54 24 l-10 23 58 -15 c32 -9 57 -20 54 -24z m1078 -6 c41
-27 56 -56 38 -76 -25 -31 -260 53 -260 93 0 24 2 24 52 11 29 -9 44 -8 65 4
30 15 37 13 105 -32z m-1782 23 c-7 -9 -15 -13 -17 -11 -7 7 7 26 19 26 6 0 6
-6 -2 -15z m575 -19 c75 -22 101 -26 155 -20 57 5 63 4 50 -9 -8 -8 -46 -22
-83 -31 l-68 -16 -92 38 c-62 26 -93 44 -95 57 -5 21 0 20 133 -19z m1375 -11
c0 -10 -65 -45 -82 -45 -28 0 -21 16 15 34 31 15 67 21 67 11z m-329 -60 c56
-25 117 -45 135 -45 44 0 43 -13 -2 -41 l-37 -22 -86 42 c-47 24 -106 54 -131
69 -44 25 -44 26 -20 33 14 4 28 7 32 8 4 1 53 -19 109 -44z"/>
<path d="M3500 2254 c-102 -12 -210 -23 -241 -23 -72 -1 -226 -41 -349 -91
-278 -112 -324 -139 -361 -212 -24 -48 -17 -62 14 -26 61 73 369 222 564 272
34 9 121 23 194 30 74 8 177 20 230 27 84 11 101 11 146 -4 67 -22 83 -21 83
2 0 25 -37 51 -70 50 -14 -1 -108 -12 -210 -25z"/>
<path d="M3868 2193 c6 -3 10 -9 6 -14 -3 -5 -80 -9 -172 -9 -92 0 -204 -4
-249 -10 -89 -10 -278 -63 -289 -82 -5 -7 1 -9 17 -5 180 45 291 59 439 58
152 -1 326 14 345 31 16 14 -7 25 -60 30 -27 3 -44 3 -37 1z"/>
<path d="M3880 1230 c12 -8 12 -10 -5 -10 -16 -1 -17 -2 -5 -9 8 -4 78 -13
155 -20 148 -12 211 -7 348 27 l72 17 -50 3 c-27 2 -90 -4 -141 -12 -113 -20
-200 -20 -279 -1 -72 17 -118 20 -95 5z"/>
<path d="M370 1236 c0 -9 8 -19 18 -22 9 -3 69 -28 132 -54 153 -64 267 -91
555 -130 105 -15 164 -34 253 -82 69 -37 92 -43 78 -20 -3 5 -38 29 -78 53
-40 24 -88 57 -106 73 -22 20 -36 25 -45 18 -8 -6 -47 -4 -117 8 -58 9 -147
22 -198 28 -69 8 -141 27 -270 72 -217 76 -222 77 -222 56z"/>
<path d="M1310 1150 c0 -6 23 -9 53 -9 44 1 48 2 22 9 -44 11 -75 11 -75 0z"/>
<path d="M290 925 c0 -4 6 -18 14 -34 16 -31 154 -101 360 -181 67 -27 156
-62 199 -79 96 -39 209 -54 332 -43 l90 7 -123 19 c-121 19 -165 35 -100 37
59 1 2 16 -124 33 -161 22 -224 44 -440 152 -177 89 -208 102 -208 89z m671
-293 c-7 -2 -18 1 -23 6 -8 8 -4 9 13 5 13 -4 18 -8 10 -11z"/>
<path d="M2360 1056 c0 -2 7 -7 16 -10 8 -3 12 -2 9 4 -6 10 -25 14 -25 6z"/>
</g>
</svg>
