<?xml version="1.0" standalone="no"?>
<!DOCTYPE svg PUBLIC "-//W3C//DTD SVG 20010904//EN"
 "http://www.w3.org/TR/2001/REC-SVG-20010904/DTD/svg10.dtd">
<svg version="1.0" xmlns="http://www.w3.org/2000/svg"
 width="470.000000pt" height="251.000000pt" viewBox="0 0 470.000000 251.000000"
 preserveAspectRatio="xMidYMid meet">

<g transform="translate(0.000000,251.000000) scale(0.100000,-0.100000)"
fill="#000000" stroke="none">
<path d="M850 2464 c-22 -20 -51 -61 -65 -91 -30 -63 -21 -61 -159 -24 -97 27
-126 20 -186 -45 -53 -57 -74 -106 -96 -216 -14 -72 -15 -99 -6 -154 10 -61
19 -79 77 -161 7 -10 6 -17 -5 -23 -37 -21 -191 -147 -249 -203 -162 -158
-187 -258 -99 -396 15 -24 39 -74 53 -111 28 -74 64 -115 110 -126 17 -3 45
-16 63 -26 50 -30 89 -36 297 -48 212 -11 388 -2 426 23 13 8 56 25 96 36 40
12 75 26 78 31 12 20 21 9 17 -19 -3 -23 4 -38 34 -71 45 -49 81 -70 126 -71
18 0 41 -4 51 -8 15 -5 10 -10 -23 -25 -45 -20 -95 -80 -105 -126 -12 -55 13
-141 54 -185 21 -22 54 -61 75 -87 49 -62 93 -82 164 -75 61 6 162 51 162 72
0 7 11 27 25 43 14 17 25 34 25 40 0 5 9 12 21 15 16 4 19 2 14 -11 -68 -161
-58 -203 70 -285 45 -29 56 -32 130 -32 92 0 145 22 205 84 35 36 35 37 34
124 0 84 0 87 20 81 29 -9 31 -13 18 -26 -17 -17 -15 -116 3 -170 18 -52 81
-122 128 -141 61 -26 106 -29 182 -12 122 28 175 87 175 198 0 82 32 117 45
50 23 -131 63 -196 154 -255 65 -41 114 -38 221 13 74 35 88 46 105 82 18 36
24 41 60 44 110 10 161 46 225 159 18 32 34 60 35 62 1 1 22 -7 46 -18 81 -36
152 -22 227 45 54 49 92 114 92 158 0 39 -43 119 -80 150 -17 15 -47 29 -68
32 -72 11 -87 19 -90 48 -2 19 1 27 12 27 49 0 320 -75 382 -105 l71 -35 48
17 c97 35 190 161 291 392 85 196 124 308 124 356 0 59 -39 186 -82 267 -57
107 -115 160 -204 188 -60 18 -974 177 -1124 195 -30 3 -154 24 -275 45 -121
22 -265 46 -320 54 -155 23 -620 84 -720 95 -49 6 -151 22 -225 36 -74 14
-223 41 -330 60 -107 20 -255 49 -328 65 -172 39 -183 38 -232 -6z m138 -19
c35 -8 134 -26 220 -40 86 -14 243 -43 347 -64 105 -22 287 -53 405 -70 118
-17 285 -44 370 -60 85 -16 198 -34 250 -41 52 -6 183 -27 290 -46 428 -77
710 -123 723 -118 8 3 129 -15 268 -40 140 -25 292 -50 337 -57 l84 -12 -49
-42 c-56 -49 -96 -116 -118 -201 -19 -71 -22 -251 -5 -313 6 -23 9 -45 7 -48
-3 -2 -58 9 -123 26 -79 21 -146 47 -203 78 -47 25 -126 61 -176 81 -248 95
-323 121 -351 122 -47 0 -262 69 -321 102 -36 20 -73 32 -113 35 -33 3 -60 10
-60 14 0 5 -8 9 -17 9 -10 0 -38 10 -63 22 -25 11 -79 31 -120 43 -41 13 -95
30 -120 39 -64 22 -222 65 -412 111 -35 9 -106 29 -158 46 -52 16 -138 37
-190 45 -52 9 -151 29 -220 46 -207 50 -644 178 -659 193 -13 12 -12 19 5 51
24 46 77 104 95 104 8 0 42 -7 77 -15z m-278 -160 c90 -33 449 -144 615 -190
342 -95 544 -155 700 -211 328 -115 595 -203 759 -249 93 -26 188 -55 212 -66
25 -10 126 -41 227 -68 100 -27 295 -86 432 -131 138 -45 297 -92 355 -104
101 -20 105 -22 108 -48 2 -15 -9 -63 -24 -105 -24 -71 -26 -88 -21 -180 5
-102 5 -103 -18 -103 -32 0 -117 17 -208 42 l-79 21 5 36 c8 69 -52 140 -127
148 -78 9 -133 -4 -171 -43 -34 -34 -59 -47 -35 -19 8 9 8 15 2 15 -6 0 -18
23 -28 52 -22 66 -96 141 -159 159 -24 7 -43 15 -43 18 2 19 -4 24 -11 12 -12
-19 -169 -18 -186 1 -7 7 -17 33 -24 58 -26 93 -107 190 -159 190 -48 0 -246
-53 -268 -72 -11 -10 -26 -18 -33 -18 -7 0 -10 -4 -6 -9 3 -6 -7 -33 -22 -60
-24 -44 -32 -51 -59 -51 -36 0 -48 12 -58 55 -4 17 -21 53 -37 81 -24 43 -37
54 -74 66 -24 8 -42 12 -40 8 5 -9 -44 -20 -87 -20 -52 0 -93 -27 -123 -81
-25 -47 -29 -50 -58 -44 -18 4 -41 15 -52 25 -37 33 -66 41 -133 39 -74 -2
-181 25 -226 57 -15 10 -38 40 -51 65 -32 62 -91 111 -200 165 -49 25 -91 47
-92 48 -2 1 23 1 55 -1 99 -6 21 17 -93 28 -55 5 -120 13 -145 18 -25 6 -91
13 -148 17 -103 7 -104 7 -160 51 -45 35 -63 43 -98 43 -36 0 -46 5 -66 31
-13 17 -40 50 -61 74 -50 56 -57 86 -40 158 16 73 28 96 56 108 31 13 143 4
197 -16z m-70 -395 c0 -5 -5 -10 -11 -10 -5 0 -7 5 -4 10 3 6 8 10 11 10 2 0
4 -4 4 -10z m1800 -41 c0 -6 -4 -7 -10 -4 -5 3 -10 11 -10 16 0 6 5 7 10 4 6
-3 10 -11 10 -16z m2028 -17 c87 -40 150 -179 159 -352 6 -117 -6 -170 -81
-344 -63 -145 -107 -216 -191 -305 -56 -59 -65 -64 -110 -68 -46 -4 -52 -2
-81 29 -58 62 -78 153 -53 243 15 54 50 135 58 135 4 0 3 -27 -3 -61 -8 -49
-7 -78 7 -147 22 -106 40 -127 105 -118 97 13 133 54 223 255 58 131 99 280
99 358 -1 55 -37 210 -58 247 -22 39 -94 76 -146 76 -34 0 -46 -6 -86 -48 -55
-58 -86 -118 -101 -197 -11 -63 -9 -86 18 -178 13 -46 24 -62 46 -74 47 -24
70 -10 116 67 50 84 59 132 54 272 -3 78 -1 99 7 86 17 -27 39 -317 29 -371
-18 -97 -74 -167 -150 -187 -56 -15 -89 10 -133 103 -69 145 -70 276 -5 432
60 146 162 200 277 147z m-3478 -48 c121 -30 319 -90 327 -98 17 -16 -15 -11
-172 29 -178 47 -296 57 -390 35 -25 -6 -42 -5 -46 1 -3 6 -42 -5 -95 -27 -66
-27 -99 -47 -129 -79 -22 -23 -62 -58 -90 -76 -38 -25 -45 -34 -32 -37 10 -2
59 23 110 57 91 60 160 91 201 91 17 0 18 2 6 10 -8 5 -12 10 -8 10 3 0 42 7
85 15 43 8 104 15 137 15 59 0 258 -40 331 -67 22 -8 70 -18 107 -22 38 -5 79
-16 93 -25 30 -20 95 -145 95 -183 0 -53 -21 -102 -64 -150 -24 -26 -46 -58
-50 -70 -14 -44 -108 -123 -201 -168 -182 -89 -389 -131 -604 -122 -145 5
-211 19 -211 42 0 9 -10 15 -22 15 -13 0 -32 7 -42 15 -11 8 -30 15 -42 15
-34 0 -48 24 -25 44 18 16 22 16 70 -9 96 -48 160 -58 331 -52 179 8 263 22
375 67 80 31 210 99 203 105 -2 2 -64 -21 -138 -50 -183 -73 -235 -86 -375
-92 -110 -4 -129 -2 -235 25 -63 17 -124 33 -135 37 -11 3 -8 -1 8 -10 15 -8
27 -17 27 -19 0 -5 -86 21 -100 29 -4 3 1 37 12 76 18 65 18 73 4 104 -9 18
-16 39 -16 47 0 7 -14 42 -31 78 -21 44 -28 72 -24 90 6 24 6 24 -9 5 -12 -17
-18 -18 -35 -8 -11 7 -27 10 -36 7 -9 -4 -15 -1 -15 7 1 19 103 109 170 150
30 18 71 46 90 62 63 55 164 88 335 110 55 7 159 -4 255 -29z m1313 -323 c33
-29 71 -97 62 -111 -3 -4 -1 -20 5 -34 9 -24 7 -26 -18 -26 -28 0 -68 -25
-108 -66 -25 -25 -95 -35 -168 -26 -45 6 -50 10 -61 41 -8 25 -8 48 1 90 24
114 49 139 159 156 81 13 90 11 128 -24z m571 14 c23 -15 106 -188 106 -221 0
-27 -39 -91 -71 -118 -88 -74 -176 -93 -259 -55 -106 48 -143 99 -143 194 0
108 35 149 148 170 43 9 92 24 109 35 34 23 70 21 110 -5z m-2681 -45 c14 -12
41 -51 59 -88 57 -115 41 -234 -39 -283 -42 -26 -81 -18 -99 21 -25 54 -57
172 -56 207 2 55 30 141 50 152 27 16 57 13 85 -9z m1617 -19 c0 -4 13 -6 29
-3 64 9 114 -44 140 -151 13 -53 9 -67 -19 -67 -26 0 -72 -21 -87 -40 -10 -13
-15 -13 -42 3 -35 20 -81 18 -128 -6 -18 -10 -36 -17 -42 -17 -18 0 -41 31
-41 57 0 23 64 156 93 194 26 34 97 56 97 30z m-168 -12 c45 -11 46 -12 33
-33 -24 -37 -65 -157 -65 -191 0 -34 -12 -50 -45 -58 -15 -3 -12 -5 9 -6 16 0
54 -10 85 -21 l56 -21 0 -64 c0 -51 4 -68 21 -87 12 -13 24 -42 27 -64 5 -39
2 -45 -43 -89 l-48 -47 -32 23 c-25 19 -48 25 -113 29 -78 5 -82 6 -96 34 -35
75 12 243 82 287 25 16 27 19 8 14 -12 -4 -39 -18 -58 -31 -20 -13 -43 -24
-52 -24 -9 0 -27 -3 -41 -7 -19 -5 -9 10 47 66 82 83 124 158 130 234 6 70 10
79 30 73 10 -3 39 -10 65 -17z m848 -173 c0 -43 -1 -44 -37 -51 -21 -3 -49
-13 -61 -22 -13 -8 -26 -13 -28 -11 -6 6 39 112 51 120 6 4 25 8 43 8 31 0 32
-1 32 -44z m649 -31 c40 -29 54 -34 92 -31 24 2 52 7 61 10 27 12 56 -11 84
-66 21 -42 25 -61 21 -102 -4 -45 -10 -55 -52 -93 -46 -42 -77 -53 -90 -33 -4
6 -10 8 -15 5 -4 -2 -39 11 -76 31 -64 33 -74 36 -131 30 -62 -5 -63 -5 -79
26 -32 61 20 217 80 244 45 19 53 18 105 -21z m-791 -3 c9 -7 6 -15 -13 -36
-31 -34 -42 -28 -25 14 13 32 18 34 38 22z m-318 -37 c31 -20 40 -32 40 -53 0
-39 24 -68 73 -90 36 -16 45 -26 55 -60 9 -29 10 -48 3 -61 -19 -34 -70 -69
-112 -76 -36 -6 -44 -4 -72 21 -19 18 -24 20 -13 7 24 -28 11 -29 -29 -3 -37
24 -83 25 -131 3 -34 -17 -36 -17 -49 1 -8 10 -17 46 -20 81 -8 70 5 104 59
164 23 25 134 91 154 91 1 0 20 -11 42 -25z m130 -82 c0 -19 -16 -23 -35 -9
-22 16 -28 48 -12 58 13 8 46 -28 47 -49z m423 10 c33 -15 57 -33 57 -42 0
-12 3 -12 12 -3 17 17 26 15 38 -9 18 -33 20 -91 4 -126 -19 -38 -136 -153
-157 -153 -8 0 -34 23 -57 50 -35 42 -47 50 -75 50 -19 0 -45 -4 -59 -10 -38
-14 -60 23 -57 98 4 119 19 142 111 168 58 17 110 10 183 -23z m1114 -46 c38
-26 53 -55 53 -107 0 -34 -4 -40 -37 -57 -31 -15 -42 -29 -61 -78 -35 -88 -36
-89 -72 -101 -21 -7 -28 -13 -19 -16 24 -9 0 -23 -39 -23 -39 0 -112 46 -112
70 0 7 -7 18 -15 25 -9 7 -14 19 -11 27 3 7 1 13 -4 13 -37 0 45 182 100 222
38 27 132 58 160 51 14 -3 39 -15 57 -26z m-831 -7 c1 -28 0 -29 -25 -16 -14
7 -33 16 -41 18 -11 4 -8 8 10 16 43 18 55 14 56 -18z m-620 -17 c-3 -21 -6
-47 -6 -57 0 -28 -15 -9 -30 36 -13 43 -8 58 22 58 18 0 20 -4 14 -37z m-846
-2 c-5 -11 -10 -54 -10 -96 l0 -77 -37 6 c-54 10 -117 56 -121 88 -3 22 4 32
37 54 38 25 83 41 124 43 14 1 16 -2 7 -18z m354 -16 c7 -27 1 -45 -15 -45 -5
0 -9 16 -9 35 0 41 15 47 24 10z m1071 -85 c10 -11 13 -20 7 -20 -7 0 -12 -6
-13 -12 0 -14 -57 -63 -65 -56 -2 3 -1 19 2 37 5 26 10 30 27 25 17 -5 19 -3
15 20 -6 31 2 33 27 6z m327 -17 c57 -31 80 -52 73 -70 -2 -6 7 -19 21 -27 34
-23 30 -50 -17 -123 -36 -55 -47 -65 -90 -77 -86 -26 -134 -29 -191 -12 -100
29 -178 110 -178 185 0 34 15 42 66 34 34 -6 36 -4 29 16 -4 12 -2 21 4 21 6
0 11 6 11 14 0 7 26 25 58 39 78 36 145 36 214 0z m-1182 -79 c0 -18 -77 -41
-91 -27 -8 8 -6 17 7 31 33 34 84 32 84 -4z m1744 -39 c-15 -20 -29 -33 -32
-31 -9 10 8 52 30 76 19 21 23 22 26 7 2 -9 -9 -33 -24 -52z m-1257 13 c30
-47 55 -149 47 -188 -22 -98 -32 -115 -99 -153 -35 -20 -75 -37 -88 -37 -40 0
-126 50 -152 88 -26 38 -30 74 -18 146 4 27 12 40 25 44 14 3 16 7 7 13 -9 5
-3 15 21 35 31 26 70 51 88 55 23 5 51 19 57 28 3 6 24 11 45 11 36 0 43 -4
67 -42z m-572 -12 c28 0 70 4 95 8 41 6 48 4 77 -22 18 -16 41 -36 51 -43 16
-12 17 -25 12 -99 l-5 -85 -42 3 c-67 6 -150 -16 -187 -49 -38 -33 -55 -35
-95 -14 -100 51 -131 199 -58 281 28 33 34 35 66 28 20 -4 59 -7 86 -8z m285
4 c0 -5 -5 -10 -11 -10 -5 0 -7 5 -4 10 3 6 8 10 11 10 2 0 4 -4 4 -10z m580
-50 c7 -27 21 -62 32 -76 l21 -26 -41 21 c-46 24 -109 27 -178 10 -49 -13 -58
-10 -48 14 6 17 43 31 104 41 22 4 44 17 60 36 14 17 28 30 31 30 4 0 12 -22
19 -50z m611 23 c6 -16 17 -36 26 -45 8 -9 12 -22 8 -27 -3 -6 1 -11 9 -11 19
0 21 -11 4 -28 -15 -15 -32 -16 -23 -2 3 6 1 10 -5 10 -6 0 -8 5 -4 11 4 7 3
10 -2 8 -5 -2 -30 -12 -57 -23 -26 -10 -47 -23 -47 -27 0 -5 -4 -9 -9 -9 -6 0
-3 17 6 38 9 20 19 53 23 72 3 19 11 34 18 33 6 -2 9 4 6 12 -4 10 0 15 15 15
14 0 25 -9 32 -27z m-1729 -73 c82 -195 108 -261 108 -276 0 -8 -13 -28 -28
-44 -45 -45 -126 -49 -262 -14 -11 3 -15 19 -16 59 0 54 -2 57 -59 115 -58 58
-59 61 -48 91 7 18 10 37 6 43 -3 6 -3 8 2 4 4 -4 16 4 27 18 37 47 108 74
188 71 l54 -2 28 -65z m2254 51 c31 -19 69 -79 85 -135 20 -69 -73 -149 -187
-161 -35 -3 -82 0 -114 7 l-55 13 -19 76 c-21 80 -16 130 8 97 10 -14 14 -13
28 13 10 16 30 35 45 42 15 6 36 20 45 30 10 9 23 17 29 17 5 0 7 5 4 10 -12
19 98 11 131 -9z m-1221 -91 c-3 -4 10 -4 28 2 30 9 39 7 75 -17 47 -31 53
-44 44 -102 -6 -34 -15 -47 -48 -72 l-42 -29 -36 33 c-32 29 -44 33 -105 37
-39 2 -72 6 -75 9 -4 4 5 38 30 111 6 16 34 28 99 40 24 5 37 0 30 -12z m882
-37 c0 -10 4 -33 8 -52 6 -25 5 -32 -4 -27 -6 4 -9 11 -6 16 3 5 -11 14 -30
20 -19 6 -35 17 -35 24 0 34 65 52 67 19z m-194 -29 c-17 -7 -34 -18 -38 -24
-7 -12 -25 -14 -25 -2 0 12 53 42 75 41 15 0 12 -4 -12 -15z m71 -33 c3 -4 -1
-17 -9 -27 -14 -18 -14 -18 -15 9 0 26 13 36 24 18z m-1354 -30 c0 -14 -25
-31 -57 -37 -39 -8 -50 10 -21 30 24 17 78 22 78 7z m890 3 c0 -8 -19 -13 -24
-6 -3 5 1 9 9 9 8 0 15 -2 15 -3z m604 -31 c32 -27 36 -35 36 -73 0 -40 -49
-121 -92 -153 -33 -24 -118 -47 -137 -37 -8 4 -25 33 -38 64 -18 45 -21 61
-13 77 6 11 8 34 5 51 -5 21 -4 28 4 24 6 -4 9 -12 6 -17 -4 -5 -1 -9 5 -9 7
0 9 7 6 16 -20 51 -18 59 14 58 16 0 33 -4 38 -9 4 -5 1 -5 -5 -1 -7 4 -13 3
-13 -3 0 -5 -8 -12 -17 -14 -17 -4 -17 -5 0 -6 9 0 27 9 40 22 12 12 25 21 30
20 4 -2 7 3 7 11 0 19 96 3 124 -21z m-2224 13 c0 -3 -4 -8 -10 -11 -5 -3 -10
-1 -10 4 0 6 5 11 10 11 6 0 10 -2 10 -4z m832 -62 c59 -65 74 -103 63 -157
-10 -44 -20 -54 -87 -88 -71 -36 -168 -40 -235 -10 -30 14 -43 16 -46 8 -2 -7
-18 2 -37 21 -32 32 -33 35 -26 94 3 33 12 66 20 72 7 6 28 33 45 59 32 47 33
47 49 27 15 -17 24 -20 64 -14 26 4 62 17 80 30 18 13 38 22 43 21 6 -1 36
-30 67 -63z m-232 40 c0 -8 -4 -12 -10 -9 -5 3 -10 10 -10 16 0 5 5 9 10 9 6
0 10 -7 10 -16z m1163 -41 c29 -31 67 -62 86 -70 51 -22 108 -84 117 -128 11
-59 -14 -97 -82 -131 -83 -41 -166 -39 -251 4 -48 25 -67 41 -83 71 -11 22
-17 46 -14 54 3 8 1 18 -5 22 -6 3 -11 29 -11 56 0 47 3 53 52 101 48 47 96
77 126 78 8 0 37 -25 65 -57z m-1693 -17 c0 -6 -7 -2 -15 8 -8 11 -15 25 -15
30 0 6 7 2 15 -8 8 -11 15 -25 15 -30z m1261 21 c40 -26 79 -98 79 -145 0 -18
3 -31 8 -29 12 8 12 -46 0 -76 -13 -34 -97 -79 -180 -96 -48 -10 -66 -10 -115
4 -83 24 -85 26 -120 94 -35 67 -36 89 -4 144 17 31 145 112 173 110 10 -1 20
2 23 8 12 19 101 10 136 -14z m538 -29 c14 -19 5 -23 -18 -9 -7 5 -10 14 -6
21 4 6 8 10 9 8 1 -2 8 -11 15 -20z"/>
<path d="M1190 2322 c0 -28 62 -54 75 -32 10 16 43 12 54 -7 9 -17 53 -27 233
-51 31 -5 63 -14 71 -20 17 -15 158 -50 366 -92 85 -17 162 -35 172 -41 23
-12 195 -50 232 -51 15 -1 27 -5 27 -9 0 -5 9 -9 20 -9 21 0 35 -3 212 -45
109 -25 147 -31 134 -18 -9 10 -157 52 -182 53 -12 0 -43 9 -68 21 -26 11 -61
19 -79 18 -18 -2 -43 4 -57 13 -14 9 -43 20 -65 24 -22 3 -53 13 -69 21 -15 8
-119 30 -230 49 -110 19 -237 46 -281 60 -135 42 -178 53 -240 59 -33 4 -113
20 -177 36 -124 31 -148 34 -148 21z m1015 -232 c3 -5 -1 -10 -9 -10 -9 0 -16
5 -16 10 0 6 4 10 9 10 6 0 13 -4 16 -10z m165 -40 c0 -5 -4 -10 -9 -10 -6 0
-13 5 -16 10 -3 6 1 10 9 10 9 0 16 -4 16 -10z"/>
<path d="M2825 1941 c11 -5 40 -11 65 -14 l45 -6 -40 14 c-45 15 -106 20 -70
6z"/>
<path d="M3400 1930 c0 -5 4 -10 9 -10 6 0 13 5 16 10 3 6 -1 10 -9 10 -9 0
-16 -4 -16 -10z"/>
<path d="M3620 1870 c0 -5 5 -10 11 -10 5 0 7 5 4 10 -3 6 -8 10 -11 10 -2 0
-4 -4 -4 -10z"/>
<path d="M3730 1840 c0 -5 5 -10 11 -10 5 0 7 5 4 10 -3 6 -8 10 -11 10 -2 0
-4 -4 -4 -10z"/>
<path d="M3965 1790 c-3 -5 -1 -10 4 -10 6 0 11 5 11 10 0 6 -2 10 -4 10 -3 0
-8 -4 -11 -10z"/>
<path d="M800 2119 c0 -4 16 -9 35 -11 19 -2 35 -1 35 3 0 4 -16 9 -35 11 -19
2 -35 1 -35 -3z"/>
<path d="M886 2091 c-18 -7 -19 -8 -2 -14 10 -4 24 -3 31 3 7 6 21 7 30 3 13
-4 16 -3 11 5 -8 13 -41 15 -70 3z"/>
<path d="M985 2070 c3 -5 15 -10 26 -10 11 0 17 5 14 10 -3 6 -15 10 -26 10
-11 0 -17 -4 -14 -10z"/>
<path d="M1090 2054 c0 -8 5 -12 10 -9 6 4 8 11 5 16 -9 14 -15 11 -15 -7z"/>
<path d="M1560 1730 c8 -5 20 -10 25 -10 6 0 3 5 -5 10 -8 5 -19 10 -25 10 -5
0 -3 -5 5 -10z"/>
<path d="M1620 1701 c0 -13 28 -33 41 -29 6 2 0 12 -15 21 -14 10 -26 13 -26
8z"/>
<path d="M1758 1663 c6 -2 18 -2 25 0 6 3 1 5 -13 5 -14 0 -19 -2 -12 -5z"/>
<path d="M1977 1609 c7 -7 15 -10 18 -7 3 3 -2 9 -12 12 -14 6 -15 5 -6 -5z"/>
<path d="M2351 1476 c2 -2 22 -6 44 -9 28 -5 34 -4 20 3 -19 8 -73 14 -64 6z"/>
<path d="M3005 1320 c3 -5 8 -10 11 -10 2 0 4 5 4 10 0 6 -5 10 -11 10 -5 0
-7 -4 -4 -10z"/>
<path d="M823 1693 c9 -2 23 -2 30 0 6 3 -1 5 -18 5 -16 0 -22 -2 -12 -5z"/>
<path d="M660 1611 c-88 -29 -184 -73 -195 -90 -3 -6 9 -4 27 3 18 7 38 12 44
9 7 -2 48 5 92 17 84 21 111 25 77 10 -13 -5 23 -9 99 -9 89 -1 123 3 135 13
14 12 41 11 201 -10 194 -25 247 -29 195 -14 -46 14 -538 100 -566 100 -13 -1
-62 -13 -109 -29z"/>
<path d="M545 1446 c-17 -7 -37 -21 -45 -31 -14 -17 -13 -18 5 -11 58 24 113
28 300 22 236 -7 363 -20 465 -47 83 -22 136 -19 172 12 23 18 22 18 -81 19
-57 0 -128 7 -160 15 -131 34 -593 49 -656 21z"/>
<path d="M1476 1343 c-6 -14 -5 -15 5 -6 7 7 10 15 7 18 -3 3 -9 -2 -12 -12z"/>
<path d="M970 1224 c-164 -46 -361 -53 -500 -18 -22 6 -23 5 -10 -9 16 -17
252 -53 271 -41 6 3 83 20 172 38 94 18 162 36 165 44 5 15 7 15 -98 -14z"/>
<path d="M2675 1339 c-4 -6 -5 -12 -2 -15 2 -3 7 2 10 11 7 17 1 20 -8 4z"/>
<path d="M2720 1304 c-18 -21 -29 -43 -26 -51 3 -8 6 -21 6 -28 0 -7 18 -27
39 -45 52 -41 82 -34 111 24 26 55 25 82 -5 111 -38 38 -85 34 -125 -11z m16
-41 c-10 -10 -19 5 -10 18 6 11 8 11 12 0 2 -7 1 -15 -2 -18z m64 18 c0 -13
-29 -35 -37 -28 -7 8 15 37 28 37 5 0 9 -4 9 -9z m30 -20 c0 -25 -25 -45 -46
-37 -15 6 -14 9 6 31 28 30 40 32 40 6z m-86 -46 c3 -8 1 -15 -4 -15 -6 0 -10
7 -10 15 0 8 2 15 4 15 2 0 6 -7 10 -15z m36 -16 c0 -6 -4 -7 -10 -4 -5 3 -10
11 -10 16 0 6 5 7 10 4 6 -3 10 -11 10 -16z"/>
<path d="M99 1383 c-22 -57 -22 -135 0 -191 12 -29 21 -63 21 -75 0 -27 18
-47 39 -46 9 0 36 23 60 51 42 50 43 53 38 108 -8 97 -63 180 -117 180 -24 0
-33 -6 -41 -27z"/>
<path d="M2585 1060 c9 -15 45 -32 45 -22 0 5 -12 14 -26 20 -14 7 -23 8 -19
2z"/>
<path d="M3518 673 c7 -3 16 -2 19 1 4 3 -2 6 -13 5 -11 0 -14 -3 -6 -6z"/>
<path d="M3790 626 c-28 -10 -36 -19 -38 -43 -3 -26 4 -37 41 -67 55 -45 81
-47 96 -5 9 25 7 38 -12 77 -25 52 -36 57 -87 38z m73 -84 c7 -36 0 -44 -24
-31 -26 14 -34 36 -19 54 16 19 37 9 43 -23z"/>
<path d="M3441 480 c-10 -5 -9 -8 2 -13 7 -3 19 -2 26 3 10 5 9 8 -2 13 -7 3
-19 2 -26 -3z"/>
<path d="M2416 279 c-25 -23 -26 -25 -11 -46 24 -35 102 -65 147 -58 36 7 38
8 38 46 0 37 -3 41 -37 56 -67 28 -106 28 -137 2z m156 -54 c16 -22 -12 -27
-54 -10 -63 25 -77 51 -30 57 25 3 63 -18 84 -47z"/>
<path d="M1049 837 c-105 -24 -143 -69 -143 -172 -1 -113 57 -176 159 -174 82
2 145 21 168 51 42 56 29 213 -21 269 -33 36 -81 44 -163 26z m146 -44 c41
-42 48 -95 16 -134 -13 -17 -17 -33 -14 -60 5 -34 3 -36 -27 -43 -40 -8 -123
-8 -171 0 -64 11 -97 101 -66 177 20 46 38 57 124 77 104 24 97 25 138 -17z"/>
</g>
</svg>
