<?xml version="1.0" standalone="no"?>
<!DOCTYPE svg PUBLIC "-//W3C//DTD SVG 20010904//EN"
 "http://www.w3.org/TR/2001/REC-SVG-20010904/DTD/svg10.dtd">
<svg version="1.0" xmlns="http://www.w3.org/2000/svg"
 width="527.000000pt" height="283.000000pt" viewBox="0 0 527.000000 283.000000"
 preserveAspectRatio="xMidYMid meet">

<g transform="translate(0.000000,283.000000) scale(0.100000,-0.100000)"
fill="#000000" stroke="none">
<path d="M3138 2768 c-83 -78 -101 -141 -104 -358 -3 -273 -14 -431 -30 -437
-8 -3 -62 13 -121 35 -60 22 -162 56 -228 76 -66 20 -137 44 -157 53 -64 27
-198 2 -206 -39 -6 -32 62 -87 198 -159 74 -39 169 -95 210 -123 112 -78 189
-122 251 -145 74 -28 91 -48 95 -113 2 -29 6 -65 10 -80 7 -35 -14 -38 -43 -5
-66 71 -89 78 -155 52 -14 -5 -18 -2 -18 14 0 24 -43 56 -64 48 -9 -4 -19 5
-27 26 -7 17 -41 61 -76 98 -63 67 -65 67 -276 157 -390 167 -420 173 -544
127 -37 -14 -122 -39 -188 -56 -183 -46 -376 -99 -418 -116 -22 -9 -44 -27
-53 -45 l-15 -29 -66 70 c-82 90 -100 92 -199 23 -80 -55 -314 -228 -424 -313
-41 -31 -143 -91 -226 -133 -83 -42 -159 -85 -169 -96 -19 -21 -54 -153 -80
-304 l-16 -96 35 -82 c27 -60 52 -98 98 -147 35 -36 84 -91 109 -121 l47 -55
31 23 c17 12 79 48 137 79 119 63 129 61 119 -17 -6 -57 20 -268 39 -314 17
-40 57 -68 131 -92 28 -10 127 -48 220 -86 130 -54 185 -71 235 -75 63 -5 67
-4 128 36 34 23 69 41 77 41 7 0 17 5 21 11 3 6 38 32 78 57 39 25 121 91 181
147 61 56 148 129 195 163 94 67 174 145 185 180 5 19 13 23 38 20 25 -2 35
-10 46 -36 16 -36 53 -51 76 -32 9 7 27 10 45 6 17 -3 41 0 55 6 18 8 28 8 39
-1 9 -8 35 -10 75 -6 42 4 72 1 97 -10 45 -19 54 -19 54 -1 0 23 17 28 35 9
24 -23 204 -21 222 3 11 15 15 14 52 -7 l40 -22 52 21 c28 12 69 22 89 22 21
0 43 7 50 15 14 17 90 21 90 4 0 -30 84 -183 137 -249 115 -144 182 -206 273
-250 64 -31 96 -40 135 -40 91 0 215 20 248 40 17 11 103 81 189 156 146 127
158 139 158 171 0 50 -37 83 -94 83 -40 0 -47 -3 -66 -35 -24 -39 -109 -114
-157 -139 -41 -21 -71 -20 -104 2 -188 124 -269 202 -325 315 -40 78 -40 78
30 102 16 5 39 23 50 38 20 27 20 29 3 38 -9 6 -15 14 -12 20 9 14 25 11 25
-6 0 -24 67 -20 75 5 3 11 4 24 0 29 -3 6 4 15 15 21 29 15 25 43 -15 105 -32
50 -37 54 -64 49 -25 -5 -38 0 -72 29 -23 20 -55 39 -71 42 -16 4 -46 25 -65
46 -26 28 -43 39 -64 39 -16 0 -29 5 -29 10 0 6 -9 23 -19 38 -21 30 -55 183
-50 220 l4 24 25 -20 c23 -18 242 -135 420 -224 46 -23 102 -41 145 -48 38 -6
88 -19 110 -29 58 -26 212 -128 218 -145 3 -9 23 -24 44 -34 21 -11 85 -50
142 -86 65 -41 131 -74 174 -87 39 -11 144 -56 234 -99 202 -97 203 -99 173
-239 -21 -97 -30 -120 -66 -164 -37 -44 -32 -88 12 -127 20 -17 52 -39 70 -48
33 -15 35 -15 64 13 44 43 67 98 85 210 9 55 26 133 37 174 34 127 12 192 -91
273 -36 29 -102 84 -146 123 -44 39 -127 106 -184 150 -58 43 -128 100 -157
126 -43 39 -68 52 -150 77 -98 31 -202 86 -279 147 -47 38 -149 97 -260 152
-79 40 -148 59 -379 108 -152 32 -250 62 -279 85 -21 17 -22 29 -29 187 -6
150 -24 272 -45 307 -4 6 -8 17 -9 26 -1 8 -5 38 -9 66 -4 28 -2 90 5 140 30
225 30 214 7 240 -11 13 -26 24 -32 24 -6 0 -37 -24 -67 -52z m88 -13 c8 -33
-2 -99 -22 -140 -8 -18 -14 -36 -13 -41 2 -5 -1 -61 -5 -124 -6 -91 -4 -128 9
-180 9 -36 20 -128 25 -205 6 -77 13 -173 16 -212 l7 -73 -46 0 c-49 0 -57 8
-57 63 -1 18 -8 43 -16 57 l-15 25 6 -30 c17 -91 17 -102 1 -116 -9 -8 -23
-20 -31 -27 -7 -6 -21 -12 -31 -12 -15 0 -16 9 -10 103 4 56 11 244 15 417 l7
315 34 60 c19 33 34 62 34 65 0 3 13 17 29 33 15 15 25 27 22 27 -4 0 -3 5 0
10 12 19 35 10 41 -15z m-730 -654 c22 -10 121 -44 220 -76 236 -75 239 -77
258 -132 12 -35 13 -48 3 -64 -15 -23 -25 -24 -29 -2 -3 15 -4 15 -20 0 -20
-21 -22 -20 -289 113 -108 54 -211 101 -230 105 -60 13 -78 43 -36 63 33 16
77 14 123 -7z m-52 -92 c15 -12 25 -23 22 -26 -6 -6 -66 29 -66 39 0 14 16 9
44 -13z m-358 -44 c64 -24 183 -83 194 -96 3 -3 30 -14 60 -24 110 -36 235
-86 250 -101 13 -13 13 -16 0 -24 -13 -8 -13 -10 -1 -10 49 0 -33 -33 -409
-162 -191 -66 -245 -88 -210 -88 8 0 40 7 70 15 69 18 80 19 80 1 0 -13 -118
-61 -127 -52 -3 2 13 9 34 16 43 14 65 30 42 30 -20 0 -134 -57 -147 -73 -13
-16 -25 -137 -14 -137 5 0 14 18 21 39 6 21 19 48 29 59 9 11 85 47 167 80
185 73 254 96 372 121 50 11 106 27 122 36 17 8 31 12 31 8 0 -5 12 -9 26 -10
15 0 34 -8 42 -17 15 -15 14 -16 -11 -16 -15 0 -30 -7 -33 -15 -4 -10 -14 -13
-28 -9 -27 6 -76 -30 -76 -56 0 -25 -13 -32 -68 -36 -92 -7 -94 -8 -112 -41
-27 -50 -40 -63 -66 -63 -14 0 -30 -10 -40 -26 -9 -14 -29 -31 -44 -39 -15 -8
-31 -26 -34 -40 -4 -14 -11 -23 -16 -20 -6 4 -13 0 -16 -9 -3 -8 -11 -13 -18
-10 -17 6 -82 -22 -106 -46 -21 -21 -46 -28 -35 -10 3 6 -2 10 -13 10 -11 0
-36 11 -56 25 -20 14 -41 25 -46 25 -6 0 -10 9 -10 21 0 11 -4 17 -10 14 -6
-4 -10 9 -11 32 l-1 38 -10 -42 c-9 -40 -10 -42 -35 -32 -14 5 -31 13 -37 17
-6 3 -16 7 -21 8 -6 1 -26 11 -45 23 -24 14 -29 21 -17 21 10 0 15 5 12 11 -4
6 -13 8 -21 5 -7 -3 -26 1 -41 9 l-28 15 30 1 30 1 -29 8 c-16 5 -33 7 -38 4
-5 -3 -25 2 -45 11 -29 14 -40 15 -58 5 -19 -10 -29 -9 -60 6 -26 12 -39 14
-44 6 -4 -7 -12 -8 -21 -2 -11 7 -12 10 -2 10 7 0 10 4 7 10 -9 14 46 9 70 -7
11 -7 28 -13 39 -13 38 0 -16 41 -63 47 -51 7 -54 22 -3 25 35 1 35 1 6 5 -26
3 -31 9 -31 30 0 19 -27 51 -104 129 -57 57 -100 106 -96 110 3 3 20 -8 38
-25 18 -18 38 -30 46 -27 8 3 11 1 8 -4 -3 -6 4 -10 16 -10 12 0 30 -6 38 -14
28 -24 431 -228 467 -236 27 -6 36 -4 45 9 8 12 9 0 6 -44 -5 -59 -5 -60 8
-23 7 20 21 47 30 61 l16 25 -133 65 c-73 35 -163 77 -199 92 -66 27 -241 154
-247 179 -1 7 7 24 18 39 23 29 55 40 315 107 88 22 176 47 195 55 55 22 131
18 206 -10z m-1056 -109 c0 -8 -18 -81 -39 -163 -22 -81 -42 -160 -45 -175 -4
-16 -13 -28 -22 -28 -35 0 -230 -116 -443 -264 -82 -56 -185 -124 -229 -150
-44 -26 -86 -54 -92 -62 -14 -16 -95 -54 -117 -54 -20 0 -8 77 23 152 13 32
24 72 24 90 0 73 58 119 250 198 30 13 71 38 90 55 19 18 69 54 110 80 41 26
143 100 225 165 171 133 223 169 248 169 9 1 17 -5 17 -13z m237 -237 c62 -64
113 -122 113 -128 0 -7 -8 -28 -18 -49 -11 -20 -38 -95 -62 -165 -24 -70 -48
-126 -53 -124 -6 2 -33 39 -60 83 -65 106 -140 192 -214 249 -10 8 -5 38 26
155 21 80 44 158 50 175 l12 30 47 -55 c25 -30 97 -107 159 -171z m35 169 c0
-13 0 -32 -1 -43 -1 -11 6 -26 16 -34 21 -16 12 -13 -39 14 -43 21 -49 46 -16
69 30 21 38 20 40 -6z m1588 -3 c14 -8 21 -14 15 -14 -5 0 -21 6 -35 14 -14 8
-20 14 -15 14 6 0 21 -6 35 -14z m97 9 c-3 -3 -12 -4 -19 -1 -8 3 -5 6 6 6 11
1 17 -2 13 -5z m178 -44 c-3 -5 -12 -10 -18 -10 -7 0 -6 4 3 10 19 12 23 12
15 0z m86 -40 c10 -6 19 -19 19 -29 0 -10 3 -21 7 -25 4 -3 8 -12 9 -19 23
-151 44 -326 44 -369 0 -40 52 -329 76 -425 41 -159 241 -422 384 -504 65 -37
73 -49 34 -49 -14 0 -23 -4 -20 -9 7 -10 98 -3 146 11 50 15 179 89 177 102
-1 6 6 11 15 11 10 0 25 11 35 25 30 44 54 51 88 26 18 -13 11 -22 -117 -149
-75 -75 -155 -145 -177 -156 -29 -15 -59 -21 -111 -21 -82 0 -200 27 -200 45
0 7 -14 18 -31 26 -143 59 -369 320 -369 425 0 19 -18 82 -40 140 -51 134 -96
315 -115 464 -19 152 -37 407 -30 429 13 41 131 75 176 51z m365 -20 c43 -11
124 -30 179 -41 73 -14 129 -34 210 -73 115 -57 255 -148 255 -168 0 -6 -19
-27 -41 -46 -23 -20 -48 -51 -55 -69 -8 -18 -20 -33 -28 -33 -20 0 -77 25 -71
32 8 8 -35 24 -204 73 -87 25 -170 55 -190 70 -21 14 -42 25 -49 25 -29 0 -82
36 -93 63 -10 23 -14 26 -21 14 -7 -14 -11 -14 -38 0 -17 8 -30 19 -30 24 0 5
-11 9 -25 9 -14 0 -29 8 -35 19 -14 27 -13 41 5 41 8 0 15 5 15 10 0 6 -5 10
-11 10 -20 0 4 22 45 41 53 24 85 24 182 -1z m-952 -13 c8 -14 8 -20 -4 -27
-12 -8 -11 -10 8 -10 12 0 22 -4 22 -10 0 -13 -4 -13 -33 1 -20 9 -53 3 -187
-35 -90 -26 -165 -45 -167 -43 -4 4 192 76 224 82 10 2 19 4 21 5 1 2 5 3 10
4 33 8 52 20 57 37 8 24 33 22 49 -4z m-1231 -22 c20 -14 37 -28 37 -31 0 -6
-67 32 -84 48 -22 19 12 7 47 -17z m832 -120 c-49 -21 -75 -27 -75 -17 0 4 17
13 38 19 52 15 73 14 37 -2z m594 -48 c-2 -1 -14 -8 -26 -14 -31 -17 -33 -17
-33 11 0 15 -7 26 -20 29 -11 3 -20 10 -20 17 0 7 8 9 19 5 11 -3 22 -1 26 5
4 6 17 -3 32 -20 14 -17 24 -32 22 -33z m-124 39 c16 -12 17 -18 8 -39 -14
-31 -71 -61 -88 -47 -8 7 -12 5 -12 -5 0 -8 4 -15 9 -15 14 0 9 -37 -7 -50 -8
-7 -15 -18 -15 -24 1 -17 39 36 42 59 3 16 6 14 21 -14 20 -39 21 -44 7 -36
-5 3 -10 1 -10 -4 0 -6 -7 -11 -15 -11 -8 0 -24 -9 -35 -20 -19 -19 -22 -19
-51 -4 -29 15 -32 14 -50 -5 -10 -11 -19 -33 -19 -48 -1 -25 -2 -26 -11 -10
-6 10 -8 30 -5 45 3 15 3 21 0 15 -3 -7 -19 -13 -35 -13 -28 0 -31 4 -33 45
-1 22 15 45 27 38 4 -2 7 2 7 10 0 14 20 27 41 27 5 0 9 -8 9 -17 0 -14 7 -10
28 15 15 18 35 32 45 32 9 0 18 8 18 18 3 40 5 45 15 49 7 2 14 -7 18 -21 8
-31 47 -26 41 6 -8 39 15 50 50 24z m206 -29 c-12 -12 -43 -6 -48 10 -2 6 4
13 14 15 23 6 47 -12 34 -25z m-1166 -26 c43 -16 81 -33 83 -40 7 -21 -33 -10
-103 29 -38 22 -68 40 -65 40 3 0 41 -13 85 -29z m1155 -7 c19 0 38 5 41 10
12 16 29 -5 29 -35 0 -16 5 -29 11 -29 8 0 7 -5 -1 -15 -19 -23 -8 -26 17 -5
18 14 20 19 8 24 -8 3 -15 11 -15 17 0 7 8 5 20 -6 11 -10 17 -21 15 -26 -3
-4 -1 -10 5 -14 5 -3 10 -15 10 -26 0 -17 -4 -19 -22 -13 -21 6 -21 5 -9 -10
12 -15 12 -19 -2 -34 -16 -15 -18 -15 -34 2 -17 18 -17 18 5 13 29 -7 18 11
-14 23 -13 5 -24 14 -24 20 0 6 5 8 10 5 6 -3 10 -2 10 4 0 5 3 17 7 27 4 12
3 15 -6 10 -7 -5 -18 0 -27 10 -12 14 -17 16 -21 6 -3 -7 -15 -22 -27 -33 -16
-16 -17 -19 -3 -14 12 5 17 2 17 -9 0 -9 6 -16 13 -16 6 0 1 -9 -12 -19 -16
-12 -20 -21 -12 -25 15 -10 14 -43 -1 -49 -10 -4 -9 -8 2 -16 20 -15 33 -14
24 2 -4 6 -4 9 1 5 4 -4 14 -3 22 3 7 6 13 8 13 5 0 -4 10 0 22 8 12 9 27 16
33 16 5 0 2 -5 -7 -11 -10 -5 -18 -16 -18 -24 0 -20 -21 -30 -31 -14 -7 11 -9
10 -9 -4 0 -10 -4 -15 -10 -12 -20 13 -9 -7 18 -30 39 -35 72 -33 37 2 -16 15
-11 38 6 28 5 -3 6 2 2 11 -4 12 -3 15 5 10 7 -4 10 -17 6 -32 -7 -27 -2 -29
27 -14 16 9 19 7 19 -10 0 -12 -4 -18 -10 -15 -5 3 -20 -1 -32 -10 l-23 -17
31 4 c32 4 39 -10 19 -41 -5 -9 -4 -12 2 -8 12 8 28 -58 18 -74 -4 -5 -1 -16
5 -24 6 -8 9 -19 5 -25 -3 -5 -2 -10 3 -10 10 0 24 -41 17 -48 -3 -3 -11 1
-19 7 -11 9 -20 10 -35 1 -18 -9 -21 -8 -21 8 0 10 -9 27 -19 36 -19 17 -19
17 -14 -3 4 -16 -1 -23 -20 -30 -18 -7 -24 -15 -20 -29 3 -14 -2 -21 -16 -25
-28 -7 -37 11 -15 28 18 13 17 14 -6 8 -21 -5 -23 -3 -12 8 18 20 15 29 -12
29 -31 0 -56 28 -36 40 8 5 26 6 41 3 15 -3 35 0 46 7 16 10 16 11 1 6 -10 -3
-18 -2 -18 3 0 4 -11 6 -25 3 -27 -5 -30 0 -15 28 9 17 7 18 -22 9 -18 -5 -40
-7 -49 -4 -18 6 -32 -17 -23 -39 3 -9 -4 -19 -18 -27 -32 -16 -31 -15 -18 -39
9 -16 9 -25 1 -33 -8 -8 -11 -6 -11 6 0 9 -5 17 -11 17 -5 0 -7 6 -3 13 4 6 4
9 -1 5 -4 -4 -14 -1 -22 7 -17 17 -32 19 -52 6 -13 -8 -13 -12 -1 -26 12 -14
12 -18 -1 -26 -8 -5 -17 -9 -21 -9 -3 0 -4 -10 -1 -21 5 -18 3 -20 -15 -15
-15 5 -25 0 -36 -16 -14 -20 -18 -21 -27 -8 -8 12 -9 10 -4 -7 5 -19 2 -23
-14 -23 -22 0 -30 29 -8 31 9 0 9 2 -1 6 -6 2 -10 9 -6 14 3 5 -5 9 -17 9 -19
0 -21 -4 -16 -39 3 -27 0 -44 -10 -54 -14 -13 -13 -20 2 -64 10 -26 22 -52 27
-58 20 -22 5 -30 -57 -31 -47 0 -65 4 -65 13 0 7 6 13 13 13 8 0 7 4 -3 10
-11 7 -11 10 -2 10 7 0 11 4 8 9 -8 13 -44 2 -50 -16 -3 -8 -1 -11 4 -8 6 3
13 -1 16 -10 9 -23 -3 -30 -21 -11 -15 15 -19 15 -46 -5 -28 -20 -31 -20 -54
-5 -23 15 -26 15 -46 -5 -17 -17 -23 -19 -30 -8 -14 22 -11 29 11 29 25 0 26
12 2 33 -14 13 -29 16 -64 11 -30 -4 -48 -2 -53 5 -10 17 -1 23 30 23 18 0 25
5 23 17 -2 11 3 15 17 14 11 -2 31 6 45 17 20 15 23 21 13 31 -16 16 -17 33
-1 23 8 -5 9 -2 4 12 -5 10 -13 31 -18 47 -21 58 -59 23 -56 -51 2 -52 -11
-80 -32 -67 -6 4 -8 15 -5 26 5 14 2 17 -8 13 -17 -6 -31 23 -36 74 0 6 -9 12
-18 12 -16 1 -16 2 -2 13 9 7 21 22 27 34 11 19 9 24 -8 33 -20 11 -29 60 -10
60 6 0 10 12 10 26 0 35 18 21 26 -21 4 -21 13 -37 25 -40 21 -7 25 -20 9 -30
-5 -3 -10 -14 -10 -23 1 -11 6 -8 16 11 8 15 19 25 24 22 4 -3 6 3 3 14 -3 10
0 22 6 25 31 19 -12 84 -51 78 -17 -3 -18 -1 -6 17 8 13 16 17 22 11 15 -15
43 7 49 39 6 30 41 54 107 72 l25 7 -27 1 c-15 0 -30 -3 -33 -9 -9 -15 -25
-12 -25 5 0 9 13 24 30 33 16 9 34 29 39 45 10 27 51 40 51 16 0 -6 8 -1 18
11 14 17 24 21 41 15 18 -5 20 -9 10 -22 -7 -8 -21 -12 -31 -10 -10 3 -16 2
-13 -3 10 -17 45 -18 55 -2 7 12 9 1 6 -41 -5 -52 -3 -59 19 -73 27 -18 65 -5
65 22 0 33 20 0 21 -34 0 -20 3 -31 6 -25 6 17 43 -2 43 -22 0 -8 6 -12 13 -9
8 3 20 -3 28 -12 10 -13 11 -18 2 -21 -7 -2 -9 -11 -6 -19 3 -7 -2 -17 -11
-20 -23 -9 -32 2 -17 20 16 19 8 32 -26 41 -16 3 -39 16 -52 28 l-24 22 14
-25 c8 -14 18 -28 23 -31 4 -4 0 -12 -10 -18 -11 -6 -15 -11 -11 -11 4 0 18 7
30 15 13 8 28 11 36 6 9 -6 10 -11 2 -15 -12 -8 -15 -45 -5 -70 5 -12 10 -14
19 -6 9 8 15 8 20 0 10 -16 35 -12 35 8 0 9 4 13 8 7 13 -18 52 -36 52 -24 0
5 5 7 10 4 6 -4 8 -11 5 -16 -4 -5 3 -9 14 -9 19 0 19 1 -4 26 -31 33 -32 44
-2 37 l22 -5 -22 16 c-12 9 -28 13 -36 10 -22 -8 -29 11 -11 27 14 11 18 11
28 -1 11 -15 89 -20 102 -7 10 9 -6 117 -17 117 -5 0 -9 4 -9 10 0 5 17 12 37
16 36 7 36 8 15 17 -16 7 -22 17 -19 29 4 13 0 18 -14 18 -22 0 -25 15 -4 24
8 3 21 -4 30 -17 8 -12 15 -16 15 -9 0 9 9 10 28 6 23 -6 25 -5 15 8 -10 11
-10 17 -1 26 9 9 9 15 1 23 -6 6 -9 18 -6 27 5 12 1 14 -23 6 -16 -4 -45 -8
-65 -8 -34 0 -35 -1 -18 -16 17 -14 17 -16 -2 -34 -19 -19 -19 -19 -18 5 1 13
1 29 -1 34 -6 26 1 36 21 30 14 -5 20 -3 18 7 -4 33 2 48 21 48 11 0 20 5 20
10 0 14 27 13 36 -2 4 -6 2 -14 -4 -16 -7 -2 -12 -11 -12 -20 1 -16 1 -16 10
-1 6 11 18 15 36 11 20 -3 25 -2 19 7 -4 7 -10 10 -13 7 -9 -9 -32 15 -32 33
1 15 2 15 13 0 8 -10 26 -16 47 -15z m-1925 -37 c50 -52 215 -285 215 -303 0
-14 -64 -39 -122 -49 -21 -3 -62 -24 -95 -49 -32 -24 -69 -47 -83 -51 -14 -4
-81 -38 -150 -75 -69 -37 -133 -69 -142 -73 -23 -8 -62 -85 -60 -118 2 -23
-11 -33 -118 -93 -66 -37 -130 -68 -142 -69 -14 -1 -32 12 -52 37 -17 22 -61
71 -97 110 -67 71 -129 168 -129 200 0 11 17 24 48 37 78 33 91 41 97 58 3 9
65 50 137 91 73 41 162 97 197 124 175 131 393 266 430 266 16 0 39 -15 66
-43z m1760 22 c11 -17 -1 -21 -15 -4 -8 9 -8 15 -2 15 6 0 14 -5 17 -11z m-35
-29 c0 -5 -5 -12 -11 -16 -12 -7 -31 15 -23 28 6 9 34 -1 34 -12z m-300 -15
c0 -8 -4 -15 -9 -15 -13 0 -22 16 -14 24 11 11 23 6 23 -9z m530 -14 c0 -6 -4
-13 -10 -16 -5 -3 -10 1 -10 9 0 9 5 16 10 16 6 0 10 -4 10 -9z m-1490 -46
c-7 -8 -26 -15 -42 -15 -23 0 -29 -4 -24 -15 7 -18 -3 -19 -26 -1 -30 22 -20
35 30 39 26 2 53 4 61 5 11 2 11 -1 1 -13z m1370 5 c0 -5 -7 -10 -16 -10 -8 0
-12 5 -9 10 3 6 10 10 16 10 5 0 9 -4 9 -10z m1567 -15 c106 -40 112 -61 9
-30 -61 19 -83 19 -83 1 0 -9 37 -25 101 -45 56 -18 108 -34 116 -37 8 -3 -1
5 -20 16 -36 22 -30 22 33 -1 20 -7 37 -16 37 -21 0 -4 -8 -5 -17 -1 -10 3 15
-15 54 -40 40 -25 124 -83 185 -129 136 -101 152 -111 114 -70 -54 58 -20 43
60 -26 43 -37 98 -82 122 -101 76 -59 122 -172 88 -216 -15 -20 -15 -20 -16 3
0 12 -4 22 -9 22 -4 0 -11 -37 -14 -83 -3 -45 -17 -118 -31 -162 -14 -44 -26
-89 -26 -101 0 -29 -11 -36 -29 -20 -9 8 -35 19 -59 26 l-43 11 25 30 c35 41
76 209 76 311 0 44 -22 112 -31 96 -5 -8 -11 -4 -20 15 -6 14 -16 24 -21 21
-5 -3 -15 0 -23 6 -25 21 -17 -6 11 -39 45 -53 1 -37 -66 25 -33 31 -57 49
-54 39 5 -12 -20 -3 -88 34 -52 28 -104 51 -115 51 -11 0 -35 11 -54 25 -19
13 -58 41 -86 61 -29 20 -53 41 -53 45 0 5 -5 9 -11 9 -5 0 -7 -5 -4 -10 4 -6
-9 -1 -27 10 -18 11 -42 24 -53 29 -11 5 -29 18 -39 30 -11 12 -36 26 -58 31
-21 6 -38 17 -38 24 0 8 -9 16 -20 19 -11 3 -20 13 -20 24 0 23 96 143 115
143 8 0 45 -11 82 -25z m-2857 -5 c12 -8 11 -13 -8 -33 -12 -13 -22 -30 -22
-38 0 -15 19 -39 31 -39 11 0 32 59 26 74 -10 25 5 26 54 1 26 -14 83 -39 126
-55 103 -41 186 -84 218 -114 l25 -24 -54 -36 c-30 -20 -157 -98 -283 -174
-125 -76 -280 -171 -344 -210 -130 -81 -145 -84 -249 -52 -36 11 -119 32 -184
46 -171 36 -256 70 -256 99 0 15 268 175 293 175 9 0 31 9 50 20 19 11 72 33
118 49 143 49 156 58 186 125 26 56 33 63 133 127 110 72 116 74 140 59z
m1190 -9 c0 -37 -19 -71 -40 -71 -11 0 -20 7 -20 15 0 8 -6 15 -14 15 -19 0
-30 32 -14 42 23 14 50 8 55 -12 3 -11 9 -20 15 -20 5 0 4 8 -2 19 -13 26 -13
31 5 31 8 0 15 -9 15 -19z m125 9 c-3 -5 -11 -10 -16 -10 -6 0 -7 5 -4 10 3 6
11 10 16 10 6 0 7 -4 4 -10z m101 -37 c-10 -10 -19 5 -10 18 6 11 8 11 12 0 2
-7 1 -15 -2 -18z m1248 2 c-9 -14 -19 -23 -22 -20 -5 4 26 45 35 45 2 0 -4
-11 -13 -25z m-1147 -5 c-3 -11 -1 -23 4 -26 10 -6 13 -54 3 -54 -3 0 -17 10
-29 22 -21 20 -22 23 -7 34 10 7 18 17 18 23 2 18 4 21 10 21 4 0 4 -9 1 -20z
m-478 1 c8 -5 9 -11 3 -15 -14 -8 -43 4 -36 15 7 11 15 11 33 0z m-1237 -16
c0 -5 -5 -11 -11 -13 -6 -2 -11 4 -11 13 0 9 5 15 11 13 6 -2 11 -8 11 -13z
m208 -10 c-16 -19 -30 -19 -30 -1 0 8 8 16 18 18 24 6 27 1 12 -17z m1240 -11
c0 -6 -7 -17 -15 -24 -10 -8 -13 -21 -9 -33 5 -17 3 -19 -17 -14 -15 4 -30 0
-41 -10 -15 -13 -21 -14 -31 -4 -9 10 -8 15 6 25 17 13 17 14 0 20 -17 7 -17
8 0 17 19 11 41 3 32 -12 -4 -5 -1 -9 6 -9 7 0 9 8 6 21 -3 12 0 22 8 25 8 3
11 12 9 19 -5 11 -1 12 20 2 14 -7 26 -17 26 -23z m-337 -7 c-3 -5 -10 -4 -15
1 -6 6 -7 16 -3 22 6 9 9 9 16 -1 4 -7 5 -17 2 -22z m162 13 c3 -5 -1 -10 -10
-10 -9 0 -13 5 -10 10 3 6 8 10 10 10 2 0 7 -4 10 -10z m2042 -47 c164 -118
202 -148 203 -156 0 -5 -44 22 -97 59 -115 79 -203 145 -203 150 0 12 26 -2
97 -53z m-2093 31 c17 -6 22 -24 8 -24 -5 0 -17 7 -28 15 -19 15 -8 20 20 9z
m81 -24 c-10 -11 -22 -17 -26 -14 -15 9 -10 22 9 27 33 9 35 7 17 -13z m-49
-46 c-7 -19 -31 -18 -50 2 -21 21 -11 36 20 28 19 -5 24 -2 25 12 1 14 3 13 6
-4 3 -13 2 -30 -1 -38z m849 34 c9 26 13 27 37 5 25 -23 22 -36 -7 -31 -14 3
-25 1 -25 -3 0 -5 8 -9 19 -9 10 0 24 -7 31 -15 18 -22 -4 -74 -31 -75 -12 0
-60 131 -52 143 5 8 10 3 14 -13 l7 -25 7 23z m-455 -19 c0 -6 -4 -7 -10 -4
-5 3 -10 11 -10 16 0 6 5 7 10 4 6 -3 10 -11 10 -16z m-340 -9 c0 -5 -7 -10
-16 -10 -8 0 -12 5 -9 10 3 6 10 10 16 10 5 0 9 -4 9 -10z m785 -284 c19 -74
37 -119 72 -175 71 -116 189 -238 303 -316 55 -38 98 -70 96 -72 -8 -8 -138
47 -190 81 -59 38 -90 75 -193 231 -77 116 -104 173 -127 270 -19 81 -46 233
-45 255 0 20 53 -151 84 -274z m-745 235 c0 -6 -9 -11 -20 -11 -19 0 -28 28
-14 43 8 7 34 -17 34 -32z m85 11 c-8 -8 -25 10 -19 20 4 6 9 5 15 -3 4 -7 6
-15 4 -17z m-152 12 c3 -3 3 -12 0 -20 -4 -11 -9 -12 -19 -3 -8 6 -11 15 -8
20 6 10 18 12 27 3z m921 0 c23 -9 20 -24 -4 -24 -11 0 -20 7 -20 15 0 17 2
18 24 9z m-797 -20 c7 -20 -11 -38 -32 -30 -13 4 -14 10 -5 26 13 24 28 26 37
4z m838 -27 c-8 -12 -18 -28 -21 -35 -9 -18 17 -44 38 -39 12 4 24 -3 33 -16
19 -30 23 -62 7 -62 -7 0 -17 -7 -22 -15 -12 -19 -13 -50 -1 -50 5 0 7 8 4 19
-3 10 0 22 6 25 14 9 31 -36 24 -63 -8 -32 -52 -26 -66 9 -4 12 -6 12 -6 -1
-1 -22 -32 -34 -43 -17 -12 19 -10 25 13 41 13 9 16 17 10 21 -7 5 -3 18 11
37 27 36 17 61 -28 70 -75 15 -97 35 -46 41 22 2 26 7 24 27 -3 20 0 23 17 18
11 -3 25 1 32 9 18 22 32 4 14 -19z m-1509 -3 c-5 -14 -9 -15 -19 -5 -9 9 -9
14 3 21 18 11 24 6 16 -16z m704 -4 c0 -5 -2 -10 -4 -10 -3 0 -8 5 -11 10 -3
6 -1 10 4 10 6 0 11 -4 11 -10z m890 -31 c0 -5 -12 -9 -27 -9 -27 1 -27 1 -9
15 19 14 36 12 36 -6z m-1669 -74 c-1 -36 6 -132 15 -212 l17 -146 -22 -19
c-13 -10 -30 -18 -39 -18 -8 0 -43 -16 -77 -34 -34 -19 -73 -37 -88 -40 -15
-2 -54 -26 -87 -53 -34 -26 -78 -61 -98 -76 -53 -41 -175 -159 -187 -181 -5
-10 -14 -18 -20 -18 -5 0 -22 -19 -37 -42 -23 -38 -93 -106 -108 -106 -12 0
-29 357 -22 444 l8 89 55 51 c30 28 84 66 119 85 36 19 85 48 110 66 25 18 92
58 149 89 57 31 124 73 149 93 49 41 154 104 161 97 2 -2 3 -33 2 -69z m1744
65 c11 -17 -5 -32 -21 -19 -7 6 -11 15 -8 20 7 12 21 11 29 -1z m-1080 -20 c3
-5 1 -10 -4 -10 -6 0 -11 5 -11 10 0 6 2 10 4 10 3 0 8 -4 11 -10z m1010 -9
c-5 -18 -2 -20 44 -16 35 2 53 -1 62 -11 9 -12 6 -14 -20 -14 l-31 0 19 -49
c14 -39 16 -51 6 -55 -18 -6 -27 5 -15 19 7 8 -3 11 -35 10 -54 -2 -64 15 -30
49 25 25 33 42 15 31 -15 -9 -43 23 -36 40 8 23 28 18 21 -4z m-1538 -13 c-3
-8 -6 -5 -6 6 -1 11 2 17 5 13 3 -3 4 -12 1 -19z m724 13 c6 10 9 9 9 -7 0
-17 -6 -21 -27 -20 -18 1 -29 7 -31 19 -3 16 -1 17 18 7 18 -10 24 -9 31 1z
m-756 -11 c3 -5 1 -10 -4 -10 -6 0 -11 5 -11 10 0 6 2 10 4 10 3 0 8 -4 11
-10z m1435 -20 c0 -13 -28 -25 -38 -16 -3 4 0 11 8 16 20 13 30 12 30 0z m240
-35 c-7 -8 -16 -12 -21 -9 -13 8 -1 24 18 24 13 0 13 -3 3 -15z m-980 -10 c0
-8 -7 -15 -15 -15 -26 0 -18 20 13 29 1 1 2 -6 2 -14z m40 5 c0 -5 -2 -10 -4
-10 -3 0 -8 5 -11 10 -3 6 -1 10 4 10 6 0 11 -4 11 -10z m-144 -14 c3 -8 15
-16 26 -19 15 -4 19 -11 14 -24 -4 -9 -4 -14 0 -10 4 3 14 -8 24 -25 17 -32
43 -51 38 -28 -7 31 25 17 54 -24 17 -25 36 -46 41 -46 5 0 4 6 -2 13 -6 8 -8
17 -4 20 15 16 23 4 23 -33 0 -34 4 -41 25 -46 14 -3 36 -3 49 0 20 5 25 2 28
-16 4 -27 35 -31 59 -8 9 8 24 20 34 26 14 7 16 15 10 30 -7 16 -9 17 -12 3
-4 -17 -40 -32 -55 -23 -15 10 -8 23 20 38 19 11 22 15 10 16 -10 0 -18 5 -18
10 0 6 -13 9 -28 8 -15 -1 -34 2 -41 6 -21 13 8 27 44 21 25 -4 26 -4 9 4 -32
14 -39 32 -15 38 11 3 18 9 15 14 -9 15 25 22 41 9 12 -10 13 -16 4 -26 -14
-17 2 -19 19 -2 8 8 14 5 22 -16 13 -35 13 -49 -1 -63 -8 -8 -6 -18 6 -36 10
-16 14 -34 10 -47 -4 -13 -2 -20 5 -18 7 2 15 -4 17 -12 3 -12 2 -12 -5 -2 -7
10 -11 10 -22 -2 -7 -9 -16 -14 -20 -11 -5 3 -11 -4 -15 -15 -3 -11 -9 -20
-13 -20 -11 0 -37 19 -32 23 3 2 16 11 30 20 19 13 21 17 7 17 -9 0 -17 -5
-17 -11 0 -6 -9 -9 -19 -6 -15 3 -21 -1 -24 -17 -4 -21 -4 -21 -12 2 -9 27
-31 29 -40 2 -3 -11 -11 -20 -17 -20 -5 0 -8 7 -4 15 4 11 -1 14 -17 11 -15
-2 -30 6 -47 27 -22 25 -30 29 -58 22 -32 -7 -41 -18 -22 -30 6 -3 10 -13 10
-21 0 -12 -6 -11 -27 5 -16 11 -41 21 -58 23 -27 3 -33 -2 -53 -42 -12 -25
-27 -45 -32 -44 -26 3 -30 5 -30 19 0 9 -9 15 -25 15 -16 0 -25 6 -25 15 0 9
9 15 22 15 17 0 19 3 10 12 -10 10 -19 10 -44 0 -49 -18 -46 -6 4 18 44 20 45
21 44 68 -1 49 13 71 47 72 14 0 16 4 8 19 -14 26 10 48 29 27 6 -9 9 -20 5
-26 -3 -5 -1 -10 4 -10 6 0 11 10 11 23 -1 25 -22 57 -39 57 -6 0 -11 7 -11
15 0 19 19 20 26 1z m-646 -5 c0 -6 -4 -13 -10 -16 -5 -3 -10 1 -10 9 0 9 5
16 10 16 6 0 10 -4 10 -9z m840 -21 c0 -5 -4 -10 -10 -10 -5 0 -10 5 -10 10 0
6 5 10 10 10 6 0 10 -4 10 -10z m121 -13 c-13 -13 -26 -3 -16 12 3 6 11 8 17
5 6 -4 6 -10 -1 -17z m-163 -5 c3 -9 -2 -13 -14 -10 -9 1 -19 9 -22 16 -3 9 2
13 14 10 9 -1 19 -9 22 -16z m-48 -11 c0 -24 -18 -37 -32 -23 -8 8 -7 16 2 27
17 21 30 19 30 -4z m108 -18 c6 -9 16 -14 25 -10 20 7 49 -14 39 -30 -10 -16
-99 -20 -114 -5 -10 10 -10 14 0 21 11 7 10 10 -3 15 -9 3 -13 10 -10 16 10
16 53 12 63 -7z m-747 -26 c-16 -16 -26 0 -10 19 9 11 15 12 17 4 2 -6 -1 -17
-7 -23z m464 -8 c-4 -5 -13 -9 -22 -9 -13 0 -13 3 -3 15 13 15 35 11 25 -6z
m967 -3 c6 4 28 8 50 9 33 3 37 1 27 -11 -6 -7 -15 -11 -20 -8 -5 3 -9 1 -9
-5 0 -5 -20 -9 -45 -8 -27 1 -45 7 -45 14 0 14 24 24 28 11 2 -4 8 -5 14 -2z
m-1402 -6 c0 -5 -9 -14 -20 -20 -22 -12 -27 -1 -8 18 14 14 28 16 28 2z m412
-60 c7 0 6 -5 -2 -15 -10 -12 -15 -10 -35 13 l-24 27 22 6 c16 4 23 0 25 -13
2 -10 8 -18 14 -18z m-407 21 c9 -15 -37 -43 -50 -30 -7 7 -4 15 9 25 23 16
33 18 41 5z m790 -1 c-3 -5 -13 -10 -21 -10 -8 0 -14 5 -14 10 0 6 9 10 21 10
11 0 17 -4 14 -10z m59 -11 c-3 -5 -10 -7 -15 -3 -5 3 -7 10 -3 15 3 5 10 7
15 3 5 -3 7 -10 3 -15z m-506 -11 c-3 -7 -11 -13 -18 -13 -7 0 -15 6 -17 13
-3 7 4 12 17 12 13 0 20 -5 18 -12z m462 -7 c0 -12 -20 -25 -27 -18 -7 7 6 27
18 27 5 0 9 -4 9 -9z m-905 -29 c-11 -2 -26 -9 -32 -14 -17 -14 -18 13 -1 30
8 8 16 8 32 -1 21 -11 21 -11 1 -15z m1075 18 c0 -5 -2 -10 -4 -10 -3 0 -8 5
-11 10 -3 6 -1 10 4 10 6 0 11 -4 11 -10z m-603 -27 c5 -13 -25 -26 -38 -17
-6 3 -5 11 2 20 13 16 31 14 36 -3z m466 -8 c-3 -9 -8 -14 -10 -11 -3 3 -2 9
2 15 9 16 15 13 8 -4z m-2284 -26 c58 -18 112 -37 120 -43 11 -8 13 -8 7 2 -4
6 -6 12 -4 12 11 -1 138 -43 163 -54 17 -8 61 -19 98 -24 38 -6 71 -13 74 -16
9 -9 22 -228 22 -383 1 -140 0 -143 -20 -143 -43 0 -439 133 -519 175 -29 15
-75 87 -63 99 4 3 0 6 -7 6 -7 0 -10 3 -7 7 4 3 16 -2 27 -12 24 -22 25 -14 3
28 -21 40 -22 56 -6 85 10 15 11 28 4 41 -6 10 -8 21 -4 24 3 3 7 31 9 62 2
31 9 66 15 77 15 28 3 67 -24 78 -49 20 12 8 112 -21z m2125 12 c3 -5 -2 -12
-11 -15 -12 -5 -14 -9 -5 -18 15 -15 16 -31 1 -23 -13 9 -28 47 -22 58 6 10
31 9 37 -2z m326 -32 c0 -6 -4 -7 -10 -4 -5 3 -10 11 -10 16 0 6 5 7 10 4 6
-3 10 -11 10 -16z m-2570 -4 c0 -8 -4 -15 -10 -15 -5 0 -10 7 -10 15 0 8 5 15
10 15 6 0 10 -7 10 -15z m1557 -11 c-9 -9 -28 6 -21 18 4 6 10 6 17 -1 6 -6 8
-13 4 -17z m573 7 c0 -27 -10 -51 -22 -51 -6 0 -7 7 -4 16 3 8 1 24 -4 35 -9
16 -7 19 10 19 13 0 20 -7 20 -19z m140 5 c0 -8 -4 -17 -9 -20 -10 -7 -23 19
-14 28 11 11 23 6 23 -8z m-86 -37 c-5 -9 -44 -8 -40 1 2 3 6 14 10 25 7 20 8
20 21 1 8 -10 12 -22 9 -27z m141 -4 c0 -22 -15 -28 -35 -15 -13 9 -13 11 0
20 10 6 11 10 3 10 -7 0 -13 4 -13 10 0 6 9 6 23 1 12 -5 22 -16 22 -26z
m-244 -8 c-16 -16 -26 0 -10 19 9 11 15 12 17 4 2 -6 -1 -17 -7 -23z m306 16
c5 -13 -25 -26 -38 -17 -6 3 -5 11 2 20 13 16 31 14 36 -3z m-449 -5 c-6 -18
-28 -21 -28 -4 0 9 7 16 16 16 9 0 14 -5 12 -12z m1752 -160 c0 -12 -63 16
-68 30 -3 9 8 7 32 -5 20 -9 36 -20 36 -25z m-2560 4 c0 -4 -9 -8 -20 -9 -11
-1 -18 2 -15 8 7 11 35 12 35 1z m-193 -239 c-9 -9 -20 -14 -24 -10 -3 4 2 14
13 21 25 19 33 10 11 -11z"/>
<path d="M3091 2333 c-1 -150 17 -310 37 -318 12 -4 13 1 8 25 -3 17 -10 79
-16 138 -6 59 -14 143 -19 187 l-8 80 -2 -112z"/>
<path d="M1860 1877 c0 -13 6 -32 14 -42 13 -18 14 -17 41 8 24 22 26 28 16
41 -8 9 -26 16 -42 16 -24 0 -29 -4 -29 -23z m68 -5 c3 -9 -3 -13 -19 -10 -12
1 -24 9 -27 16 -3 9 3 13 19 10 12 -1 24 -9 27 -16z"/>
<path d="M1550 1763 c0 -10 9 -33 20 -51 17 -28 23 -31 40 -22 26 14 26 44 0
70 -25 25 -60 27 -60 3z m42 -7 c10 -7 15 -16 11 -19 -11 -12 -22 -8 -33 13
-12 23 -3 25 22 6z m15 -52 c-3 -3 -12 -4 -19 -1 -8 3 -5 6 6 6 11 1 17 -2 13
-5z"/>
<path d="M2210 1723 c0 -5 5 -14 11 -20 6 -6 8 -20 4 -31 -8 -29 -39 -17 -31
12 5 20 5 21 -9 2 -19 -26 -19 -29 5 -51 20 -18 22 -18 65 3 44 21 59 42 31
42 -8 0 -28 12 -45 26 -17 14 -31 22 -31 17z m41 -76 c-8 -8 -11 -7 -11 4 0 9
3 19 7 23 4 4 9 2 11 -4 3 -7 -1 -17 -7 -23z"/>
<path d="M1724 1702 c-4 -12 -11 -22 -16 -22 -5 0 -6 -4 -3 -10 10 -16 45 -12
52 6 3 8 -2 23 -11 32 -15 16 -17 15 -22 -6z m26 -22 c0 -5 -2 -10 -4 -10 -3
0 -8 5 -11 10 -3 6 -1 10 4 10 6 0 11 -4 11 -10z"/>
<path d="M766 1674 c-18 -17 -18 -20 -10 -51 4 -16 14 -23 30 -23 31 0 50 41
31 70 -14 24 -30 25 -51 4z m16 -26 c-7 -7 -12 -8 -12 -2 0 14 12 26 19 19 2
-3 -1 -11 -7 -17z m32 -3 c-4 -8 -8 -15 -10 -15 -2 0 -4 7 -4 15 0 8 4 15 10
15 5 0 7 -7 4 -15z"/>
<path d="M630 1421 c-12 -23 -13 -61 -2 -61 25 0 46 33 43 68 -2 19 -29 14
-41 -7z m22 -13 c-7 -7 -12 -8 -12 -2 0 14 12 26 19 19 2 -3 -1 -11 -7 -17z"/>
<path d="M190 1179 c-15 -27 -6 -49 20 -49 26 0 48 49 28 62 -21 13 -37 9 -48
-13z"/>
<path d="M3126 1536 c-11 -49 -1 -173 19 -251 9 -32 33 -98 54 -145 56 -124
97 -244 116 -335 9 -44 18 -91 21 -103 3 -15 1 -21 -6 -17 -13 8 -13 8 11 -65
37 -114 58 -146 155 -240 68 -66 112 -99 157 -120 102 -47 117 -44 32 5 -151
88 -228 162 -283 272 -35 70 -38 83 -52 201 -11 95 -29 152 -119 370 -67 163
-83 225 -90 357 -6 93 -8 104 -15 71z"/>
<path d="M3740 1625 c14 -8 30 -14 35 -14 6 0 -1 6 -15 14 -14 8 -29 14 -35
14 -5 0 1 -6 15 -14z"/>
<path d="M3846 1575 c18 -14 17 -14 -11 -4 -63 22 -5 -11 124 -70 73 -34 136
-59 138 -57 8 7 -93 68 -181 109 -85 40 -100 45 -70 22z"/>
<path d="M3760 1440 c19 -11 40 -19 45 -19 6 0 -6 8 -25 19 -19 11 -39 19 -45
19 -5 0 6 -8 25 -19z"/>
<path d="M3840 1407 c3 -3 40 -19 82 -36 97 -38 200 -63 213 -50 5 5 6 9 3 9
-9 0 -259 67 -283 76 -11 4 -18 5 -15 1z"/>
<path d="M2588 1408 c-16 -25 -10 -70 10 -74 7 -1 8 0 2 3 -20 9 -10 43 15 53
30 11 33 20 5 13 -16 -4 -19 -2 -14 11 9 23 -1 20 -18 -6z"/>
<path d="M2361 1267 c9 -17 8 -23 -7 -34 -17 -13 -17 -14 9 -8 23 6 27 4 27
-14 0 -12 5 -21 11 -21 7 0 8 7 4 18 -4 9 -10 26 -13 37 -5 18 -4 19 13 5 10
-8 16 -10 12 -3 -4 6 -21 18 -37 27 -29 14 -30 14 -19 -7z"/>
<path d="M2876 1254 c-8 -21 21 -67 36 -58 7 4 6 9 -2 14 -7 4 -9 13 -6 19 4
6 2 11 -4 11 -6 0 -9 4 -5 9 3 5 1 12 -4 15 -5 3 -12 -1 -15 -10z"/>
<path d="M2258 1193 c6 -2 18 -2 25 0 6 3 1 5 -13 5 -14 0 -19 -2 -12 -5z"/>
<path d="M2300 1180 c0 -5 -8 -10 -18 -10 -22 0 -56 -35 -48 -48 9 -15 -4 -42
-19 -42 -21 0 -24 23 -6 44 15 18 15 18 -5 8 -27 -14 -37 -39 -18 -46 8 -3 14
-10 14 -16 0 -6 -5 -8 -11 -5 -6 4 -5 -2 3 -14 7 -12 19 -21 27 -21 11 0 11 3
0 16 -10 13 -10 17 2 25 8 5 20 9 27 9 6 0 12 6 12 14 0 7 15 25 34 40 37 28
41 27 70 -31 16 -32 39 -43 50 -24 4 5 -3 7 -14 4 -11 -3 -20 0 -20 6 0 10 13
15 31 13 4 -1 9 12 13 29 3 17 10 28 16 24 5 -3 10 -1 10 4 0 14 -13 14 -28
-1 -8 -8 -15 -8 -28 3 -16 13 -17 12 -11 -13 9 -35 -10 -47 -23 -13 -5 14 -17
28 -26 32 -13 5 -13 7 -2 14 9 6 7 9 -9 9 -13 0 -23 -4 -23 -10z m-20 -34 c0
-3 -4 -8 -10 -11 -5 -3 -10 -1 -10 4 0 6 5 11 10 11 6 0 10 -2 10 -4z"/>
<path d="M2890 1160 c0 -5 -10 -9 -21 -7 -12 1 -23 -2 -25 -8 -2 -5 10 -10 26
-10 17 0 30 5 30 10 0 6 5 3 10 -5 8 -12 10 -11 10 8 0 13 -6 22 -15 22 -8 0
-15 -4 -15 -10z"/>
<path d="M2270 1084 c-34 -32 -34 -33 -16 -53 11 -12 26 -21 33 -21 19 0 12
-20 -11 -34 -14 -9 -21 -7 -33 12 -18 25 -45 29 -62 8 -9 -11 -5 -25 19 -65
41 -66 55 -73 97 -50 28 16 33 16 33 3 0 -11 9 -14 38 -12 32 3 37 6 37 28 0
21 -5 25 -30 25 -21 0 -33 7 -41 23 -8 16 -13 20 -17 10 -3 -9 -7 -8 -12 6
-12 27 14 39 45 20 22 -13 21 -12 -3 9 -24 20 -26 25 -13 30 10 4 13 13 9 23
-5 15 -7 15 -15 0 -12 -22 -32 -21 -23 2 4 9 8 24 8 32 0 8 4 18 9 21 5 3 4 8
-4 11 -7 3 -29 -10 -48 -28z m-55 -94 c3 -5 1 -10 -4 -10 -6 0 -11 5 -11 10 0
6 2 10 4 10 3 0 8 -4 11 -10z m73 -92 c-3 -7 -13 -15 -24 -17 -16 -3 -17 -1
-5 13 16 19 34 21 29 4z m112 2 c0 -12 -28 -25 -36 -17 -9 9 6 27 22 27 8 0
14 -5 14 -10z"/>
<path d="M2894 1105 c-17 -13 -17 -14 -2 -15 9 0 20 5 23 11 11 17 0 20 -21 4z"/>
<path d="M2960 1085 c-12 -13 -28 -21 -34 -18 -6 4 -2 -3 8 -15 23 -26 28 -28
19 -6 -4 12 -1 15 13 12 11 -2 24 -18 31 -38 11 -33 12 -34 12 -7 1 24 21 41
21 17 0 -5 5 -10 10 -10 6 0 5 8 -2 19 -9 15 -9 23 1 35 9 11 10 16 2 16 -6 0
-14 -7 -17 -15 -7 -18 -30 -20 -40 -3 -4 6 1 17 11 25 15 10 16 13 4 13 -9 0
-26 -11 -39 -25z"/>
<path d="M2840 1090 c0 -5 5 -10 11 -10 5 0 7 5 4 10 -3 6 -8 10 -11 10 -2 0
-4 -4 -4 -10z"/>
<path d="M2491 1033 c-23 -22 -23 -23 -6 -49 17 -26 17 -26 37 -7 17 18 18 23
6 49 l-13 30 -24 -23z m29 -47 c-15 -15 -34 9 -26 31 7 17 8 17 22 -1 9 -13
11 -23 4 -30z"/>
<path d="M2383 1024 c-6 -17 12 -34 37 -33 8 0 4 5 -9 10 -15 6 -21 15 -17 24
3 8 3 15 0 15 -2 0 -7 -7 -11 -16z"/>
<path d="M2500 918 c0 -9 5 -20 11 -23 17 -11 18 -2 3 19 -12 17 -14 17 -14 4z"/>
<path d="M2440 849 c0 -5 5 -7 10 -4 6 3 10 8 10 11 0 2 -4 4 -10 4 -5 0 -10
-5 -10 -11z"/>
<path d="M2326 788 c-8 -11 -22 -18 -33 -17 -25 3 -73 -21 -73 -38 0 -30 21
-53 49 -53 37 0 96 63 75 81 -8 6 -14 15 -14 20 0 14 44 11 59 -3 10 -11 11
-10 6 3 -10 26 -53 30 -69 7z m-2 -47 c3 -5 -1 -11 -9 -15 -9 -3 -15 0 -15 9
0 16 16 20 24 6z m-49 -31 c0 -7 -6 -15 -12 -17 -8 -3 -13 4 -13 17 0 13 5 20
13 18 6 -3 12 -11 12 -18z"/>
<path d="M890 1402 c-78 -29 -210 -113 -210 -133 0 -30 32 -23 130 26 102 51
99 51 180 -15 48 -39 100 -65 100 -51 0 46 -108 192 -141 190 -8 0 -34 -8 -59
-17z"/>
<path d="M4386 1161 c5 -5 114 -77 242 -160 186 -120 236 -149 253 -142 18 6
-15 29 -193 138 -206 126 -289 173 -305 173 -4 0 -3 -4 3 -9z"/>
<path d="M1108 796 c-9 -22 -9 -29 4 -43 9 -8 21 -12 27 -9 16 10 13 51 -4 66
-12 10 -17 7 -27 -14z m22 -16 c0 -5 -5 -10 -11 -10 -5 0 -7 5 -4 10 3 6 8 10
11 10 2 0 4 -4 4 -10z"/>
<path d="M772 798 c-31 -31 12 -70 54 -47 33 17 30 35 -7 48 -38 13 -33 13
-47 -1z m56 -26 c2 -7 -3 -12 -12 -12 -9 0 -16 7 -16 16 0 17 22 14 28 -4z"/>
<path d="M2712 804 c-12 -8 -22 -19 -22 -25 0 -18 37 -9 60 16 13 14 19 25 13
25 -6 0 -13 -7 -17 -15 -3 -8 -11 -15 -17 -15 -8 0 -8 4 1 15 16 19 10 19 -18
-1z"/>
<path d="M2776 765 c-3 -8 -1 -15 4 -15 6 0 10 7 10 15 0 8 -2 15 -4 15 -2 0
-6 -7 -10 -15z"/>
<path d="M925 626 c17 -7 46 -16 65 -19 30 -6 29 -4 -9 8 -66 22 -90 26 -56
11z"/>
</g>
</svg>
